<svg width="844" height="515" viewBox="0 0 844 515" fill="none" xmlns="http://www.w3.org/2000/svg">
<g clip-path="url(#clip0_296_9)">
<rect width="844" height="515" rx="21" fill="#79B0B6" fill-opacity="0.47"/>
<g filter="url(#filter0_d_296_9)">
<rect x="43" y="11" width="750" height="596" rx="43" fill="white"/>
</g>
<path d="M614.119 96V94.7273L618.057 90.6477C618.477 90.2045 618.824 89.8163 619.097 89.483C619.373 89.1458 619.58 88.8258 619.716 88.5227C619.852 88.2197 619.92 87.8977 619.92 87.5568C619.92 87.1705 619.83 86.8371 619.648 86.5568C619.466 86.2727 619.218 86.0549 618.903 85.9034C618.589 85.7481 618.235 85.6705 617.841 85.6705C617.424 85.6705 617.061 85.7557 616.75 85.9261C616.439 86.0966 616.201 86.3371 616.034 86.6477C615.867 86.9583 615.784 87.322 615.784 87.7386H614.108C614.108 87.0303 614.271 86.411 614.597 85.8807C614.922 85.3504 615.369 84.9394 615.938 84.6477C616.506 84.3523 617.152 84.2045 617.875 84.2045C618.606 84.2045 619.25 84.3504 619.807 84.642C620.367 84.9299 620.805 85.3239 621.119 85.8239C621.434 86.3201 621.591 86.8807 621.591 87.5057C621.591 87.9375 621.509 88.3598 621.347 88.7727C621.188 89.1856 620.909 89.6458 620.511 90.1534C620.114 90.6572 619.561 91.2689 618.852 91.9886L616.54 94.4091V94.4943H621.778V96H614.119ZM625.074 96.108C624.763 96.108 624.496 95.9981 624.273 95.7784C624.049 95.5549 623.938 95.286 623.938 94.9716C623.938 94.661 624.049 94.3958 624.273 94.1761C624.496 93.9527 624.763 93.8409 625.074 93.8409C625.384 93.8409 625.652 93.9527 625.875 94.1761C626.098 94.3958 626.21 94.661 626.21 94.9716C626.21 95.1799 626.157 95.3712 626.051 95.5455C625.949 95.7159 625.812 95.8523 625.642 95.9545C625.472 96.0568 625.282 96.108 625.074 96.108ZM628.219 93.7273V92.3068L633.247 84.3636H634.366V86.4545H633.656L630.06 92.1477V92.2386H636.952V93.7273H628.219ZM633.736 96V93.2955L633.747 92.6477V84.3636H635.412V96H633.736ZM645.006 93.8182V93.2045C645.006 92.7652 645.097 92.3636 645.278 92C645.464 91.6326 645.733 91.339 646.085 91.1193C646.441 90.8958 646.871 90.7841 647.375 90.7841C647.89 90.7841 648.322 90.8939 648.67 91.1136C649.019 91.3333 649.282 91.6269 649.46 91.9943C649.642 92.3617 649.733 92.7652 649.733 93.2045V93.8182C649.733 94.2576 649.642 94.661 649.46 95.0284C649.278 95.392 649.011 95.6856 648.659 95.9091C648.311 96.1288 647.883 96.2386 647.375 96.2386C646.864 96.2386 646.432 96.1288 646.08 95.9091C645.727 95.6856 645.46 95.392 645.278 95.0284C645.097 94.661 645.006 94.2576 645.006 93.8182ZM646.33 93.2045V93.8182C646.33 94.1439 646.407 94.4394 646.562 94.7045C646.718 94.9697 646.989 95.1023 647.375 95.1023C647.758 95.1023 648.025 94.9697 648.176 94.7045C648.328 94.4394 648.403 94.1439 648.403 93.8182V93.2045C648.403 92.8788 648.33 92.5833 648.182 92.3182C648.038 92.053 647.769 91.9205 647.375 91.9205C646.996 91.9205 646.727 92.053 646.568 92.3182C646.409 92.5833 646.33 92.8788 646.33 93.2045ZM639.153 87.1591V86.5455C639.153 86.1061 639.244 85.7027 639.426 85.3352C639.612 84.9678 639.881 84.6742 640.233 84.4545C640.589 84.2348 641.019 84.125 641.523 84.125C642.038 84.125 642.47 84.2348 642.818 84.4545C643.167 84.6742 643.43 84.9678 643.608 85.3352C643.786 85.7027 643.875 86.1061 643.875 86.5455V87.1591C643.875 87.5985 643.784 88.0019 643.602 88.3693C643.424 88.733 643.159 89.0265 642.807 89.25C642.458 89.4697 642.03 89.5795 641.523 89.5795C641.008 89.5795 640.574 89.4697 640.222 89.25C639.873 89.0265 639.608 88.733 639.426 88.3693C639.244 88.0019 639.153 87.5985 639.153 87.1591ZM640.483 86.5455V87.1591C640.483 87.4848 640.559 87.7803 640.71 88.0455C640.866 88.3106 641.136 88.4432 641.523 88.4432C641.902 88.4432 642.167 88.3106 642.318 88.0455C642.473 87.7803 642.551 87.4848 642.551 87.1591V86.5455C642.551 86.2197 642.477 85.9242 642.33 85.6591C642.182 85.3939 641.913 85.2614 641.523 85.2614C641.144 85.2614 640.875 85.3939 640.716 85.6591C640.561 85.9242 640.483 86.2197 640.483 86.5455ZM639.693 96L647.693 84.3636H649.051L641.051 96H639.693Z" fill="black"/>
<path d="M127.795 238.909C127.699 237.937 127.27 237.165 126.509 236.591C125.747 236.017 124.79 235.73 123.636 235.73C122.824 235.73 122.108 235.869 121.489 236.148C120.875 236.426 120.392 236.812 120.04 237.307C119.693 237.795 119.52 238.352 119.52 238.977C119.52 239.438 119.619 239.841 119.818 240.188C120.017 240.534 120.284 240.832 120.619 241.082C120.96 241.327 121.335 241.537 121.744 241.713C122.159 241.889 122.577 242.037 122.997 242.156L124.838 242.685C125.395 242.838 125.952 243.034 126.509 243.273C127.065 243.511 127.574 243.812 128.034 244.176C128.5 244.534 128.872 244.974 129.151 245.497C129.435 246.014 129.577 246.636 129.577 247.364C129.577 248.295 129.335 249.134 128.852 249.878C128.369 250.622 127.676 251.213 126.773 251.651C125.869 252.082 124.787 252.298 123.526 252.298C122.338 252.298 121.307 252.102 120.432 251.71C119.557 251.312 118.869 250.764 118.369 250.065C117.869 249.366 117.588 248.557 117.526 247.636H119.162C119.219 248.324 119.446 248.906 119.844 249.384C120.241 249.861 120.759 250.224 121.395 250.474C122.031 250.719 122.741 250.841 123.526 250.841C124.395 250.841 125.168 250.696 125.844 250.406C126.526 250.111 127.06 249.702 127.446 249.179C127.838 248.651 128.034 248.037 128.034 247.338C128.034 246.747 127.881 246.253 127.574 245.855C127.267 245.452 126.838 245.114 126.287 244.841C125.741 244.568 125.108 244.327 124.386 244.116L122.298 243.503C120.929 243.094 119.866 242.528 119.111 241.807C118.355 241.085 117.977 240.165 117.977 239.045C117.977 238.108 118.227 237.284 118.727 236.574C119.233 235.858 119.915 235.301 120.773 234.903C121.636 234.5 122.605 234.298 123.679 234.298C124.764 234.298 125.724 234.497 126.56 234.895C127.395 235.293 128.057 235.841 128.545 236.54C129.04 237.233 129.304 238.023 129.338 238.909H127.795ZM141.415 246.997V238.909H142.932V252H141.415V249.827H141.295C140.989 250.497 140.503 251.057 139.838 251.506C139.173 251.949 138.361 252.17 137.401 252.17C136.565 252.17 135.824 251.989 135.176 251.625C134.528 251.256 134.02 250.716 133.651 250.006C133.281 249.295 133.097 248.423 133.097 247.389V238.909H134.614V247.295C134.614 248.318 134.915 249.142 135.517 249.767C136.119 250.386 136.892 250.696 137.835 250.696C138.426 250.696 138.994 250.554 139.54 250.27C140.085 249.986 140.534 249.571 140.886 249.026C141.239 248.474 141.415 247.798 141.415 246.997ZM152.062 252.273C150.891 252.273 149.871 251.98 149.002 251.395C148.138 250.81 147.468 250.009 146.991 248.991C146.513 247.974 146.275 246.815 146.275 245.514C146.275 244.202 146.516 243.034 146.999 242.011C147.488 240.989 148.164 240.187 149.028 239.608C149.891 239.023 150.894 238.73 152.036 238.73C152.911 238.73 153.704 238.901 154.414 239.241C155.124 239.577 155.71 240.051 156.17 240.665C156.636 241.273 156.928 241.983 157.048 242.795H155.513C155.354 242.057 154.971 241.426 154.363 240.903C153.761 240.375 152.994 240.111 152.062 240.111C151.227 240.111 150.488 240.338 149.846 240.793C149.204 241.241 148.701 241.869 148.337 242.676C147.979 243.477 147.8 244.406 147.8 245.463C147.8 246.526 147.977 247.466 148.329 248.284C148.681 249.097 149.175 249.733 149.812 250.193C150.454 250.653 151.204 250.884 152.062 250.884C152.641 250.884 153.17 250.776 153.647 250.56C154.13 250.338 154.533 250.026 154.857 249.622C155.187 249.219 155.408 248.739 155.522 248.182H157.056C156.942 248.972 156.661 249.676 156.212 250.295C155.769 250.909 155.192 251.392 154.482 251.744C153.778 252.097 152.971 252.273 152.062 252.273ZM165.421 252.273C164.251 252.273 163.231 251.98 162.362 251.395C161.498 250.81 160.827 250.009 160.35 248.991C159.873 247.974 159.634 246.815 159.634 245.514C159.634 244.202 159.876 243.034 160.359 242.011C160.847 240.989 161.523 240.187 162.387 239.608C163.251 239.023 164.254 238.73 165.396 238.73C166.271 238.73 167.063 238.901 167.773 239.241C168.484 239.577 169.069 240.051 169.529 240.665C169.995 241.273 170.288 241.983 170.407 242.795H168.873C168.714 242.057 168.33 241.426 167.722 240.903C167.12 240.375 166.353 240.111 165.421 240.111C164.586 240.111 163.847 240.338 163.205 240.793C162.563 241.241 162.06 241.869 161.697 242.676C161.339 243.477 161.16 244.406 161.16 245.463C161.16 246.526 161.336 247.466 161.688 248.284C162.04 249.097 162.535 249.733 163.171 250.193C163.813 250.653 164.563 250.884 165.421 250.884C166.001 250.884 166.529 250.776 167.006 250.56C167.489 250.338 167.893 250.026 168.217 249.622C168.546 249.219 168.768 248.739 168.881 248.182H170.415C170.302 248.972 170.021 249.676 169.572 250.295C169.129 250.909 168.552 251.392 167.842 251.744C167.137 252.097 166.33 252.273 165.421 252.273ZM178.96 252.273C177.738 252.273 176.681 251.989 175.789 251.42C174.897 250.847 174.207 250.054 173.718 249.043C173.235 248.026 172.994 246.855 172.994 245.531C172.994 244.213 173.235 243.043 173.718 242.02C174.207 240.991 174.88 240.187 175.738 239.608C176.602 239.023 177.599 238.73 178.729 238.73C179.44 238.73 180.124 238.861 180.783 239.122C181.442 239.378 182.033 239.773 182.556 240.307C183.085 240.835 183.502 241.503 183.809 242.31C184.116 243.111 184.269 244.06 184.269 245.156V245.906H174.042V244.568H182.718C182.718 243.727 182.548 242.972 182.207 242.301C181.871 241.625 181.403 241.091 180.8 240.699C180.204 240.307 179.513 240.111 178.729 240.111C177.9 240.111 177.17 240.332 176.539 240.776C175.908 241.219 175.414 241.804 175.056 242.531C174.704 243.259 174.525 244.054 174.519 244.918V245.719C174.519 246.759 174.698 247.668 175.056 248.446C175.42 249.219 175.934 249.818 176.599 250.244C177.263 250.67 178.05 250.884 178.96 250.884C179.579 250.884 180.121 250.787 180.587 250.594C181.059 250.401 181.454 250.142 181.772 249.818C182.096 249.489 182.34 249.128 182.505 248.736L183.945 249.205C183.746 249.756 183.42 250.264 182.965 250.73C182.516 251.196 181.954 251.571 181.278 251.855C180.607 252.134 179.835 252.273 178.96 252.273ZM196.408 241.781L195.018 242.173C194.882 241.781 194.689 241.426 194.439 241.108C194.189 240.79 193.862 240.537 193.459 240.349C193.061 240.162 192.567 240.068 191.976 240.068C191.089 240.068 190.362 240.278 189.794 240.699C189.226 241.119 188.942 241.662 188.942 242.327C188.942 242.889 189.135 243.347 189.521 243.699C189.913 244.045 190.516 244.321 191.328 244.526L193.305 245.011C194.402 245.278 195.223 245.702 195.768 246.281C196.32 246.861 196.595 247.588 196.595 248.463C196.595 249.202 196.391 249.858 195.982 250.432C195.572 251.006 195.001 251.457 194.268 251.787C193.541 252.111 192.697 252.273 191.737 252.273C190.459 252.273 189.405 251.986 188.575 251.412C187.746 250.832 187.214 249.997 186.982 248.906L188.439 248.548C188.626 249.327 188.993 249.915 189.538 250.312C190.089 250.71 190.814 250.909 191.712 250.909C192.717 250.909 193.521 250.685 194.124 250.236C194.726 249.781 195.027 249.213 195.027 248.531C195.027 248.003 194.851 247.56 194.499 247.202C194.146 246.838 193.612 246.571 192.896 246.401L190.757 245.889C189.621 245.616 188.78 245.185 188.234 244.594C187.689 244.003 187.416 243.27 187.416 242.395C187.416 241.673 187.612 241.04 188.004 240.494C188.396 239.943 188.936 239.511 189.624 239.199C190.311 238.886 191.095 238.73 191.976 238.73C193.175 238.73 194.132 239.003 194.848 239.548C195.57 240.088 196.089 240.832 196.408 241.781ZM208.712 241.781L207.323 242.173C207.187 241.781 206.994 241.426 206.744 241.108C206.494 240.79 206.167 240.537 205.763 240.349C205.366 240.162 204.871 240.068 204.281 240.068C203.394 240.068 202.667 240.278 202.099 240.699C201.531 241.119 201.246 241.662 201.246 242.327C201.246 242.889 201.44 243.347 201.826 243.699C202.218 244.045 202.82 244.321 203.633 244.526L205.61 245.011C206.707 245.278 207.528 245.702 208.073 246.281C208.624 246.861 208.9 247.588 208.9 248.463C208.9 249.202 208.695 249.858 208.286 250.432C207.877 251.006 207.306 251.457 206.573 251.787C205.846 252.111 205.002 252.273 204.042 252.273C202.763 252.273 201.71 251.986 200.88 251.412C200.05 250.832 199.519 249.997 199.286 248.906L200.744 248.548C200.931 249.327 201.298 249.915 201.843 250.312C202.394 250.71 203.119 250.909 204.016 250.909C205.022 250.909 205.826 250.685 206.428 250.236C207.031 249.781 207.332 249.213 207.332 248.531C207.332 248.003 207.156 247.56 206.803 247.202C206.451 246.838 205.917 246.571 205.201 246.401L203.062 245.889C201.925 245.616 201.085 245.185 200.539 244.594C199.994 244.003 199.721 243.27 199.721 242.395C199.721 241.673 199.917 241.04 200.309 240.494C200.701 239.943 201.241 239.511 201.928 239.199C202.616 238.886 203.4 238.73 204.281 238.73C205.479 238.73 206.437 239.003 207.153 239.548C207.874 240.088 208.394 240.832 208.712 241.781ZM217.514 252.273C216.293 252.273 215.236 251.989 214.344 251.42C213.452 250.847 212.761 250.054 212.273 249.043C211.79 248.026 211.548 246.855 211.548 245.531C211.548 244.213 211.79 243.043 212.273 242.02C212.761 240.991 213.435 240.187 214.293 239.608C215.156 239.023 216.153 238.73 217.284 238.73C217.994 238.73 218.679 238.861 219.338 239.122C219.997 239.378 220.588 239.773 221.111 240.307C221.639 240.835 222.057 241.503 222.364 242.31C222.67 243.111 222.824 244.06 222.824 245.156V245.906H212.597V244.568H221.273C221.273 243.727 221.102 242.972 220.761 242.301C220.426 241.625 219.957 241.091 219.355 240.699C218.759 240.307 218.068 240.111 217.284 240.111C216.455 240.111 215.724 240.332 215.094 240.776C214.463 241.219 213.969 241.804 213.611 242.531C213.259 243.259 213.08 244.054 213.074 244.918V245.719C213.074 246.759 213.253 247.668 213.611 248.446C213.974 249.219 214.489 249.818 215.153 250.244C215.818 250.67 216.605 250.884 217.514 250.884C218.134 250.884 218.676 250.787 219.142 250.594C219.614 250.401 220.009 250.142 220.327 249.818C220.651 249.489 220.895 249.128 221.06 248.736L222.5 249.205C222.301 249.756 221.974 250.264 221.52 250.73C221.071 251.196 220.509 251.571 219.832 251.855C219.162 252.134 218.389 252.273 217.514 252.273ZM230.88 252.273C229.806 252.273 228.866 251.989 228.059 251.42C227.252 250.852 226.621 250.06 226.167 249.043C225.718 248.026 225.494 246.841 225.494 245.489C225.494 244.142 225.718 242.963 226.167 241.952C226.621 240.935 227.255 240.145 228.067 239.582C228.88 239.014 229.826 238.73 230.906 238.73C231.701 238.73 232.363 238.872 232.891 239.156C233.42 239.435 233.843 239.781 234.161 240.196C234.479 240.611 234.727 241.014 234.903 241.406H235.039V234.545H236.565V252H235.082V249.571H234.903C234.727 249.969 234.477 250.378 234.153 250.798C233.829 251.213 233.4 251.562 232.866 251.847C232.337 252.131 231.675 252.273 230.88 252.273ZM231.059 250.884C231.906 250.884 232.627 250.653 233.224 250.193C233.82 249.727 234.275 249.088 234.587 248.276C234.906 247.457 235.065 246.52 235.065 245.463C235.065 244.418 234.908 243.494 234.596 242.693C234.283 241.886 233.829 241.256 233.232 240.801C232.636 240.341 231.911 240.111 231.059 240.111C230.184 240.111 229.445 240.349 228.843 240.827C228.246 241.298 227.792 241.937 227.479 242.744C227.173 243.551 227.019 244.457 227.019 245.463C227.019 246.48 227.175 247.398 227.488 248.216C227.8 249.034 228.255 249.685 228.852 250.168C229.454 250.645 230.19 250.884 231.059 250.884ZM253.303 233.727L247.678 254.625H246.255L251.88 233.727H253.303ZM268.12 252.239C267.398 252.233 266.694 252.088 266.006 251.804C265.319 251.514 264.7 251.051 264.148 250.415C263.597 249.773 263.16 248.926 262.836 247.875C262.512 246.824 262.35 245.531 262.35 243.997C262.35 242.577 262.475 241.276 262.725 240.094C262.975 238.912 263.35 237.889 263.85 237.026C264.35 236.162 264.975 235.494 265.725 235.023C266.475 234.545 267.353 234.307 268.359 234.307C269.302 234.307 270.134 234.503 270.856 234.895C271.577 235.281 272.163 235.821 272.612 236.514C273.06 237.207 273.342 238.006 273.455 238.909H271.887C271.728 237.989 271.35 237.23 270.754 236.634C270.157 236.037 269.359 235.739 268.359 235.739C266.927 235.739 265.819 236.403 265.035 237.733C264.251 239.057 263.856 240.938 263.85 243.375H263.961C264.239 242.858 264.597 242.412 265.035 242.037C265.478 241.656 265.981 241.361 266.543 241.151C267.106 240.935 267.697 240.827 268.316 240.827C269.288 240.827 270.177 241.074 270.984 241.568C271.79 242.057 272.435 242.73 272.918 243.588C273.401 244.44 273.643 245.415 273.643 246.511C273.643 247.551 273.413 248.509 272.952 249.384C272.498 250.259 271.856 250.955 271.026 251.472C270.202 251.989 269.234 252.244 268.12 252.239ZM268.12 250.807C268.881 250.807 269.56 250.614 270.157 250.227C270.759 249.841 271.234 249.324 271.58 248.676C271.927 248.023 272.1 247.301 272.1 246.511C272.1 245.722 271.927 245.006 271.58 244.364C271.234 243.722 270.759 243.21 270.157 242.83C269.56 242.449 268.881 242.259 268.12 242.259C267.54 242.259 267.001 242.378 266.501 242.616C266.001 242.849 265.566 243.17 265.197 243.58C264.833 243.983 264.555 244.446 264.362 244.969C264.174 245.491 264.103 246.04 264.148 246.614C264.211 247.415 264.418 248.134 264.771 248.77C265.129 249.401 265.594 249.898 266.168 250.261C266.748 250.625 267.398 250.807 268.12 250.807ZM282.353 252.239C281.381 252.239 280.512 252.043 279.745 251.651C278.984 251.253 278.376 250.707 277.921 250.014C277.472 249.321 277.234 248.528 277.205 247.636H278.748C278.799 248.562 279.163 249.324 279.839 249.92C280.515 250.511 281.353 250.807 282.353 250.807C283.131 250.807 283.825 250.622 284.433 250.253C285.04 249.878 285.515 249.366 285.856 248.719C286.202 248.065 286.376 247.33 286.376 246.511C286.37 245.659 286.185 244.909 285.822 244.261C285.458 243.608 284.964 243.097 284.339 242.727C283.719 242.358 283.023 242.173 282.251 242.173C281.665 242.168 281.092 242.264 280.529 242.463C279.967 242.662 279.498 242.918 279.123 243.23L277.529 243.026L278.577 234.545H287.202V235.977H279.915L279.217 241.815H279.302C279.688 241.491 280.157 241.227 280.708 241.023C281.265 240.818 281.853 240.716 282.472 240.716C283.501 240.716 284.424 240.963 285.242 241.457C286.066 241.952 286.717 242.634 287.194 243.503C287.677 244.366 287.918 245.361 287.918 246.486C287.918 247.588 287.677 248.574 287.194 249.443C286.717 250.307 286.058 250.989 285.217 251.489C284.381 251.989 283.427 252.239 282.353 252.239ZM293.424 249.614L293.271 250.526C293.174 251.139 293.038 251.815 292.862 252.554C292.685 253.293 292.504 253.994 292.316 254.659C292.129 255.324 291.967 255.858 291.83 256.261H290.663C290.737 255.875 290.83 255.384 290.944 254.787C291.063 254.19 291.185 253.528 291.31 252.801C291.435 252.08 291.549 251.335 291.651 250.568L291.771 249.614H293.424ZM297.649 252L305.601 236.088V235.977H296.439V234.545H307.271V236.045L299.328 252H297.649ZM315.792 252.239C315.07 252.233 314.366 252.088 313.678 251.804C312.991 251.514 312.371 251.051 311.82 250.415C311.269 249.773 310.832 248.926 310.508 247.875C310.184 246.824 310.022 245.531 310.022 243.997C310.022 242.577 310.147 241.276 310.397 240.094C310.647 238.912 311.022 237.889 311.522 237.026C312.022 236.162 312.647 235.494 313.397 235.023C314.147 234.545 315.025 234.307 316.031 234.307C316.974 234.307 317.806 234.503 318.528 234.895C319.249 235.281 319.835 235.821 320.283 236.514C320.732 237.207 321.013 238.006 321.127 238.909H319.559C319.4 237.989 319.022 237.23 318.425 236.634C317.829 236.037 317.031 235.739 316.031 235.739C314.599 235.739 313.491 236.403 312.707 237.733C311.923 239.057 311.528 240.938 311.522 243.375H311.633C311.911 242.858 312.269 242.412 312.707 242.037C313.15 241.656 313.653 241.361 314.215 241.151C314.778 240.935 315.369 240.827 315.988 240.827C316.96 240.827 317.849 241.074 318.656 241.568C319.462 242.057 320.107 242.73 320.59 243.588C321.073 244.44 321.315 245.415 321.315 246.511C321.315 247.551 321.085 248.509 320.624 249.384C320.17 250.259 319.528 250.955 318.698 251.472C317.874 251.989 316.906 252.244 315.792 252.239ZM315.792 250.807C316.553 250.807 317.232 250.614 317.829 250.227C318.431 249.841 318.906 249.324 319.252 248.676C319.599 248.023 319.772 247.301 319.772 246.511C319.772 245.722 319.599 245.006 319.252 244.364C318.906 243.722 318.431 243.21 317.829 242.83C317.232 242.449 316.553 242.259 315.792 242.259C315.212 242.259 314.673 242.378 314.173 242.616C313.673 242.849 313.238 243.17 312.869 243.58C312.505 243.983 312.227 244.446 312.033 244.969C311.846 245.491 311.775 246.04 311.82 246.614C311.883 247.415 312.09 248.134 312.442 248.77C312.8 249.401 313.266 249.898 313.84 250.261C314.42 250.625 315.07 250.807 315.792 250.807ZM333.749 248.761V247.969C333.749 247.315 333.88 246.727 334.141 246.205C334.403 245.676 334.775 245.259 335.258 244.952C335.741 244.645 336.315 244.491 336.979 244.491C337.65 244.491 338.224 244.645 338.701 244.952C339.178 245.259 339.545 245.676 339.8 246.205C340.056 246.727 340.184 247.315 340.184 247.969V248.761C340.184 249.415 340.053 250.003 339.792 250.526C339.536 251.048 339.17 251.466 338.692 251.778C338.215 252.085 337.644 252.239 336.979 252.239C336.303 252.239 335.724 252.085 335.241 251.778C334.763 251.466 334.394 251.048 334.133 250.526C333.877 250.003 333.749 249.415 333.749 248.761ZM335.087 247.969V248.761C335.087 249.403 335.244 249.952 335.556 250.406C335.874 250.855 336.349 251.08 336.979 251.08C337.593 251.08 338.056 250.855 338.369 250.406C338.681 249.952 338.837 249.403 338.837 248.761V247.969C338.837 247.327 338.684 246.781 338.377 246.332C338.07 245.878 337.604 245.651 336.979 245.651C336.36 245.651 335.888 245.878 335.565 246.332C335.246 246.781 335.087 247.327 335.087 247.969ZM324.954 238.577V237.784C324.954 237.131 325.085 236.543 325.346 236.02C325.607 235.497 325.979 235.082 326.462 234.776C326.945 234.463 327.519 234.307 328.184 234.307C328.854 234.307 329.428 234.463 329.906 234.776C330.383 235.082 330.749 235.497 331.005 236.02C331.261 236.543 331.388 237.131 331.388 237.784V238.577C331.388 239.23 331.258 239.821 330.996 240.349C330.741 240.872 330.374 241.287 329.897 241.594C329.42 241.901 328.849 242.054 328.184 242.054C327.508 242.054 326.928 241.901 326.445 241.594C325.968 241.287 325.599 240.872 325.337 240.349C325.082 239.821 324.954 239.23 324.954 238.577ZM326.292 237.784V238.577C326.292 239.219 326.448 239.767 326.761 240.222C327.079 240.67 327.553 240.895 328.184 240.895C328.798 240.895 329.261 240.67 329.573 240.222C329.886 239.767 330.042 239.219 330.042 238.577V237.784C330.042 237.142 329.888 236.597 329.582 236.148C329.275 235.693 328.809 235.466 328.184 235.466C327.565 235.466 327.093 235.693 326.769 236.148C326.451 236.597 326.292 237.142 326.292 237.784ZM325.738 252L337.729 234.545H339.238L327.246 252H325.738Z" fill="black"/>
<path d="M76.3182 85H74.1818C74.0227 84.2045 73.7348 83.4697 73.3182 82.7955C72.9091 82.1136 72.3939 81.5189 71.7727 81.0114C71.1515 80.5038 70.447 80.1098 69.6591 79.8295C68.8712 79.5492 68.0189 79.4091 67.1023 79.4091C65.6326 79.4091 64.2917 79.7917 63.0795 80.5568C61.875 81.322 60.9091 82.447 60.1818 83.9318C59.4621 85.4091 59.1023 87.2197 59.1023 89.3636C59.1023 91.5227 59.4621 93.3409 60.1818 94.8182C60.9091 96.2955 61.875 97.4167 63.0795 98.1818C64.2917 98.9394 65.6326 99.3182 67.1023 99.3182C68.0189 99.3182 68.8712 99.178 69.6591 98.8977C70.447 98.6174 71.1515 98.2273 71.7727 97.7273C72.3939 97.2197 72.9091 96.625 73.3182 95.9432C73.7348 95.2614 74.0227 94.5227 74.1818 93.7273H76.3182C76.1288 94.7955 75.7727 95.7917 75.25 96.7159C74.7348 97.6326 74.0758 98.4356 73.2727 99.125C72.4773 99.8144 71.5606 100.352 70.5227 100.739C69.4848 101.125 68.3447 101.318 67.1023 101.318C65.1477 101.318 63.4129 100.83 61.8977 99.8523C60.3826 98.8674 59.1932 97.4811 58.3295 95.6932C57.4735 93.9053 57.0455 91.7955 57.0455 89.3636C57.0455 86.9318 57.4735 84.822 58.3295 83.0341C59.1932 81.2462 60.3826 79.8636 61.8977 78.8864C63.4129 77.9015 65.1477 77.4091 67.1023 77.4091C68.3447 77.4091 69.4848 77.6023 70.5227 77.9886C71.5606 78.3674 72.4773 78.9053 73.2727 79.6023C74.0758 80.2917 74.7348 81.0947 75.25 82.0114C75.7727 82.928 76.1288 83.9242 76.3182 85ZM85.7642 101.398C84.7112 101.398 83.7491 101.193 82.8778 100.784C82.0066 100.367 81.3134 99.7689 80.7983 98.9886C80.2831 98.2008 80.0256 97.2462 80.0256 96.125C80.0256 95.2614 80.1884 94.5341 80.5142 93.9432C80.84 93.3523 81.3021 92.8674 81.9006 92.4886C82.4991 92.1098 83.2074 91.8106 84.0256 91.5909C84.8438 91.3712 85.7453 91.2008 86.7301 91.0795C87.7074 90.9583 88.5331 90.8523 89.2074 90.7614C89.8892 90.6705 90.4081 90.5265 90.7642 90.3295C91.1203 90.1326 91.2983 89.8144 91.2983 89.375V88.9659C91.2983 87.7765 90.9422 86.8409 90.2301 86.1591C89.5256 85.4697 88.5104 85.125 87.1847 85.125C85.9271 85.125 84.9006 85.4015 84.1051 85.9545C83.3172 86.5076 82.7642 87.1591 82.446 87.9091L80.5256 87.2159C80.9195 86.2614 81.465 85.5 82.1619 84.9318C82.8589 84.3561 83.6392 83.9432 84.5028 83.6932C85.3665 83.4356 86.2415 83.3068 87.1278 83.3068C87.7945 83.3068 88.4877 83.3939 89.2074 83.5682C89.9347 83.7424 90.6089 84.0455 91.2301 84.4773C91.8513 84.9015 92.3551 85.4962 92.7415 86.2614C93.1278 87.0189 93.321 87.9811 93.321 89.1477V101H91.2983V98.2386H91.1733C90.9309 98.7538 90.571 99.2538 90.0938 99.7386C89.6165 100.223 89.018 100.621 88.2983 100.932C87.5786 101.242 86.7339 101.398 85.7642 101.398ZM86.0369 99.5455C87.1127 99.5455 88.0445 99.3068 88.8324 98.8295C89.6203 98.3523 90.2263 97.7197 90.6506 96.9318C91.0824 96.1364 91.2983 95.2614 91.2983 94.3068V91.7841C91.1468 91.928 90.893 92.0568 90.5369 92.1705C90.1884 92.2841 89.7831 92.3864 89.321 92.4773C88.8665 92.5606 88.4119 92.6326 87.9574 92.6932C87.5028 92.7538 87.0938 92.8068 86.7301 92.8523C85.7453 92.9735 84.9044 93.1629 84.2074 93.4205C83.5104 93.678 82.9763 94.0341 82.6051 94.4886C82.2339 94.9356 82.0483 95.5114 82.0483 96.2159C82.0483 97.2765 82.4271 98.0985 83.1847 98.6818C83.9422 99.2576 84.893 99.5455 86.0369 99.5455ZM110.429 87.375L108.577 87.8977C108.395 87.375 108.137 86.9015 107.804 86.4773C107.471 86.053 107.035 85.7159 106.497 85.4659C105.967 85.2159 105.308 85.0909 104.52 85.0909C103.338 85.0909 102.368 85.3712 101.611 85.9318C100.853 86.4924 100.474 87.2159 100.474 88.1023C100.474 88.8523 100.732 89.4621 101.247 89.9318C101.77 90.3939 102.573 90.7614 103.656 91.0341L106.293 91.6818C107.755 92.0379 108.849 92.6023 109.577 93.375C110.312 94.1477 110.679 95.1174 110.679 96.2841C110.679 97.2689 110.406 98.1439 109.861 98.9091C109.315 99.6742 108.554 100.277 107.577 100.716C106.607 101.148 105.482 101.364 104.202 101.364C102.497 101.364 101.092 100.981 99.9858 100.216C98.8797 99.4432 98.1714 98.3295 97.8608 96.875L99.804 96.3977C100.054 97.4356 100.543 98.2197 101.27 98.75C102.005 99.2803 102.971 99.5455 104.168 99.5455C105.509 99.5455 106.58 99.2462 107.384 98.6477C108.187 98.0417 108.588 97.2841 108.588 96.375C108.588 95.6705 108.353 95.0795 107.884 94.6023C107.414 94.1174 106.702 93.7614 105.747 93.5341L102.895 92.8523C101.38 92.4886 100.259 91.9129 99.5312 91.125C98.804 90.3371 98.4403 89.3598 98.4403 88.1932C98.4403 87.2311 98.7017 86.3864 99.2244 85.6591C99.7472 84.9242 100.467 84.3485 101.384 83.9318C102.3 83.5152 103.346 83.3068 104.52 83.3068C106.118 83.3068 107.395 83.6705 108.349 84.3977C109.312 85.1174 110.005 86.1098 110.429 87.375ZM117.131 90.0909V101H115.108V77.7273H117.131V86.2841H117.312C117.722 85.3826 118.354 84.6629 119.21 84.125C120.074 83.5871 121.165 83.3182 122.483 83.3182C123.665 83.3182 124.703 83.5606 125.597 84.0455C126.491 84.5303 127.188 85.2462 127.688 86.1932C128.188 87.1402 128.438 88.3068 128.438 89.6932V101H126.403V89.8182C126.403 88.3788 126.002 87.2462 125.199 86.4205C124.403 85.5871 123.328 85.1705 121.972 85.1705C121.04 85.1705 120.21 85.3674 119.483 85.7614C118.756 86.1553 118.18 86.7235 117.756 87.4659C117.339 88.2008 117.131 89.0758 117.131 90.0909Z" fill="black"/>
<path d="M539.125 139.727L546.398 160.239H546.602L553.875 139.727H556.102L547.636 163H545.364L536.898 139.727H539.125ZM569.929 149.375L568.077 149.898C567.895 149.375 567.637 148.902 567.304 148.477C566.971 148.053 566.535 147.716 565.997 147.466C565.467 147.216 564.808 147.091 564.02 147.091C562.838 147.091 561.868 147.371 561.111 147.932C560.353 148.492 559.974 149.216 559.974 150.102C559.974 150.852 560.232 151.462 560.747 151.932C561.27 152.394 562.073 152.761 563.156 153.034L565.793 153.682C567.255 154.038 568.349 154.602 569.077 155.375C569.812 156.148 570.179 157.117 570.179 158.284C570.179 159.269 569.906 160.144 569.361 160.909C568.815 161.674 568.054 162.277 567.077 162.716C566.107 163.148 564.982 163.364 563.702 163.364C561.997 163.364 560.592 162.981 559.486 162.216C558.38 161.443 557.671 160.33 557.361 158.875L559.304 158.398C559.554 159.436 560.043 160.22 560.77 160.75C561.505 161.28 562.471 161.545 563.668 161.545C565.009 161.545 566.08 161.246 566.884 160.648C567.687 160.042 568.088 159.284 568.088 158.375C568.088 157.67 567.853 157.08 567.384 156.602C566.914 156.117 566.202 155.761 565.247 155.534L562.395 154.852C560.88 154.489 559.759 153.913 559.031 153.125C558.304 152.337 557.94 151.36 557.94 150.193C557.94 149.231 558.202 148.386 558.724 147.659C559.247 146.924 559.967 146.348 560.884 145.932C561.8 145.515 562.846 145.307 564.02 145.307C565.618 145.307 566.895 145.67 567.849 146.398C568.812 147.117 569.505 148.11 569.929 149.375ZM584.028 163V139.727H586.153V161.091H597.244V163H584.028ZM606.483 163.398C605.43 163.398 604.468 163.193 603.597 162.784C602.725 162.367 602.032 161.769 601.517 160.989C601.002 160.201 600.744 159.246 600.744 158.125C600.744 157.261 600.907 156.534 601.233 155.943C601.559 155.352 602.021 154.867 602.619 154.489C603.218 154.11 603.926 153.811 604.744 153.591C605.563 153.371 606.464 153.201 607.449 153.08C608.426 152.958 609.252 152.852 609.926 152.761C610.608 152.67 611.127 152.527 611.483 152.33C611.839 152.133 612.017 151.814 612.017 151.375V150.966C612.017 149.777 611.661 148.841 610.949 148.159C610.244 147.47 609.229 147.125 607.903 147.125C606.646 147.125 605.619 147.402 604.824 147.955C604.036 148.508 603.483 149.159 603.165 149.909L601.244 149.216C601.638 148.261 602.184 147.5 602.881 146.932C603.578 146.356 604.358 145.943 605.222 145.693C606.085 145.436 606.96 145.307 607.847 145.307C608.513 145.307 609.206 145.394 609.926 145.568C610.653 145.742 611.328 146.045 611.949 146.477C612.57 146.902 613.074 147.496 613.46 148.261C613.847 149.019 614.04 149.981 614.04 151.148V163H612.017V160.239H611.892C611.65 160.754 611.29 161.254 610.812 161.739C610.335 162.223 609.737 162.621 609.017 162.932C608.297 163.242 607.453 163.398 606.483 163.398ZM606.756 161.545C607.831 161.545 608.763 161.307 609.551 160.83C610.339 160.352 610.945 159.72 611.369 158.932C611.801 158.136 612.017 157.261 612.017 156.307V153.784C611.866 153.928 611.612 154.057 611.256 154.17C610.907 154.284 610.502 154.386 610.04 154.477C609.585 154.561 609.131 154.633 608.676 154.693C608.222 154.754 607.812 154.807 607.449 154.852C606.464 154.973 605.623 155.163 604.926 155.42C604.229 155.678 603.695 156.034 603.324 156.489C602.953 156.936 602.767 157.511 602.767 158.216C602.767 159.277 603.146 160.098 603.903 160.682C604.661 161.258 605.612 161.545 606.756 161.545ZM631.148 149.375L629.295 149.898C629.114 149.375 628.856 148.902 628.523 148.477C628.189 148.053 627.754 147.716 627.216 147.466C626.686 147.216 626.027 147.091 625.239 147.091C624.057 147.091 623.087 147.371 622.33 147.932C621.572 148.492 621.193 149.216 621.193 150.102C621.193 150.852 621.451 151.462 621.966 151.932C622.489 152.394 623.292 152.761 624.375 153.034L627.011 153.682C628.473 154.038 629.568 154.602 630.295 155.375C631.03 156.148 631.398 157.117 631.398 158.284C631.398 159.269 631.125 160.144 630.58 160.909C630.034 161.674 629.273 162.277 628.295 162.716C627.326 163.148 626.201 163.364 624.92 163.364C623.216 163.364 621.811 162.981 620.705 162.216C619.598 161.443 618.89 160.33 618.58 158.875L620.523 158.398C620.773 159.436 621.261 160.22 621.989 160.75C622.723 161.28 623.689 161.545 624.886 161.545C626.227 161.545 627.299 161.246 628.102 160.648C628.905 160.042 629.307 159.284 629.307 158.375C629.307 157.67 629.072 157.08 628.602 156.602C628.133 156.117 627.42 155.761 626.466 155.534L623.614 154.852C622.098 154.489 620.977 153.913 620.25 153.125C619.523 152.337 619.159 151.36 619.159 150.193C619.159 149.231 619.42 148.386 619.943 147.659C620.466 146.924 621.186 146.348 622.102 145.932C623.019 145.515 624.064 145.307 625.239 145.307C626.837 145.307 628.114 145.67 629.068 146.398C630.03 147.117 630.723 148.11 631.148 149.375ZM642.702 145.545V147.307H634.372V145.545H642.702ZM636.974 141.364H639.009V158.443C639.009 159.17 639.134 159.742 639.384 160.159C639.634 160.568 639.959 160.86 640.361 161.034C640.762 161.201 641.19 161.284 641.645 161.284C641.91 161.284 642.137 161.269 642.327 161.239C642.516 161.201 642.683 161.163 642.827 161.125L643.259 162.955C643.062 163.03 642.819 163.098 642.531 163.159C642.243 163.227 641.887 163.261 641.463 163.261C640.721 163.261 640.005 163.098 639.315 162.773C638.634 162.447 638.073 161.962 637.634 161.318C637.194 160.674 636.974 159.875 636.974 158.92V141.364ZM660.761 163L654.386 139.727H656.545L661.818 159.739H662L667.273 139.727H669.727L675 159.739H675.182L680.455 139.727H682.625L676.25 163H673.977L668.58 143.261H668.432L663.034 163H660.761ZM686.466 163V139.727H699.966V141.636H688.591V150.398H699.25V152.307H688.591V161.091H700.193V163H686.466ZM705.466 163V139.727H718.966V141.636H707.591V150.398H718.25V152.307H707.591V161.091H719.193V163H705.466ZM724.466 163V139.727H726.591V152.261H726.795L738.159 139.727H740.955L731.011 150.489L740.909 163H738.318L729.693 151.966L726.591 155.443V163H724.466Z" fill="black"/>
<path d="M53.2955 168V144.727H62.0227C63.8106 144.727 65.3106 145.061 66.5227 145.727C67.7424 146.394 68.6629 147.311 69.2841 148.477C69.9129 149.636 70.2273 150.955 70.2273 152.432C70.2273 153.924 69.9129 155.25 69.2841 156.409C68.6553 157.568 67.7273 158.481 66.5 159.148C65.2727 159.807 63.7614 160.136 61.9659 160.136H56.1818V156.67H61.3977C62.4432 156.67 63.2992 156.489 63.9659 156.125C64.6326 155.761 65.125 155.261 65.4432 154.625C65.7689 153.989 65.9318 153.258 65.9318 152.432C65.9318 151.606 65.7689 150.879 65.4432 150.25C65.125 149.621 64.6288 149.133 63.9545 148.784C63.2879 148.428 62.428 148.25 61.375 148.25H57.5114V168H53.2955ZM81.1847 168.341C79.4347 168.341 77.9233 167.977 76.6506 167.25C75.3854 166.515 74.4119 165.477 73.7301 164.136C73.0483 162.788 72.7074 161.201 72.7074 159.375C72.7074 157.58 73.0483 156.004 73.7301 154.648C74.4195 153.284 75.3816 152.223 76.6165 151.466C77.8513 150.701 79.3021 150.318 80.9688 150.318C82.0445 150.318 83.0597 150.492 84.0142 150.841C84.9763 151.182 85.8248 151.712 86.5597 152.432C87.3021 153.152 87.8854 154.068 88.3097 155.182C88.7339 156.288 88.946 157.606 88.946 159.136V160.398H74.6392V157.625H85.0028C84.9953 156.837 84.8248 156.136 84.4915 155.523C84.1581 154.902 83.6922 154.413 83.0938 154.057C82.5028 153.701 81.8134 153.523 81.0256 153.523C80.1847 153.523 79.446 153.727 78.8097 154.136C78.1733 154.538 77.6771 155.068 77.321 155.727C76.9725 156.379 76.7945 157.095 76.7869 157.875V160.295C76.7869 161.311 76.9725 162.182 77.3438 162.909C77.715 163.629 78.2339 164.182 78.9006 164.568C79.5672 164.947 80.3475 165.136 81.2415 165.136C81.84 165.136 82.3816 165.053 82.8665 164.886C83.3513 164.712 83.7718 164.458 84.1278 164.125C84.4839 163.792 84.7528 163.379 84.9347 162.886L88.7756 163.318C88.5331 164.333 88.071 165.22 87.3892 165.977C86.715 166.727 85.8513 167.311 84.7983 167.727C83.7453 168.136 82.5407 168.341 81.1847 168.341ZM92.4261 168V150.545H96.4148V153.455H96.5966C96.9148 152.447 97.4602 151.67 98.233 151.125C99.0133 150.572 99.9034 150.295 100.903 150.295C101.131 150.295 101.384 150.307 101.665 150.33C101.953 150.345 102.191 150.371 102.381 150.409V154.193C102.206 154.133 101.93 154.08 101.551 154.034C101.18 153.981 100.82 153.955 100.472 153.955C99.7216 153.955 99.0473 154.117 98.4489 154.443C97.858 154.761 97.392 155.205 97.0511 155.773C96.7102 156.341 96.5398 156.996 96.5398 157.739V168H92.4261ZM114.892 150.545V153.727H104.574V150.545H114.892ZM107.153 168V148.898C107.153 147.723 107.396 146.746 107.881 145.966C108.373 145.186 109.032 144.602 109.858 144.216C110.684 143.83 111.6 143.636 112.608 143.636C113.32 143.636 113.953 143.693 114.506 143.807C115.059 143.92 115.468 144.023 115.733 144.114L114.915 147.295C114.741 147.242 114.521 147.189 114.256 147.136C113.991 147.076 113.695 147.045 113.369 147.045C112.604 147.045 112.063 147.231 111.744 147.602C111.434 147.966 111.278 148.489 111.278 149.17V168H107.153ZM125.071 168.341C123.366 168.341 121.889 167.966 120.639 167.216C119.389 166.466 118.42 165.417 117.73 164.068C117.048 162.72 116.707 161.144 116.707 159.341C116.707 157.538 117.048 155.958 117.73 154.602C118.42 153.246 119.389 152.193 120.639 151.443C121.889 150.693 123.366 150.318 125.071 150.318C126.776 150.318 128.253 150.693 129.503 151.443C130.753 152.193 131.719 153.246 132.401 154.602C133.09 155.958 133.435 157.538 133.435 159.341C133.435 161.144 133.09 162.72 132.401 164.068C131.719 165.417 130.753 166.466 129.503 167.216C128.253 167.966 126.776 168.341 125.071 168.341ZM125.094 165.045C126.018 165.045 126.791 164.792 127.412 164.284C128.033 163.769 128.495 163.08 128.798 162.216C129.109 161.352 129.264 160.39 129.264 159.33C129.264 158.261 129.109 157.295 128.798 156.432C128.495 155.561 128.033 154.867 127.412 154.352C126.791 153.837 126.018 153.58 125.094 153.58C124.147 153.58 123.359 153.837 122.73 154.352C122.109 154.867 121.643 155.561 121.332 156.432C121.029 157.295 120.878 158.261 120.878 159.33C120.878 160.39 121.029 161.352 121.332 162.216C121.643 163.08 122.109 163.769 122.73 164.284C123.359 164.792 124.147 165.045 125.094 165.045ZM136.926 168V150.545H140.915V153.455H141.097C141.415 152.447 141.96 151.67 142.733 151.125C143.513 150.572 144.403 150.295 145.403 150.295C145.631 150.295 145.884 150.307 146.165 150.33C146.453 150.345 146.691 150.371 146.881 150.409V154.193C146.706 154.133 146.43 154.08 146.051 154.034C145.68 153.981 145.32 153.955 144.972 153.955C144.222 153.955 143.547 154.117 142.949 154.443C142.358 154.761 141.892 155.205 141.551 155.773C141.21 156.341 141.04 156.996 141.04 157.739V168H136.926ZM149.614 168V150.545H153.545V153.511H153.75C154.114 152.511 154.716 151.731 155.557 151.17C156.398 150.602 157.402 150.318 158.568 150.318C159.75 150.318 160.746 150.606 161.557 151.182C162.375 151.75 162.951 152.527 163.284 153.511H163.466C163.852 152.542 164.504 151.769 165.42 151.193C166.345 150.61 167.439 150.318 168.705 150.318C170.311 150.318 171.621 150.826 172.636 151.841C173.652 152.856 174.159 154.337 174.159 156.284V168H170.034V156.92C170.034 155.837 169.746 155.045 169.17 154.545C168.595 154.038 167.89 153.784 167.057 153.784C166.064 153.784 165.288 154.095 164.727 154.716C164.174 155.33 163.898 156.129 163.898 157.114V168H159.864V156.75C159.864 155.848 159.591 155.129 159.045 154.591C158.508 154.053 157.803 153.784 156.932 153.784C156.341 153.784 155.803 153.936 155.318 154.239C154.833 154.534 154.447 154.955 154.159 155.5C153.871 156.038 153.727 156.667 153.727 157.386V168H149.614ZM183.355 168.352C182.249 168.352 181.253 168.155 180.366 167.761C179.488 167.36 178.791 166.769 178.276 165.989C177.768 165.208 177.514 164.246 177.514 163.102C177.514 162.117 177.696 161.303 178.06 160.659C178.423 160.015 178.92 159.5 179.548 159.114C180.177 158.727 180.885 158.436 181.673 158.239C182.469 158.034 183.291 157.886 184.139 157.795C185.162 157.689 185.991 157.595 186.628 157.511C187.264 157.42 187.726 157.284 188.014 157.102C188.31 156.913 188.457 156.621 188.457 156.227V156.159C188.457 155.303 188.204 154.64 187.696 154.17C187.188 153.701 186.457 153.466 185.503 153.466C184.495 153.466 183.696 153.686 183.105 154.125C182.522 154.564 182.128 155.083 181.923 155.682L178.082 155.136C178.385 154.076 178.885 153.189 179.582 152.477C180.279 151.758 181.132 151.22 182.139 150.864C183.147 150.5 184.26 150.318 185.48 150.318C186.321 150.318 187.158 150.417 187.991 150.614C188.825 150.811 189.586 151.136 190.276 151.591C190.965 152.038 191.518 152.648 191.935 153.42C192.359 154.193 192.571 155.159 192.571 156.318V168H188.616V165.602H188.48C188.23 166.087 187.878 166.542 187.423 166.966C186.976 167.383 186.412 167.72 185.73 167.977C185.056 168.227 184.264 168.352 183.355 168.352ZM184.423 165.33C185.249 165.33 185.965 165.167 186.571 164.841C187.177 164.508 187.643 164.068 187.969 163.523C188.302 162.977 188.469 162.383 188.469 161.739V159.682C188.34 159.788 188.12 159.886 187.81 159.977C187.507 160.068 187.166 160.148 186.787 160.216C186.408 160.284 186.033 160.345 185.662 160.398C185.291 160.451 184.969 160.496 184.696 160.534C184.082 160.617 183.533 160.754 183.048 160.943C182.563 161.133 182.181 161.398 181.901 161.739C181.62 162.072 181.48 162.504 181.48 163.034C181.48 163.792 181.757 164.364 182.31 164.75C182.863 165.136 183.567 165.33 184.423 165.33ZM200.821 157.773V168H196.707V150.545H200.639V153.511H200.844C201.245 152.534 201.885 151.758 202.764 151.182C203.651 150.606 204.745 150.318 206.048 150.318C207.253 150.318 208.302 150.576 209.196 151.091C210.098 151.606 210.795 152.352 211.287 153.33C211.787 154.307 212.033 155.492 212.026 156.886V168H207.912V157.523C207.912 156.356 207.609 155.443 207.003 154.784C206.404 154.125 205.575 153.795 204.514 153.795C203.795 153.795 203.154 153.955 202.594 154.273C202.041 154.583 201.605 155.034 201.287 155.625C200.976 156.216 200.821 156.932 200.821 157.773ZM223.821 168.341C222.079 168.341 220.582 167.958 219.332 167.193C218.09 166.428 217.132 165.371 216.457 164.023C215.791 162.667 215.457 161.106 215.457 159.341C215.457 157.568 215.798 156.004 216.48 154.648C217.162 153.284 218.124 152.223 219.366 151.466C220.616 150.701 222.094 150.318 223.798 150.318C225.215 150.318 226.469 150.58 227.56 151.102C228.658 151.617 229.533 152.348 230.185 153.295C230.836 154.235 231.207 155.333 231.298 156.591H227.366C227.207 155.75 226.829 155.049 226.23 154.489C225.639 153.92 224.848 153.636 223.855 153.636C223.014 153.636 222.276 153.864 221.639 154.318C221.003 154.765 220.507 155.409 220.151 156.25C219.802 157.091 219.628 158.098 219.628 159.273C219.628 160.462 219.802 161.485 220.151 162.341C220.499 163.189 220.988 163.845 221.616 164.307C222.253 164.761 222.999 164.989 223.855 164.989C224.461 164.989 225.003 164.875 225.48 164.648C225.965 164.413 226.37 164.076 226.696 163.636C227.022 163.197 227.245 162.663 227.366 162.034H231.298C231.2 163.269 230.836 164.364 230.207 165.318C229.579 166.265 228.723 167.008 227.639 167.545C226.556 168.076 225.283 168.341 223.821 168.341ZM242.403 168.341C240.653 168.341 239.142 167.977 237.869 167.25C236.604 166.515 235.631 165.477 234.949 164.136C234.267 162.788 233.926 161.201 233.926 159.375C233.926 157.58 234.267 156.004 234.949 154.648C235.638 153.284 236.6 152.223 237.835 151.466C239.07 150.701 240.521 150.318 242.188 150.318C243.263 150.318 244.278 150.492 245.233 150.841C246.195 151.182 247.044 151.712 247.778 152.432C248.521 153.152 249.104 154.068 249.528 155.182C249.953 156.288 250.165 157.606 250.165 159.136V160.398H235.858V157.625H246.222C246.214 156.837 246.044 156.136 245.71 155.523C245.377 154.902 244.911 154.413 244.312 154.057C243.722 153.701 243.032 153.523 242.244 153.523C241.403 153.523 240.665 153.727 240.028 154.136C239.392 154.538 238.896 155.068 238.54 155.727C238.191 156.379 238.013 157.095 238.006 157.875V160.295C238.006 161.311 238.191 162.182 238.562 162.909C238.934 163.629 239.453 164.182 240.119 164.568C240.786 164.947 241.566 165.136 242.46 165.136C243.059 165.136 243.6 165.053 244.085 164.886C244.57 164.712 244.991 164.458 245.347 164.125C245.703 163.792 245.972 163.379 246.153 162.886L249.994 163.318C249.752 164.333 249.29 165.22 248.608 165.977C247.934 166.727 247.07 167.311 246.017 167.727C244.964 168.136 243.759 168.341 242.403 168.341ZM261.764 168V144.727H270.491C272.279 144.727 273.779 145.061 274.991 145.727C276.211 146.394 277.132 147.311 277.753 148.477C278.382 149.636 278.696 150.955 278.696 152.432C278.696 153.924 278.382 155.25 277.753 156.409C277.124 157.568 276.196 158.481 274.969 159.148C273.741 159.807 272.23 160.136 270.435 160.136H264.651V156.67H269.866C270.912 156.67 271.768 156.489 272.435 156.125C273.101 155.761 273.594 155.261 273.912 154.625C274.238 153.989 274.401 153.258 274.401 152.432C274.401 151.606 274.238 150.879 273.912 150.25C273.594 149.621 273.098 149.133 272.423 148.784C271.757 148.428 270.897 148.25 269.844 148.25H265.98V168H261.764ZM282.176 168V150.545H286.165V153.455H286.347C286.665 152.447 287.21 151.67 287.983 151.125C288.763 150.572 289.653 150.295 290.653 150.295C290.881 150.295 291.134 150.307 291.415 150.33C291.703 150.345 291.941 150.371 292.131 150.409V154.193C291.956 154.133 291.68 154.08 291.301 154.034C290.93 153.981 290.57 153.955 290.222 153.955C289.472 153.955 288.797 154.117 288.199 154.443C287.608 154.761 287.142 155.205 286.801 155.773C286.46 156.341 286.29 156.996 286.29 157.739V168H282.176ZM301.759 168.341C300.054 168.341 298.577 167.966 297.327 167.216C296.077 166.466 295.107 165.417 294.418 164.068C293.736 162.72 293.395 161.144 293.395 159.341C293.395 157.538 293.736 155.958 294.418 154.602C295.107 153.246 296.077 152.193 297.327 151.443C298.577 150.693 300.054 150.318 301.759 150.318C303.463 150.318 304.94 150.693 306.19 151.443C307.44 152.193 308.406 153.246 309.088 154.602C309.777 155.958 310.122 157.538 310.122 159.341C310.122 161.144 309.777 162.72 309.088 164.068C308.406 165.417 307.44 166.466 306.19 167.216C304.94 167.966 303.463 168.341 301.759 168.341ZM301.781 165.045C302.705 165.045 303.478 164.792 304.099 164.284C304.721 163.769 305.183 163.08 305.486 162.216C305.796 161.352 305.952 160.39 305.952 159.33C305.952 158.261 305.796 157.295 305.486 156.432C305.183 155.561 304.721 154.867 304.099 154.352C303.478 153.837 302.705 153.58 301.781 153.58C300.834 153.58 300.046 153.837 299.418 154.352C298.796 154.867 298.33 155.561 298.02 156.432C297.717 157.295 297.565 158.261 297.565 159.33C297.565 160.39 297.717 161.352 298.02 162.216C298.33 163.08 298.796 163.769 299.418 164.284C300.046 164.792 300.834 165.045 301.781 165.045ZM321.205 174.909C319.727 174.909 318.458 174.708 317.398 174.307C316.337 173.913 315.485 173.383 314.841 172.716C314.197 172.049 313.75 171.311 313.5 170.5L317.205 169.602C317.371 169.943 317.614 170.28 317.932 170.614C318.25 170.955 318.678 171.235 319.216 171.455C319.761 171.682 320.447 171.795 321.273 171.795C322.439 171.795 323.405 171.511 324.17 170.943C324.936 170.383 325.318 169.458 325.318 168.17V164.864H325.114C324.902 165.288 324.591 165.723 324.182 166.17C323.78 166.617 323.246 166.992 322.58 167.295C321.92 167.598 321.091 167.75 320.091 167.75C318.75 167.75 317.534 167.436 316.443 166.807C315.36 166.17 314.496 165.223 313.852 163.966C313.216 162.701 312.898 161.117 312.898 159.216C312.898 157.299 313.216 155.682 313.852 154.364C314.496 153.038 315.364 152.034 316.455 151.352C317.545 150.663 318.761 150.318 320.102 150.318C321.125 150.318 321.966 150.492 322.625 150.841C323.292 151.182 323.822 151.595 324.216 152.08C324.61 152.557 324.909 153.008 325.114 153.432H325.341V150.545H329.398V168.284C329.398 169.777 329.042 171.011 328.33 171.989C327.617 172.966 326.644 173.697 325.409 174.182C324.174 174.667 322.773 174.909 321.205 174.909ZM321.239 164.523C322.11 164.523 322.852 164.311 323.466 163.886C324.08 163.462 324.545 162.852 324.864 162.057C325.182 161.261 325.341 160.307 325.341 159.193C325.341 158.095 325.182 157.133 324.864 156.307C324.553 155.481 324.091 154.841 323.477 154.386C322.871 153.924 322.125 153.693 321.239 153.693C320.322 153.693 319.557 153.932 318.943 154.409C318.33 154.886 317.867 155.542 317.557 156.375C317.246 157.201 317.091 158.14 317.091 159.193C317.091 160.261 317.246 161.197 317.557 162C317.875 162.795 318.341 163.417 318.955 163.864C319.576 164.303 320.337 164.523 321.239 164.523ZM333.614 168V150.545H337.602V153.455H337.784C338.102 152.447 338.648 151.67 339.42 151.125C340.201 150.572 341.091 150.295 342.091 150.295C342.318 150.295 342.572 150.307 342.852 150.33C343.14 150.345 343.379 150.371 343.568 150.409V154.193C343.394 154.133 343.117 154.08 342.739 154.034C342.367 153.981 342.008 153.955 341.659 153.955C340.909 153.955 340.235 154.117 339.636 154.443C339.045 154.761 338.58 155.205 338.239 155.773C337.898 156.341 337.727 156.996 337.727 157.739V168H333.614ZM353.31 168.341C351.56 168.341 350.048 167.977 348.776 167.25C347.51 166.515 346.537 165.477 345.855 164.136C345.173 162.788 344.832 161.201 344.832 159.375C344.832 157.58 345.173 156.004 345.855 154.648C346.545 153.284 347.507 152.223 348.741 151.466C349.976 150.701 351.427 150.318 353.094 150.318C354.17 150.318 355.185 150.492 356.139 150.841C357.101 151.182 357.95 151.712 358.685 152.432C359.427 153.152 360.01 154.068 360.435 155.182C360.859 156.288 361.071 157.606 361.071 159.136V160.398H346.764V157.625H357.128C357.12 156.837 356.95 156.136 356.616 155.523C356.283 154.902 355.817 154.413 355.219 154.057C354.628 153.701 353.938 153.523 353.151 153.523C352.31 153.523 351.571 153.727 350.935 154.136C350.298 154.538 349.802 155.068 349.446 155.727C349.098 156.379 348.92 157.095 348.912 157.875V160.295C348.912 161.311 349.098 162.182 349.469 162.909C349.84 163.629 350.359 164.182 351.026 164.568C351.692 164.947 352.473 165.136 353.366 165.136C353.965 165.136 354.507 165.053 354.991 164.886C355.476 164.712 355.897 164.458 356.253 164.125C356.609 163.792 356.878 163.379 357.06 162.886L360.901 163.318C360.658 164.333 360.196 165.22 359.514 165.977C358.84 166.727 357.976 167.311 356.923 167.727C355.87 168.136 354.666 168.341 353.31 168.341ZM378.347 155.159L374.597 155.568C374.491 155.189 374.305 154.833 374.04 154.5C373.782 154.167 373.434 153.898 372.994 153.693C372.555 153.489 372.017 153.386 371.381 153.386C370.525 153.386 369.805 153.572 369.222 153.943C368.646 154.314 368.362 154.795 368.369 155.386C368.362 155.894 368.547 156.307 368.926 156.625C369.313 156.943 369.949 157.205 370.835 157.409L373.812 158.045C375.464 158.402 376.691 158.966 377.494 159.739C378.305 160.511 378.714 161.523 378.722 162.773C378.714 163.871 378.392 164.841 377.756 165.682C377.127 166.515 376.252 167.167 375.131 167.636C374.009 168.106 372.722 168.341 371.267 168.341C369.131 168.341 367.411 167.894 366.108 167C364.805 166.098 364.028 164.845 363.778 163.239L367.79 162.852C367.972 163.64 368.358 164.235 368.949 164.636C369.54 165.038 370.309 165.239 371.256 165.239C372.233 165.239 373.017 165.038 373.608 164.636C374.206 164.235 374.506 163.739 374.506 163.148C374.506 162.648 374.313 162.235 373.926 161.909C373.547 161.583 372.956 161.333 372.153 161.159L369.176 160.534C367.502 160.186 366.263 159.598 365.46 158.773C364.657 157.939 364.259 156.886 364.267 155.614C364.259 154.538 364.551 153.606 365.142 152.818C365.741 152.023 366.57 151.409 367.631 150.977C368.699 150.538 369.93 150.318 371.324 150.318C373.369 150.318 374.979 150.754 376.153 151.625C377.335 152.496 378.066 153.674 378.347 155.159ZM395.909 155.159L392.159 155.568C392.053 155.189 391.867 154.833 391.602 154.5C391.345 154.167 390.996 153.898 390.557 153.693C390.117 153.489 389.58 153.386 388.943 153.386C388.087 153.386 387.367 153.572 386.784 153.943C386.208 154.314 385.924 154.795 385.932 155.386C385.924 155.894 386.11 156.307 386.489 156.625C386.875 156.943 387.511 157.205 388.398 157.409L391.375 158.045C393.027 158.402 394.254 158.966 395.057 159.739C395.867 160.511 396.277 161.523 396.284 162.773C396.277 163.871 395.955 164.841 395.318 165.682C394.689 166.515 393.814 167.167 392.693 167.636C391.572 168.106 390.284 168.341 388.83 168.341C386.693 168.341 384.973 167.894 383.67 167C382.367 166.098 381.591 164.845 381.341 163.239L385.352 162.852C385.534 163.64 385.92 164.235 386.511 164.636C387.102 165.038 387.871 165.239 388.818 165.239C389.795 165.239 390.58 165.038 391.17 164.636C391.769 164.235 392.068 163.739 392.068 163.148C392.068 162.648 391.875 162.235 391.489 161.909C391.11 161.583 390.519 161.333 389.716 161.159L386.739 160.534C385.064 160.186 383.826 159.598 383.023 158.773C382.22 157.939 381.822 156.886 381.83 155.614C381.822 154.538 382.114 153.606 382.705 152.818C383.303 152.023 384.133 151.409 385.193 150.977C386.261 150.538 387.492 150.318 388.886 150.318C390.932 150.318 392.542 150.754 393.716 151.625C394.898 152.496 395.629 153.674 395.909 155.159Z" fill="black"/>
<line x1="43.0034" y1="203.5" x2="777.003" y2="208.5" stroke="black"/>
<circle cx="86.5" cy="242.5" r="13.5" fill="#D9D9D9"/>
<circle cx="442.5" cy="244.5" r="13.5" fill="black"/>
<path d="M475.318 252V234.545H485.418V235.977H476.912V242.548H484.625V243.98H476.912V252H475.318ZM492.722 252.298C491.932 252.298 491.21 252.145 490.557 251.838C489.903 251.526 489.384 251.077 488.997 250.491C488.611 249.901 488.418 249.185 488.418 248.344C488.418 247.696 488.54 247.151 488.784 246.707C489.028 246.264 489.375 245.901 489.824 245.616C490.273 245.332 490.804 245.108 491.418 244.943C492.031 244.778 492.707 244.651 493.446 244.56C494.179 244.469 494.798 244.389 495.304 244.321C495.815 244.253 496.205 244.145 496.472 243.997C496.739 243.849 496.872 243.611 496.872 243.281V242.974C496.872 242.082 496.605 241.381 496.071 240.869C495.543 240.352 494.781 240.094 493.787 240.094C492.844 240.094 492.074 240.301 491.477 240.716C490.886 241.131 490.472 241.619 490.233 242.182L488.793 241.662C489.088 240.946 489.497 240.375 490.02 239.949C490.543 239.517 491.128 239.207 491.776 239.02C492.423 238.827 493.08 238.73 493.744 238.73C494.244 238.73 494.764 238.795 495.304 238.926C495.849 239.057 496.355 239.284 496.821 239.608C497.287 239.926 497.665 240.372 497.955 240.946C498.244 241.514 498.389 242.236 498.389 243.111V252H496.872V249.929H496.778C496.597 250.315 496.327 250.69 495.969 251.054C495.611 251.418 495.162 251.716 494.622 251.949C494.082 252.182 493.449 252.298 492.722 252.298ZM492.926 250.909C493.733 250.909 494.432 250.73 495.023 250.372C495.614 250.014 496.068 249.54 496.386 248.949C496.71 248.352 496.872 247.696 496.872 246.98V245.088C496.759 245.196 496.568 245.293 496.301 245.378C496.04 245.463 495.736 245.54 495.389 245.608C495.048 245.67 494.707 245.724 494.366 245.77C494.026 245.815 493.719 245.855 493.446 245.889C492.707 245.98 492.077 246.122 491.554 246.315C491.031 246.509 490.631 246.776 490.352 247.116C490.074 247.452 489.935 247.884 489.935 248.412C489.935 249.207 490.219 249.824 490.787 250.261C491.355 250.693 492.068 250.909 492.926 250.909ZM502.442 252V238.909H503.967V252H502.442ZM503.217 236.659C502.905 236.659 502.638 236.554 502.416 236.344C502.195 236.128 502.084 235.869 502.084 235.568C502.084 235.267 502.195 235.011 502.416 234.801C502.638 234.585 502.905 234.477 503.217 234.477C503.53 234.477 503.797 234.585 504.018 234.801C504.24 235.011 504.351 235.267 504.351 235.568C504.351 235.869 504.24 236.128 504.018 236.344C503.797 236.554 503.53 236.659 503.217 236.659ZM509.496 234.545V252H507.979V234.545H509.496ZM521.829 246.997V238.909H523.346V252H521.829V249.827H521.71C521.403 250.497 520.917 251.057 520.252 251.506C519.587 251.949 518.775 252.17 517.815 252.17C516.979 252.17 516.238 251.989 515.59 251.625C514.942 251.256 514.434 250.716 514.065 250.006C513.695 249.295 513.511 248.423 513.511 247.389V238.909H515.028V247.295C515.028 248.318 515.329 249.142 515.931 249.767C516.533 250.386 517.306 250.696 518.249 250.696C518.84 250.696 519.408 250.554 519.954 250.27C520.499 249.986 520.948 249.571 521.3 249.026C521.653 248.474 521.829 247.798 521.829 246.997ZM532.655 252.273C531.433 252.273 530.376 251.989 529.484 251.42C528.592 250.847 527.902 250.054 527.413 249.043C526.93 248.026 526.689 246.855 526.689 245.531C526.689 244.213 526.93 243.043 527.413 242.02C527.902 240.991 528.575 240.187 529.433 239.608C530.297 239.023 531.294 238.73 532.425 238.73C533.135 238.73 533.82 238.861 534.479 239.122C535.138 239.378 535.729 239.773 536.251 240.307C536.78 240.835 537.197 241.503 537.504 242.31C537.811 243.111 537.964 244.06 537.964 245.156V245.906H527.737V244.568H536.413C536.413 243.727 536.243 242.972 535.902 242.301C535.567 241.625 535.098 241.091 534.496 240.699C533.899 240.307 533.209 240.111 532.425 240.111C531.595 240.111 530.865 240.332 530.234 240.776C529.604 241.219 529.109 241.804 528.751 242.531C528.399 243.259 528.22 244.054 528.214 244.918V245.719C528.214 246.759 528.393 247.668 528.751 248.446C529.115 249.219 529.629 249.818 530.294 250.244C530.959 250.67 531.746 250.884 532.655 250.884C533.274 250.884 533.817 250.787 534.283 250.594C534.754 250.401 535.149 250.142 535.467 249.818C535.791 249.489 536.036 249.128 536.2 248.736L537.641 249.205C537.442 249.756 537.115 250.264 536.661 250.73C536.212 251.196 535.649 251.571 534.973 251.855C534.303 252.134 533.53 252.273 532.655 252.273ZM541.308 252V238.909H542.782V240.92H542.893C543.154 240.261 543.609 239.73 544.256 239.327C544.91 238.918 545.648 238.713 546.472 238.713C546.597 238.713 546.737 238.716 546.89 238.722C547.043 238.727 547.171 238.733 547.273 238.739V240.281C547.205 240.27 547.086 240.253 546.915 240.23C546.745 240.207 546.56 240.196 546.362 240.196C545.68 240.196 545.072 240.341 544.538 240.631C544.009 240.915 543.592 241.31 543.285 241.815C542.978 242.321 542.825 242.898 542.825 243.545V252H541.308ZM554.177 252.273C553.103 252.273 552.163 251.989 551.356 251.42C550.549 250.852 549.918 250.06 549.464 249.043C549.015 248.026 548.79 246.841 548.79 245.489C548.79 244.142 549.015 242.963 549.464 241.952C549.918 240.935 550.552 240.145 551.364 239.582C552.177 239.014 553.123 238.73 554.202 238.73C554.998 238.73 555.66 238.872 556.188 239.156C556.717 239.435 557.14 239.781 557.458 240.196C557.776 240.611 558.023 241.014 558.2 241.406H558.336V234.545H559.862V252H558.379V249.571H558.2C558.023 249.969 557.773 250.378 557.45 250.798C557.126 251.213 556.697 251.562 556.163 251.847C555.634 252.131 554.972 252.273 554.177 252.273ZM554.356 250.884C555.202 250.884 555.924 250.653 556.521 250.193C557.117 249.727 557.572 249.088 557.884 248.276C558.202 247.457 558.362 246.52 558.362 245.463C558.362 244.418 558.205 243.494 557.893 242.693C557.58 241.886 557.126 241.256 556.529 240.801C555.933 240.341 555.208 240.111 554.356 240.111C553.481 240.111 552.742 240.349 552.14 240.827C551.543 241.298 551.089 241.937 550.776 242.744C550.469 243.551 550.316 244.457 550.316 245.463C550.316 246.48 550.472 247.398 550.785 248.216C551.097 249.034 551.552 249.685 552.148 250.168C552.751 250.645 553.487 250.884 554.356 250.884ZM576.6 233.727L570.975 254.625H569.552L575.177 233.727H576.6ZM591.587 252.239C590.513 252.239 589.553 252.045 588.707 251.659C587.86 251.267 587.19 250.724 586.695 250.031C586.201 249.338 585.94 248.54 585.911 247.636H587.522C587.55 248.273 587.746 248.83 588.11 249.307C588.474 249.778 588.957 250.148 589.559 250.415C590.161 250.676 590.832 250.807 591.57 250.807C592.377 250.807 593.087 250.656 593.701 250.355C594.32 250.054 594.803 249.642 595.15 249.119C595.502 248.591 595.678 247.994 595.678 247.33C595.678 246.625 595.499 246.003 595.141 245.463C594.783 244.923 594.269 244.503 593.599 244.202C592.934 243.901 592.138 243.75 591.212 243.75H590.19V242.318H591.212C591.968 242.318 592.636 242.182 593.215 241.909C593.8 241.631 594.261 241.241 594.596 240.741C594.931 240.241 595.099 239.653 595.099 238.977C595.099 238.335 594.954 237.77 594.664 237.281C594.374 236.793 593.965 236.409 593.437 236.131C592.914 235.852 592.303 235.713 591.604 235.713C590.928 235.713 590.309 235.844 589.746 236.105C589.184 236.366 588.729 236.736 588.383 237.213C588.042 237.69 587.86 238.256 587.837 238.909H586.295C586.317 238 586.567 237.202 587.045 236.514C587.528 235.821 588.167 235.281 588.962 234.895C589.763 234.503 590.65 234.307 591.621 234.307C592.65 234.307 593.539 234.517 594.289 234.938C595.039 235.358 595.619 235.918 596.028 236.616C596.442 237.31 596.65 238.074 596.65 238.909C596.65 239.903 596.38 240.756 595.84 241.466C595.3 242.17 594.573 242.659 593.658 242.932V243.043C594.772 243.264 595.647 243.759 596.283 244.526C596.925 245.287 597.246 246.222 597.246 247.33C597.246 248.261 597.002 249.099 596.513 249.844C596.025 250.582 595.354 251.168 594.502 251.599C593.656 252.026 592.684 252.239 591.587 252.239ZM606.434 252.239C605.207 252.239 604.158 251.886 603.289 251.182C602.425 250.472 601.761 249.446 601.295 248.105C600.835 246.764 600.604 245.153 600.604 243.273C600.604 241.398 600.835 239.793 601.295 238.457C601.761 237.116 602.428 236.091 603.298 235.381C604.173 234.665 605.218 234.307 606.434 234.307C607.65 234.307 608.692 234.665 609.562 235.381C610.437 236.091 611.104 237.116 611.565 238.457C612.031 239.793 612.263 241.398 612.263 243.273C612.263 245.153 612.031 246.764 611.565 248.105C611.104 249.446 610.44 250.472 609.57 251.182C608.707 251.886 607.661 252.239 606.434 252.239ZM606.434 250.807C607.781 250.807 608.832 250.151 609.587 248.838C610.343 247.52 610.721 245.665 610.721 243.273C610.721 241.682 610.548 240.324 610.201 239.199C609.86 238.068 609.369 237.205 608.727 236.608C608.09 236.011 607.326 235.713 606.434 235.713C605.099 235.713 604.05 236.378 603.289 237.707C602.528 239.031 602.147 240.886 602.147 243.273C602.147 244.864 602.317 246.222 602.658 247.347C603.005 248.472 603.496 249.33 604.133 249.92C604.775 250.511 605.542 250.807 606.434 250.807ZM617.588 249.614L617.435 250.526C617.338 251.139 617.202 251.815 617.026 252.554C616.849 253.293 616.668 253.994 616.48 254.659C616.293 255.324 616.131 255.858 615.994 256.261H614.827C614.901 255.875 614.994 255.384 615.108 254.787C615.227 254.19 615.349 253.528 615.474 252.801C615.599 252.08 615.713 251.335 615.815 250.568L615.935 249.614H617.588ZM624.892 234.545V252H623.298V236.216H623.196L619.105 238.935V237.281L623.23 234.545H624.892ZM635.861 252.239C634.787 252.239 633.827 252.045 632.98 251.659C632.134 251.267 631.463 250.724 630.969 250.031C630.474 249.338 630.213 248.54 630.185 247.636H631.795C631.824 248.273 632.02 248.83 632.384 249.307C632.747 249.778 633.23 250.148 633.832 250.415C634.435 250.676 635.105 250.807 635.844 250.807C636.651 250.807 637.361 250.656 637.974 250.355C638.594 250.054 639.077 249.642 639.423 249.119C639.776 248.591 639.952 247.994 639.952 247.33C639.952 246.625 639.773 246.003 639.415 245.463C639.057 244.923 638.543 244.503 637.872 244.202C637.207 243.901 636.412 243.75 635.486 243.75H634.463V242.318H635.486C636.241 242.318 636.909 242.182 637.489 241.909C638.074 241.631 638.534 241.241 638.869 240.741C639.205 240.241 639.372 239.653 639.372 238.977C639.372 238.335 639.227 237.77 638.938 237.281C638.648 236.793 638.239 236.409 637.71 236.131C637.188 235.852 636.577 235.713 635.878 235.713C635.202 235.713 634.582 235.844 634.02 236.105C633.457 236.366 633.003 236.736 632.656 237.213C632.315 237.69 632.134 238.256 632.111 238.909H630.568C630.591 238 630.841 237.202 631.318 236.514C631.801 235.821 632.44 235.281 633.236 234.895C634.037 234.503 634.923 234.307 635.895 234.307C636.923 234.307 637.812 234.517 638.562 234.938C639.312 235.358 639.892 235.918 640.301 236.616C640.716 237.31 640.923 238.074 640.923 238.909C640.923 239.903 640.653 240.756 640.114 241.466C639.574 242.17 638.847 242.659 637.932 242.932V243.043C639.045 243.264 639.92 243.759 640.557 244.526C641.199 245.287 641.52 246.222 641.52 247.33C641.52 248.261 641.276 249.099 640.787 249.844C640.298 250.582 639.628 251.168 638.776 251.599C637.929 252.026 636.957 252.239 635.861 252.239ZM654.116 248.761V247.969C654.116 247.315 654.247 246.727 654.509 246.205C654.77 245.676 655.142 245.259 655.625 244.952C656.108 244.645 656.682 244.491 657.347 244.491C658.017 244.491 658.591 244.645 659.068 244.952C659.545 245.259 659.912 245.676 660.168 246.205C660.423 246.727 660.551 247.315 660.551 247.969V248.761C660.551 249.415 660.42 250.003 660.159 250.526C659.903 251.048 659.537 251.466 659.06 251.778C658.582 252.085 658.011 252.239 657.347 252.239C656.67 252.239 656.091 252.085 655.608 251.778C655.131 251.466 654.761 251.048 654.5 250.526C654.244 250.003 654.116 249.415 654.116 248.761ZM655.455 247.969V248.761C655.455 249.403 655.611 249.952 655.923 250.406C656.241 250.855 656.716 251.08 657.347 251.08C657.96 251.08 658.423 250.855 658.736 250.406C659.048 249.952 659.205 249.403 659.205 248.761V247.969C659.205 247.327 659.051 246.781 658.744 246.332C658.438 245.878 657.972 245.651 657.347 245.651C656.727 245.651 656.256 245.878 655.932 246.332C655.614 246.781 655.455 247.327 655.455 247.969ZM645.321 238.577V237.784C645.321 237.131 645.452 236.543 645.713 236.02C645.974 235.497 646.347 235.082 646.83 234.776C647.313 234.463 647.886 234.307 648.551 234.307C649.222 234.307 649.795 234.463 650.273 234.776C650.75 235.082 651.116 235.497 651.372 236.02C651.628 236.543 651.756 237.131 651.756 237.784V238.577C651.756 239.23 651.625 239.821 651.364 240.349C651.108 240.872 650.741 241.287 650.264 241.594C649.787 241.901 649.216 242.054 648.551 242.054C647.875 242.054 647.295 241.901 646.812 241.594C646.335 241.287 645.966 240.872 645.705 240.349C645.449 239.821 645.321 239.23 645.321 238.577ZM646.659 237.784V238.577C646.659 239.219 646.815 239.767 647.128 240.222C647.446 240.67 647.92 240.895 648.551 240.895C649.165 240.895 649.628 240.67 649.94 240.222C650.253 239.767 650.409 239.219 650.409 238.577V237.784C650.409 237.142 650.256 236.597 649.949 236.148C649.642 235.693 649.176 235.466 648.551 235.466C647.932 235.466 647.46 235.693 647.136 236.148C646.818 236.597 646.659 237.142 646.659 237.784ZM646.105 252L658.097 234.545H659.605L647.614 252H646.105Z" fill="black"/>
<path d="M536 486.748C536 562.687 474.439 624.248 398.5 624.248C322.561 624.248 261 562.687 261 486.748C261 410.809 322.561 349.248 398.5 349.248C474.439 349.248 536 410.809 536 486.748ZM295.658 486.748C295.658 543.546 341.702 589.59 398.5 589.59C455.298 589.59 501.342 543.546 501.342 486.748C501.342 429.95 455.298 383.906 398.5 383.906C341.702 383.906 295.658 429.95 295.658 486.748Z" fill="#D9D9D9"/>
<path d="M457.016 381.416C461.698 373.069 472.342 370.015 480.034 375.71C492.402 384.865 503.179 396.058 511.885 408.846C523.851 426.423 531.578 446.536 534.457 467.604C537.337 488.672 535.29 510.121 528.48 530.265C523.525 544.92 516.146 558.594 506.688 570.732C500.806 578.282 489.733 578.196 482.983 571.411C476.233 564.627 476.403 553.722 481.959 545.93C487.791 537.752 492.411 528.738 495.648 519.164C500.742 504.098 502.272 488.055 500.118 472.297C497.965 456.54 492.186 441.496 483.236 428.349C477.548 419.995 470.679 412.552 462.867 406.238C455.424 400.222 452.333 389.763 457.016 381.416Z" fill="black"/>
<rect x="339" y="282" width="115" height="53" rx="26.5" fill="black"/>
<path d="M368.335 313.199C367.739 313.189 367.142 313.076 366.545 312.858C365.949 312.64 365.404 312.273 364.912 311.757C364.42 311.236 364.024 310.533 363.726 309.648C363.428 308.758 363.278 307.64 363.278 306.295C363.278 305.008 363.399 303.866 363.641 302.872C363.882 301.873 364.232 301.033 364.692 300.351C365.151 299.664 365.705 299.143 366.354 298.788C367.007 298.433 367.743 298.256 368.562 298.256C369.377 298.256 370.101 298.419 370.736 298.746C371.375 299.068 371.896 299.518 372.298 300.095C372.701 300.673 372.961 301.338 373.08 302.091H371.347C371.186 301.437 370.873 300.895 370.409 300.464C369.945 300.034 369.33 299.818 368.562 299.818C367.436 299.818 366.548 300.308 365.899 301.288C365.255 302.268 364.931 303.644 364.926 305.415H365.04C365.305 305.012 365.62 304.669 365.984 304.385C366.354 304.096 366.761 303.874 367.206 303.717C367.651 303.561 368.122 303.483 368.619 303.483C369.453 303.483 370.215 303.691 370.906 304.108C371.598 304.52 372.152 305.09 372.568 305.82C372.985 306.544 373.193 307.375 373.193 308.312C373.193 309.212 372.992 310.036 372.589 310.784C372.187 311.527 371.621 312.119 370.892 312.56C370.168 312.995 369.315 313.208 368.335 313.199ZM368.335 311.636C368.932 311.636 369.467 311.487 369.94 311.189C370.419 310.891 370.795 310.491 371.07 309.989C371.349 309.487 371.489 308.928 371.489 308.312C371.489 307.711 371.354 307.164 371.084 306.672C370.819 306.175 370.452 305.779 369.983 305.486C369.519 305.192 368.989 305.045 368.392 305.045C367.942 305.045 367.523 305.135 367.135 305.315C366.747 305.491 366.406 305.732 366.112 306.04C365.823 306.348 365.596 306.7 365.43 307.098C365.265 307.491 365.182 307.905 365.182 308.341C365.182 308.919 365.317 309.458 365.587 309.96C365.861 310.462 366.235 310.867 366.709 311.175C367.187 311.482 367.729 311.636 368.335 311.636ZM380.532 313.199C379.698 313.199 378.948 313.033 378.28 312.702C377.613 312.37 377.078 311.916 376.675 311.338C376.273 310.76 376.052 310.102 376.015 309.364H377.719C377.785 310.022 378.084 310.566 378.614 310.997C379.149 311.423 379.788 311.636 380.532 311.636C381.128 311.636 381.658 311.497 382.123 311.217C382.591 310.938 382.958 310.554 383.223 310.067C383.493 309.574 383.628 309.018 383.628 308.398C383.628 307.763 383.489 307.197 383.209 306.7C382.935 306.198 382.556 305.803 382.073 305.514C381.59 305.225 381.038 305.079 380.418 305.074C379.973 305.069 379.516 305.138 379.047 305.28C378.578 305.417 378.193 305.595 377.89 305.812L376.242 305.614L377.123 298.455H384.679V300.017H378.6L378.088 304.307H378.174C378.472 304.07 378.846 303.874 379.296 303.717C379.746 303.561 380.214 303.483 380.702 303.483C381.592 303.483 382.385 303.696 383.081 304.122C383.782 304.544 384.331 305.121 384.729 305.855C385.132 306.589 385.333 307.427 385.333 308.369C385.333 309.297 385.124 310.126 384.708 310.855C384.296 311.58 383.728 312.152 383.003 312.574C382.279 312.991 381.455 313.199 380.532 313.199ZM390.136 311.011L390.022 311.778C389.942 312.318 389.818 312.896 389.653 313.511C389.492 314.127 389.324 314.707 389.148 315.251C388.973 315.796 388.829 316.229 388.715 316.551H387.437C387.498 316.248 387.579 315.848 387.678 315.351C387.778 314.854 387.877 314.297 387.977 313.682C388.081 313.071 388.166 312.446 388.232 311.807L388.317 311.011H390.136ZM393.374 313L399.88 300.131V300.017H392.38V298.455H401.698V300.102L395.221 313H393.374ZM408.863 313.199C408.266 313.189 407.669 313.076 407.073 312.858C406.476 312.64 405.932 312.273 405.439 311.757C404.947 311.236 404.551 310.533 404.253 309.648C403.955 308.758 403.806 307.64 403.806 306.295C403.806 305.008 403.926 303.866 404.168 302.872C404.409 301.873 404.76 301.033 405.219 300.351C405.678 299.664 406.232 299.143 406.881 298.788C407.534 298.433 408.271 298.256 409.09 298.256C409.904 298.256 410.629 298.419 411.263 298.746C411.902 299.068 412.423 299.518 412.826 300.095C413.228 300.673 413.489 301.338 413.607 302.091H411.874C411.713 301.437 411.4 300.895 410.936 300.464C410.472 300.034 409.857 299.818 409.09 299.818C407.963 299.818 407.075 300.308 406.426 301.288C405.783 302.268 405.458 303.644 405.453 305.415H405.567C405.832 305.012 406.147 304.669 406.512 304.385C406.881 304.096 407.288 303.874 407.733 303.717C408.178 303.561 408.65 303.483 409.147 303.483C409.98 303.483 410.742 303.691 411.434 304.108C412.125 304.52 412.679 305.09 413.096 305.82C413.512 306.544 413.721 307.375 413.721 308.312C413.721 309.212 413.519 310.036 413.117 310.784C412.714 311.527 412.149 312.119 411.419 312.56C410.695 312.995 409.843 313.208 408.863 313.199ZM408.863 311.636C409.459 311.636 409.994 311.487 410.468 311.189C410.946 310.891 411.322 310.491 411.597 309.989C411.876 309.487 412.016 308.928 412.016 308.312C412.016 307.711 411.881 307.164 411.611 306.672C411.346 306.175 410.979 305.779 410.51 305.486C410.046 305.192 409.516 305.045 408.919 305.045C408.47 305.045 408.051 305.135 407.662 305.315C407.274 305.491 406.933 305.732 406.64 306.04C406.351 306.348 406.123 306.7 405.958 307.098C405.792 307.491 405.709 307.905 405.709 308.341C405.709 308.919 405.844 309.458 406.114 309.96C406.389 310.462 406.763 310.867 407.236 311.175C407.714 311.482 408.257 311.636 408.863 311.636ZM423.928 310.273V309.506C423.928 308.975 424.037 308.49 424.255 308.05C424.478 307.605 424.799 307.25 425.221 306.984C425.647 306.714 426.163 306.58 426.769 306.58C427.385 306.58 427.901 306.714 428.317 306.984C428.734 307.25 429.049 307.605 429.262 308.05C429.475 308.49 429.582 308.975 429.582 309.506V310.273C429.582 310.803 429.473 311.291 429.255 311.736C429.042 312.176 428.725 312.531 428.303 312.801C427.887 313.066 427.375 313.199 426.769 313.199C426.154 313.199 425.635 313.066 425.214 312.801C424.792 312.531 424.473 312.176 424.255 311.736C424.037 311.291 423.928 310.803 423.928 310.273ZM425.377 309.506V310.273C425.377 310.713 425.481 311.108 425.69 311.459C425.898 311.804 426.258 311.977 426.769 311.977C427.266 311.977 427.617 311.804 427.82 311.459C428.029 311.108 428.133 310.713 428.133 310.273V309.506C428.133 309.065 428.033 308.672 427.835 308.327C427.636 307.976 427.281 307.801 426.769 307.801C426.272 307.801 425.915 307.976 425.697 308.327C425.484 308.672 425.377 309.065 425.377 309.506ZM416.684 301.949V301.182C416.684 300.652 416.793 300.166 417.011 299.726C417.233 299.281 417.555 298.926 417.977 298.661C418.403 298.391 418.919 298.256 419.525 298.256C420.14 298.256 420.656 298.391 421.073 298.661C421.49 298.926 421.805 299.281 422.018 299.726C422.231 300.166 422.337 300.652 422.337 301.182V301.949C422.337 302.479 422.228 302.967 422.011 303.412C421.798 303.852 421.48 304.207 421.059 304.477C420.642 304.742 420.131 304.875 419.525 304.875C418.909 304.875 418.391 304.742 417.969 304.477C417.548 304.207 417.228 303.852 417.011 303.412C416.793 302.967 416.684 302.479 416.684 301.949ZM418.133 301.182V301.949C418.133 302.389 418.237 302.785 418.445 303.135C418.654 303.481 419.013 303.653 419.525 303.653C420.022 303.653 420.372 303.481 420.576 303.135C420.784 302.785 420.888 302.389 420.888 301.949V301.182C420.888 300.741 420.789 300.348 420.59 300.003C420.391 299.652 420.036 299.477 419.525 299.477C419.028 299.477 418.67 299.652 418.452 300.003C418.239 300.348 418.133 300.741 418.133 301.182ZM417.224 313L427.224 298.455H428.843L418.843 313H417.224Z" fill="#F9F9F9"/>
</g>
<defs>
<filter id="filter0_d_296_9" x="9" y="-19" width="818" height="664" filterUnits="userSpaceOnUse" color-interpolation-filters="sRGB">
<feFlood flood-opacity="0" result="BackgroundImageFix"/>
<feColorMatrix in="SourceAlpha" type="matrix" values="0 0 0 0 0 0 0 0 0 0 0 0 0 0 0 0 0 0 127 0" result="hardAlpha"/>
<feMorphology radius="10" operator="dilate" in="SourceAlpha" result="effect1_dropShadow_296_9"/>
<feOffset dy="4"/>
<feGaussianBlur stdDeviation="12"/>
<feComposite in2="hardAlpha" operator="out"/>
<feColorMatrix type="matrix" values="0 0 0 0 0 0 0 0 0 0 0 0 0 0 0 0 0 0 0.25 0"/>
<feBlend mode="normal" in2="BackgroundImageFix" result="effect1_dropShadow_296_9"/>
<feBlend mode="normal" in="SourceGraphic" in2="effect1_dropShadow_296_9" result="shape"/>
</filter>
<clipPath id="clip0_296_9">
<rect width="844" height="515" rx="21" fill="white"/>
</clipPath>
</defs>
</svg>
