<svg width="707" height="707" viewBox="0 0 707 707" fill="none" xmlns="http://www.w3.org/2000/svg">
<g filter="url(#filter0_i_215_2)">
<g clip-path="url(#clip0_215_2)">
<rect width="707" height="707" rx="42" fill="#C2DBDD" fill-opacity="0.56"/>
<g filter="url(#filter1_d_215_2)">
<rect x="41.5" y="20" width="624" height="545" rx="29" fill="#F5F5F5"/>
<rect x="42" y="20.5" width="623" height="544" rx="28.5" stroke="#D9D9D9"/>
</g>
<g filter="url(#filter2_d_215_2)">
<rect x="24" y="622" width="659" height="85" rx="29" fill="#F5F5F5"/>
</g>
<path d="M73.4888 47H71.1593L76.3936 32.4545H78.9292L84.1635 47H81.834L77.7218 35.0966H77.6081L73.4888 47ZM73.8794 41.304H81.4363V43.1506H73.8794V41.304ZM90.513 47.2202C89.4571 47.2202 88.548 46.9811 87.7857 46.5028C87.0281 46.0199 86.4457 45.3546 86.0385 44.5071C85.6313 43.6596 85.4277 42.6889 85.4277 41.5952C85.4277 40.4872 85.6361 39.5095 86.0527 38.6619C86.4694 37.8097 87.0565 37.1444 87.8141 36.6662C88.5717 36.188 89.4642 35.9489 90.4917 35.9489C91.3203 35.9489 92.0589 36.1027 92.7076 36.4105C93.3562 36.7135 93.8794 37.1397 94.2772 37.6889C94.6796 38.2382 94.9187 38.8797 94.9945 39.6136H92.9277C92.8141 39.1023 92.5537 38.6619 92.1465 38.2926C91.744 37.9233 91.2042 37.7386 90.5272 37.7386C89.9353 37.7386 89.4168 37.8949 88.9718 38.2074C88.5314 38.5152 88.1882 38.9555 87.9419 39.5284C87.6957 40.0966 87.5726 40.7689 87.5726 41.5455C87.5726 42.3409 87.6934 43.0275 87.9348 43.6051C88.1763 44.1828 88.5172 44.6302 88.9576 44.9474C89.4026 45.2647 89.9258 45.4233 90.5272 45.4233C90.9296 45.4233 91.2942 45.3499 91.6209 45.2031C91.9524 45.0516 92.2293 44.8362 92.4519 44.5568C92.6792 44.2775 92.8378 43.9413 92.9277 43.5483H94.9945C94.9187 44.2538 94.6891 44.8835 94.3056 45.4375C93.9221 45.9915 93.4083 46.4271 92.7644 46.7443C92.1252 47.0616 91.3747 47.2202 90.513 47.2202ZM102.358 36.0909V37.7955H96.399V36.0909H102.358ZM97.997 33.4773H100.121V43.7969C100.121 44.2088 100.182 44.5189 100.305 44.7273C100.428 44.9309 100.587 45.0705 100.781 45.1463C100.98 45.2173 101.195 45.2528 101.427 45.2528C101.598 45.2528 101.747 45.241 101.875 45.2173C102.003 45.1937 102.102 45.1747 102.173 45.1605L102.557 46.9148C102.434 46.9621 102.258 47.0095 102.031 47.0568C101.804 47.1089 101.52 47.1373 101.179 47.142C100.62 47.1515 100.099 47.0521 99.6163 46.8438C99.1333 46.6354 98.7427 46.3134 98.4444 45.8778C98.1461 45.4422 97.997 44.8954 97.997 44.2372V33.4773ZM104.707 47V36.0909H106.83V47H104.707ZM105.779 34.4077C105.41 34.4077 105.093 34.2846 104.828 34.0384C104.567 33.7874 104.437 33.4891 104.437 33.1435C104.437 32.7931 104.567 32.4948 104.828 32.2486C105.093 31.9976 105.41 31.8722 105.779 31.8722C106.149 31.8722 106.463 31.9976 106.724 32.2486C106.989 32.4948 107.122 32.7931 107.122 33.1435C107.122 33.4891 106.989 33.7874 106.724 34.0384C106.463 34.2846 106.149 34.4077 105.779 34.4077ZM119.02 36.0909L115.064 47H112.791L108.828 36.0909H111.108L113.871 44.4858H113.984L116.74 36.0909H119.02ZM121.015 47V36.0909H123.139V47H121.015ZM122.088 34.4077C121.719 34.4077 121.401 34.2846 121.136 34.0384C120.876 33.7874 120.746 33.4891 120.746 33.1435C120.746 32.7931 120.876 32.4948 121.136 32.2486C121.401 31.9976 121.719 31.8722 122.088 31.8722C122.457 31.8722 122.772 31.9976 123.032 32.2486C123.298 32.4948 123.43 32.7931 123.43 33.1435C123.43 33.4891 123.298 33.7874 123.032 34.0384C122.772 34.2846 122.457 34.4077 122.088 34.4077ZM131.088 36.0909V37.7955H125.129V36.0909H131.088ZM126.727 33.4773H128.851V43.7969C128.851 44.2088 128.913 44.5189 129.036 44.7273C129.159 44.9309 129.317 45.0705 129.512 45.1463C129.71 45.2173 129.926 45.2528 130.158 45.2528C130.328 45.2528 130.477 45.241 130.605 45.2173C130.733 45.1937 130.833 45.1747 130.904 45.1605L131.287 46.9148C131.164 46.9621 130.989 47.0095 130.762 47.0568C130.534 47.1089 130.25 47.1373 129.909 47.142C129.351 47.1515 128.83 47.0521 128.347 46.8438C127.864 46.6354 127.473 46.3134 127.175 45.8778C126.877 45.4422 126.727 44.8954 126.727 44.2372V33.4773ZM134.78 51.0909C134.462 51.0909 134.174 51.0649 133.913 51.0128C133.653 50.9654 133.459 50.9134 133.331 50.8565L133.842 49.1165C134.23 49.2206 134.576 49.2656 134.879 49.2514C135.182 49.2372 135.45 49.1236 135.682 48.9105C135.918 48.6974 136.127 48.3494 136.307 47.8665L136.569 47.142L132.578 36.0909H134.851L137.613 44.5568H137.727L140.49 36.0909H142.77L138.274 48.456C138.066 49.0241 137.8 49.5047 137.479 49.8977C137.157 50.2955 136.773 50.5938 136.328 50.7926C135.883 50.9915 135.367 51.0909 134.78 51.0909Z" fill="#3A55D0"/>
<path d="M72.9872 88V70.5455H79.5327C80.8736 70.5455 81.9986 70.7955 82.9077 71.2955C83.8224 71.7955 84.5128 72.483 84.9787 73.358C85.4503 74.2273 85.6861 75.2159 85.6861 76.3239C85.6861 77.4432 85.4503 78.4375 84.9787 79.3068C84.5071 80.1761 83.8111 80.8608 82.8906 81.3608C81.9702 81.8551 80.8366 82.1023 79.4901 82.1023H75.152V79.5028H79.0639C79.848 79.5028 80.4901 79.3665 80.9901 79.0938C81.4901 78.821 81.8594 78.446 82.098 77.9688C82.3423 77.4915 82.4645 76.9432 82.4645 76.3239C82.4645 75.7045 82.3423 75.1591 82.098 74.6875C81.8594 74.2159 81.4872 73.8494 80.9815 73.5881C80.4815 73.321 79.8366 73.1875 79.0469 73.1875H76.1491V88H72.9872ZM88.2962 88V74.9091H91.2876V77.0909H91.424C91.6626 76.3352 92.0717 75.7528 92.6513 75.3438C93.2365 74.929 93.9041 74.7216 94.6541 74.7216C94.8246 74.7216 95.0149 74.7301 95.2251 74.7472C95.4411 74.7585 95.62 74.7784 95.7621 74.8068V77.6449C95.6314 77.5994 95.424 77.5597 95.1399 77.5256C94.8615 77.4858 94.5916 77.4659 94.3303 77.4659C93.7678 77.4659 93.2621 77.5881 92.8132 77.8324C92.37 78.071 92.0206 78.4034 91.7649 78.8295C91.5092 79.2557 91.3814 79.7472 91.3814 80.304V88H88.2962ZM102.983 88.2557C101.705 88.2557 100.597 87.9744 99.6591 87.4119C98.7216 86.8494 97.9943 86.0625 97.4773 85.0511C96.9659 84.0398 96.7102 82.858 96.7102 81.5057C96.7102 80.1534 96.9659 78.9687 97.4773 77.9517C97.9943 76.9347 98.7216 76.1449 99.6591 75.5824C100.597 75.0199 101.705 74.7386 102.983 74.7386C104.261 74.7386 105.369 75.0199 106.307 75.5824C107.244 76.1449 107.969 76.9347 108.48 77.9517C108.997 78.9687 109.256 80.1534 109.256 81.5057C109.256 82.858 108.997 84.0398 108.48 85.0511C107.969 86.0625 107.244 86.8494 106.307 87.4119C105.369 87.9744 104.261 88.2557 102.983 88.2557ZM103 85.7841C103.693 85.7841 104.273 85.5937 104.739 85.2131C105.205 84.8267 105.551 84.3097 105.778 83.6619C106.011 83.0142 106.128 82.2926 106.128 81.4972C106.128 80.696 106.011 79.9716 105.778 79.3239C105.551 78.6705 105.205 78.1506 104.739 77.7642C104.273 77.3778 103.693 77.1847 103 77.1847C102.29 77.1847 101.699 77.3778 101.227 77.7642C100.761 78.1506 100.412 78.6705 100.179 79.3239C99.9517 79.9716 99.8381 80.696 99.8381 81.4972C99.8381 82.2926 99.9517 83.0142 100.179 83.6619C100.412 84.3097 100.761 84.8267 101.227 85.2131C101.699 85.5937 102.29 85.7841 103 85.7841ZM118.505 74.9091V77.2955H110.766V74.9091H118.505ZM112.701 88V73.6733C112.701 72.7926 112.883 72.0597 113.246 71.4744C113.616 70.8892 114.11 70.4517 114.729 70.1619C115.349 69.8722 116.036 69.7273 116.792 69.7273C117.326 69.7273 117.8 69.7699 118.215 69.8551C118.63 69.9403 118.937 70.017 119.136 70.0852L118.522 72.4716C118.391 72.4318 118.227 72.392 118.028 72.3523C117.829 72.3068 117.607 72.2841 117.363 72.2841C116.789 72.2841 116.383 72.4233 116.144 72.7017C115.911 72.9744 115.795 73.3665 115.795 73.8778V88H112.701ZM120.921 88V74.9091H124.006V88H120.921ZM122.472 73.0511C121.984 73.0511 121.563 72.8892 121.211 72.5653C120.859 72.2358 120.683 71.8409 120.683 71.3807C120.683 70.9148 120.859 70.5199 121.211 70.196C121.563 69.8665 121.984 69.7017 122.472 69.7017C122.967 69.7017 123.387 69.8665 123.734 70.196C124.086 70.5199 124.262 70.9148 124.262 71.3807C124.262 71.8409 124.086 72.2358 123.734 72.5653C123.387 72.8892 122.967 73.0511 122.472 73.0511ZM133.716 74.9091V77.2955H126.19V74.9091H133.716ZM128.048 71.7727H131.134V84.0625C131.134 84.4773 131.196 84.7955 131.321 85.017C131.452 85.233 131.622 85.3807 131.832 85.4602C132.043 85.5398 132.276 85.5795 132.531 85.5795C132.724 85.5795 132.901 85.5653 133.06 85.5369C133.224 85.5085 133.349 85.483 133.435 85.4602L133.955 87.8722C133.79 87.929 133.554 87.9915 133.247 88.0597C132.946 88.1278 132.577 88.1676 132.139 88.179C131.366 88.2017 130.67 88.0852 130.051 87.8295C129.432 87.5682 128.94 87.1648 128.577 86.6193C128.219 86.0739 128.043 85.392 128.048 84.5739V71.7727ZM147.465 88.2557C146.272 88.2557 145.246 88.0398 144.388 87.608C143.531 87.1761 142.869 86.5938 142.403 85.8608C141.942 85.1222 141.712 84.2898 141.712 83.3636C141.712 82.6648 141.854 82.0455 142.138 81.5057C142.428 80.9659 142.826 80.4659 143.332 80.0057C143.843 79.5455 144.434 79.0881 145.104 78.6335L148.198 76.5284C148.653 76.233 148.996 75.9205 149.229 75.5909C149.468 75.2614 149.587 74.875 149.587 74.4318C149.587 74.0568 149.428 73.7017 149.11 73.3665C148.798 73.0312 148.366 72.8636 147.815 72.8636C147.445 72.8636 147.119 72.9517 146.835 73.1278C146.556 73.2983 146.337 73.5227 146.178 73.8011C146.025 74.0795 145.948 74.375 145.948 74.6875C145.948 75.0682 146.053 75.4545 146.263 75.8466C146.479 76.2386 146.758 76.6449 147.099 77.0653C147.445 77.4858 147.815 77.9318 148.207 78.4034L156.397 88H153.056L146.255 80.2102C145.749 79.6193 145.261 79.0369 144.789 78.4631C144.323 77.8892 143.94 77.2926 143.638 76.6733C143.343 76.0483 143.195 75.3722 143.195 74.6449C143.195 73.821 143.386 73.0852 143.766 72.4375C144.147 71.7841 144.678 71.2699 145.36 70.8949C146.048 70.5199 146.852 70.3324 147.772 70.3324C148.692 70.3324 149.482 70.5142 150.141 70.8778C150.8 71.2415 151.309 71.7244 151.667 72.3267C152.025 72.929 152.204 73.5852 152.204 74.2955C152.204 75.1193 151.999 75.858 151.59 76.5114C151.181 77.1591 150.613 77.7472 149.886 78.2756L146.357 80.858C145.778 81.2784 145.363 81.7045 145.113 82.1364C144.863 82.5625 144.738 82.9261 144.738 83.2273C144.738 83.6875 144.854 84.1051 145.087 84.4801C145.32 84.8551 145.647 85.1562 146.067 85.3835C146.494 85.6051 146.991 85.7159 147.559 85.7159C148.184 85.7159 148.8 85.5767 149.408 85.2983C150.016 85.0142 150.57 84.6108 151.07 84.0881C151.57 83.5653 151.968 82.9403 152.263 82.2131C152.559 81.4801 152.707 80.6676 152.707 79.7756H155.357C155.357 80.8778 155.235 81.8381 154.991 82.6562C154.746 83.4688 154.431 84.1562 154.045 84.7188C153.658 85.2756 153.249 85.7216 152.817 86.0568C152.681 86.1534 152.55 86.25 152.425 86.3466C152.3 86.4432 152.17 86.5398 152.033 86.6364C151.42 87.1932 150.701 87.6023 149.877 87.8636C149.059 88.125 148.255 88.2557 147.465 88.2557ZM167.202 70.5455V88H164.116V70.5455H167.202ZM176.085 88.2557C174.806 88.2557 173.698 87.9744 172.761 87.4119C171.823 86.8494 171.096 86.0625 170.579 85.0511C170.067 84.0398 169.812 82.858 169.812 81.5057C169.812 80.1534 170.067 78.9687 170.579 77.9517C171.096 76.9347 171.823 76.1449 172.761 75.5824C173.698 75.0199 174.806 74.7386 176.085 74.7386C177.363 74.7386 178.471 75.0199 179.408 75.5824C180.346 76.1449 181.07 76.9347 181.582 77.9517C182.099 78.9687 182.357 80.1534 182.357 81.5057C182.357 82.858 182.099 84.0398 181.582 85.0511C181.07 86.0625 180.346 86.8494 179.408 87.4119C178.471 87.9744 177.363 88.2557 176.085 88.2557ZM176.102 85.7841C176.795 85.7841 177.374 85.5937 177.84 85.2131C178.306 84.8267 178.653 84.3097 178.88 83.6619C179.113 83.0142 179.229 82.2926 179.229 81.4972C179.229 80.696 179.113 79.9716 178.88 79.3239C178.653 78.6705 178.306 78.1506 177.84 77.7642C177.374 77.3778 176.795 77.1847 176.102 77.1847C175.391 77.1847 174.8 77.3778 174.329 77.7642C173.863 78.1506 173.513 78.6705 173.281 79.3239C173.053 79.9716 172.94 80.696 172.94 81.4972C172.94 82.2926 173.053 83.0142 173.281 83.6619C173.513 84.3097 173.863 84.8267 174.329 85.2131C174.8 85.5937 175.391 85.7841 176.102 85.7841ZM195.322 78.3693L192.51 78.6761C192.43 78.392 192.291 78.125 192.092 77.875C191.899 77.625 191.638 77.4233 191.308 77.2699C190.979 77.1165 190.575 77.0398 190.098 77.0398C189.456 77.0398 188.916 77.179 188.479 77.4574C188.047 77.7358 187.834 78.0966 187.839 78.5398C187.834 78.9205 187.973 79.2301 188.257 79.4688C188.547 79.7074 189.024 79.9034 189.689 80.0568L191.922 80.5341C193.161 80.8011 194.081 81.2244 194.683 81.804C195.291 82.3835 195.598 83.142 195.604 84.0795C195.598 84.9034 195.357 85.6307 194.879 86.2614C194.408 86.8864 193.751 87.375 192.911 87.7273C192.07 88.0795 191.104 88.2557 190.013 88.2557C188.411 88.2557 187.121 87.9205 186.143 87.25C185.166 86.5739 184.584 85.6335 184.396 84.429L187.405 84.1392C187.541 84.7301 187.831 85.1761 188.274 85.4773C188.717 85.7784 189.294 85.929 190.004 85.929C190.737 85.929 191.325 85.7784 191.768 85.4773C192.217 85.1761 192.442 84.804 192.442 84.3608C192.442 83.9858 192.297 83.6761 192.007 83.4318C191.723 83.1875 191.28 83 190.678 82.8693L188.445 82.4006C187.189 82.1392 186.26 81.6989 185.658 81.0795C185.055 80.4545 184.757 79.6648 184.763 78.7102C184.757 77.9034 184.976 77.2045 185.419 76.6136C185.868 76.017 186.49 75.5568 187.286 75.233C188.087 74.9034 189.01 74.7386 190.055 74.7386C191.589 74.7386 192.797 75.0653 193.678 75.7188C194.564 76.3722 195.112 77.2557 195.322 78.3693ZM208.494 78.3693L205.682 78.6761C205.602 78.392 205.463 78.125 205.264 77.875C205.071 77.625 204.81 77.4233 204.48 77.2699C204.151 77.1165 203.747 77.0398 203.27 77.0398C202.628 77.0398 202.088 77.179 201.651 77.4574C201.219 77.7358 201.006 78.0966 201.011 78.5398C201.006 78.9205 201.145 79.2301 201.429 79.4688C201.719 79.7074 202.196 79.9034 202.861 80.0568L205.094 80.5341C206.332 80.8011 207.253 81.2244 207.855 81.804C208.463 82.3835 208.77 83.142 208.776 84.0795C208.77 84.9034 208.528 85.6307 208.051 86.2614C207.58 86.8864 206.923 87.375 206.082 87.7273C205.241 88.0795 204.276 88.2557 203.185 88.2557C201.582 88.2557 200.293 87.9205 199.315 87.25C198.338 86.5739 197.756 85.6335 197.568 84.429L200.577 84.1392C200.713 84.7301 201.003 85.1761 201.446 85.4773C201.889 85.7784 202.466 85.929 203.176 85.929C203.909 85.929 204.497 85.7784 204.94 85.4773C205.389 85.1761 205.614 84.804 205.614 84.3608C205.614 83.9858 205.469 83.6761 205.179 83.4318C204.895 83.1875 204.452 83 203.849 82.8693L201.616 82.4006C200.361 82.1392 199.432 81.6989 198.83 81.0795C198.227 80.4545 197.929 79.6648 197.935 78.7102C197.929 77.9034 198.148 77.2045 198.591 76.6136C199.04 76.017 199.662 75.5568 200.457 75.233C201.259 74.9034 202.182 74.7386 203.227 74.7386C204.761 74.7386 205.969 75.0653 206.849 75.7188C207.736 76.3722 208.284 77.2557 208.494 78.3693Z" fill="black"/>
<path d="M167.001 171.5L389.501 171.996L612.001 172.491M167.001 245.509L612.001 246.5M167.001 332.009L389.501 332.504L612.001 333M167.001 411.509L389.501 412.004L612.001 412.5" stroke="black"/>
<path d="M108.663 176.239C107.436 176.239 106.345 176.028 105.39 175.608C104.441 175.187 103.691 174.602 103.14 173.852C102.589 173.102 102.297 172.236 102.262 171.253H105.467C105.495 171.724 105.652 172.136 105.936 172.489C106.22 172.835 106.598 173.105 107.069 173.298C107.541 173.491 108.069 173.588 108.654 173.588C109.279 173.588 109.833 173.48 110.316 173.264C110.799 173.043 111.177 172.736 111.45 172.344C111.723 171.952 111.856 171.5 111.85 170.989C111.856 170.46 111.72 169.994 111.441 169.591C111.163 169.187 110.76 168.872 110.231 168.645C109.708 168.418 109.078 168.304 108.339 168.304H106.797V165.866H108.339C108.947 165.866 109.478 165.761 109.933 165.551C110.393 165.341 110.754 165.045 111.015 164.665C111.277 164.278 111.404 163.832 111.399 163.327C111.404 162.832 111.294 162.403 111.066 162.04C110.845 161.67 110.529 161.384 110.12 161.179C109.717 160.974 109.243 160.872 108.697 160.872C108.163 160.872 107.669 160.969 107.214 161.162C106.76 161.355 106.393 161.631 106.115 161.989C105.836 162.341 105.689 162.761 105.672 163.25H102.629C102.652 162.273 102.933 161.415 103.473 160.676C104.018 159.932 104.745 159.352 105.654 158.938C106.564 158.517 107.583 158.307 108.714 158.307C109.879 158.307 110.89 158.526 111.748 158.963C112.612 159.395 113.279 159.977 113.751 160.71C114.223 161.443 114.458 162.253 114.458 163.139C114.464 164.122 114.174 164.946 113.589 165.611C113.01 166.276 112.248 166.71 111.305 166.915V167.051C112.532 167.222 113.473 167.676 114.126 168.415C114.785 169.148 115.112 170.06 115.106 171.151C115.106 172.128 114.828 173.003 114.271 173.776C113.72 174.543 112.958 175.145 111.987 175.582C111.021 176.02 109.913 176.239 108.663 176.239ZM124.483 176.332C123.08 176.332 121.875 175.977 120.87 175.267C119.87 174.551 119.1 173.52 118.56 172.173C118.026 170.821 117.759 169.193 117.759 167.29C117.765 165.386 118.034 163.767 118.569 162.432C119.108 161.091 119.878 160.068 120.878 159.364C121.884 158.659 123.086 158.307 124.483 158.307C125.881 158.307 127.083 158.659 128.088 159.364C129.094 160.068 129.864 161.091 130.398 162.432C130.938 163.773 131.208 165.392 131.208 167.29C131.208 169.199 130.938 170.83 130.398 172.182C129.864 173.528 129.094 174.557 128.088 175.267C127.088 175.977 125.887 176.332 124.483 176.332ZM124.483 173.665C125.574 173.665 126.435 173.128 127.066 172.054C127.702 170.974 128.02 169.386 128.02 167.29C128.02 165.903 127.875 164.739 127.586 163.795C127.296 162.852 126.887 162.142 126.358 161.665C125.83 161.182 125.205 160.94 124.483 160.94C123.398 160.94 122.54 161.48 121.909 162.56C121.279 163.634 120.961 165.21 120.955 167.29C120.949 168.682 121.088 169.852 121.373 170.801C121.662 171.75 122.071 172.466 122.6 172.949C123.128 173.426 123.756 173.665 124.483 173.665ZM136.886 171.892L136.877 168.168H137.372L142.076 162.909H145.681L139.895 169.352H139.255L136.886 171.892ZM134.074 176V158.545H137.159V176H134.074ZM142.289 176L138.028 170.043L140.108 167.869L145.98 176H142.289Z" fill="black"/>
<path d="M102.762 252V249.716L108.822 243.776C109.401 243.19 109.884 242.67 110.271 242.216C110.657 241.761 110.947 241.321 111.14 240.895C111.333 240.469 111.43 240.014 111.43 239.531C111.43 238.98 111.305 238.509 111.055 238.116C110.805 237.719 110.461 237.412 110.023 237.196C109.586 236.98 109.089 236.872 108.532 236.872C107.958 236.872 107.455 236.991 107.023 237.23C106.592 237.463 106.256 237.795 106.018 238.227C105.785 238.659 105.668 239.173 105.668 239.77H102.66C102.66 238.662 102.913 237.699 103.418 236.881C103.924 236.062 104.62 235.429 105.506 234.98C106.398 234.531 107.421 234.307 108.575 234.307C109.745 234.307 110.773 234.526 111.66 234.963C112.546 235.401 113.234 236 113.722 236.761C114.217 237.523 114.464 238.392 114.464 239.369C114.464 240.023 114.339 240.665 114.089 241.295C113.839 241.926 113.398 242.625 112.768 243.392C112.143 244.159 111.265 245.088 110.134 246.179L107.126 249.239V249.358H114.728V252H102.762ZM124.12 252.332C122.717 252.332 121.512 251.977 120.506 251.267C119.506 250.551 118.737 249.52 118.197 248.173C117.663 246.821 117.396 245.193 117.396 243.29C117.401 241.386 117.671 239.767 118.205 238.432C118.745 237.091 119.515 236.068 120.515 235.364C121.521 234.659 122.722 234.307 124.12 234.307C125.518 234.307 126.719 234.659 127.725 235.364C128.731 236.068 129.501 237.091 130.035 238.432C130.575 239.773 130.844 241.392 130.844 243.29C130.844 245.199 130.575 246.83 130.035 248.182C129.501 249.528 128.731 250.557 127.725 251.267C126.725 251.977 125.523 252.332 124.12 252.332ZM124.12 249.665C125.211 249.665 126.072 249.128 126.702 248.054C127.339 246.974 127.657 245.386 127.657 243.29C127.657 241.903 127.512 240.739 127.222 239.795C126.933 238.852 126.523 238.142 125.995 237.665C125.467 237.182 124.842 236.94 124.12 236.94C123.035 236.94 122.177 237.48 121.546 238.56C120.915 239.634 120.597 241.21 120.592 243.29C120.586 244.682 120.725 245.852 121.009 246.801C121.299 247.75 121.708 248.466 122.237 248.949C122.765 249.426 123.393 249.665 124.12 249.665ZM136.523 247.892L136.514 244.168H137.009L141.713 238.909H145.318L139.531 245.352H138.892L136.523 247.892ZM133.71 252V234.545H136.795V252H133.71ZM141.926 252L137.665 246.043L139.744 243.869L145.616 252H141.926Z" fill="black"/>
<path d="M101.549 320.545V338H98.3871V323.622H98.2848L94.2024 326.23V323.332L98.5405 320.545H101.549ZM112.433 338.332C111.029 338.332 109.825 337.977 108.819 337.267C107.819 336.551 107.049 335.52 106.509 334.173C105.975 332.821 105.708 331.193 105.708 329.29C105.714 327.386 105.984 325.767 106.518 324.432C107.058 323.091 107.827 322.068 108.827 321.364C109.833 320.659 111.035 320.307 112.433 320.307C113.83 320.307 115.032 320.659 116.038 321.364C117.043 322.068 117.813 323.091 118.347 324.432C118.887 325.773 119.157 327.392 119.157 329.29C119.157 331.199 118.887 332.83 118.347 334.182C117.813 335.528 117.043 336.557 116.038 337.267C115.038 337.977 113.836 338.332 112.433 338.332ZM112.433 335.665C113.523 335.665 114.384 335.128 115.015 334.054C115.651 332.974 115.969 331.386 115.969 329.29C115.969 327.903 115.825 326.739 115.535 325.795C115.245 324.852 114.836 324.142 114.308 323.665C113.779 323.182 113.154 322.94 112.433 322.94C111.347 322.94 110.489 323.48 109.859 324.56C109.228 325.634 108.91 327.21 108.904 329.29C108.898 330.682 109.038 331.852 109.322 332.801C109.612 333.75 110.021 334.466 110.549 334.949C111.077 335.426 111.705 335.665 112.433 335.665ZM124.835 333.892L124.827 330.168H125.321L130.026 324.909H133.631L127.844 331.352H127.205L124.835 333.892ZM122.023 338V320.545H125.108V338H122.023ZM130.239 338L125.977 332.043L128.057 329.869L133.929 338H130.239Z" fill="black"/>
<path d="M115.999 419.332C114.596 419.332 113.391 418.977 112.385 418.267C111.385 417.551 110.615 416.52 110.076 415.173C109.542 413.821 109.275 412.193 109.275 410.29C109.28 408.386 109.55 406.767 110.084 405.432C110.624 404.091 111.394 403.068 112.394 402.364C113.4 401.659 114.601 401.307 115.999 401.307C117.397 401.307 118.598 401.659 119.604 402.364C120.61 403.068 121.38 404.091 121.914 405.432C122.453 406.773 122.723 408.392 122.723 410.29C122.723 412.199 122.453 413.83 121.914 415.182C121.38 416.528 120.61 417.557 119.604 418.267C118.604 418.977 117.402 419.332 115.999 419.332ZM115.999 416.665C117.09 416.665 117.951 416.128 118.581 415.054C119.218 413.974 119.536 412.386 119.536 410.29C119.536 408.903 119.391 407.739 119.101 406.795C118.811 405.852 118.402 405.142 117.874 404.665C117.346 404.182 116.721 403.94 115.999 403.94C114.914 403.94 114.056 404.48 113.425 405.56C112.794 406.634 112.476 408.21 112.471 410.29C112.465 411.682 112.604 412.852 112.888 413.801C113.178 414.75 113.587 415.466 114.115 415.949C114.644 416.426 115.272 416.665 115.999 416.665Z" fill="black"/>
<path d="M181.136 422.818H183.393L186.416 430.196H186.535L189.558 422.818H191.815V433H190.045V426.005H189.951L187.137 432.97H185.814L183 425.99H182.906V433H181.136V422.818ZM197.075 433.149C196.329 433.149 195.683 432.985 195.136 432.657C194.589 432.329 194.165 431.87 193.863 431.28C193.565 430.69 193.416 430 193.416 429.212C193.416 428.423 193.565 427.732 193.863 427.138C194.165 426.545 194.589 426.085 195.136 425.756C195.683 425.428 196.329 425.264 197.075 425.264C197.821 425.264 198.467 425.428 199.014 425.756C199.561 426.085 199.983 426.545 200.282 427.138C200.583 427.732 200.734 428.423 200.734 429.212C200.734 430 200.583 430.69 200.282 431.28C199.983 431.87 199.561 432.329 199.014 432.657C198.467 432.985 197.821 433.149 197.075 433.149ZM197.085 431.707C197.489 431.707 197.827 431.596 198.099 431.374C198.371 431.149 198.573 430.847 198.706 430.469C198.842 430.092 198.91 429.671 198.91 429.207C198.91 428.739 198.842 428.317 198.706 427.939C198.573 427.558 198.371 427.254 198.099 427.029C197.827 426.804 197.489 426.691 197.085 426.691C196.671 426.691 196.326 426.804 196.051 427.029C195.779 427.254 195.575 427.558 195.439 427.939C195.307 428.317 195.241 428.739 195.241 429.207C195.241 429.671 195.307 430.092 195.439 430.469C195.575 430.847 195.779 431.149 196.051 431.374C196.326 431.596 196.671 431.707 197.085 431.707ZM204.061 428.526V433H202.262V425.364H203.982V426.661H204.071C204.247 426.234 204.527 425.894 204.911 425.642C205.299 425.39 205.778 425.264 206.348 425.264C206.875 425.264 207.334 425.377 207.725 425.602C208.12 425.828 208.425 426.154 208.64 426.582C208.859 427.009 208.967 427.528 208.963 428.138V433H207.164V428.416C207.164 427.906 207.031 427.506 206.766 427.218C206.504 426.93 206.141 426.786 205.677 426.786C205.362 426.786 205.082 426.855 204.837 426.994C204.595 427.13 204.404 427.327 204.265 427.586C204.129 427.844 204.061 428.158 204.061 428.526Z" fill="black"/>
<path d="M255.547 424.364V422.818H263.671V424.364H260.524V433H258.694V424.364H255.547ZM268.985 429.788V425.364H270.785V433H269.04V431.643H268.96C268.788 432.07 268.505 432.42 268.11 432.692C267.719 432.964 267.237 433.099 266.664 433.099C266.163 433.099 265.721 432.988 265.336 432.766C264.955 432.541 264.657 432.214 264.441 431.787C264.226 431.356 264.118 430.836 264.118 430.226V425.364H265.918V429.947C265.918 430.431 266.05 430.816 266.316 431.101C266.581 431.386 266.929 431.528 267.36 431.528C267.625 431.528 267.882 431.464 268.13 431.335C268.379 431.205 268.583 431.013 268.742 430.758C268.904 430.499 268.985 430.176 268.985 429.788ZM276.016 433.149C275.251 433.149 274.589 432.99 274.033 432.672C273.479 432.35 273.053 431.896 272.755 431.31C272.457 430.72 272.308 430.025 272.308 429.227C272.308 428.441 272.457 427.752 272.755 427.158C273.057 426.562 273.478 426.098 274.018 425.766C274.558 425.432 275.193 425.264 275.922 425.264C276.393 425.264 276.837 425.34 277.254 425.493C277.675 425.642 278.046 425.874 278.368 426.189C278.693 426.504 278.948 426.905 279.134 427.392C279.319 427.876 279.412 428.453 279.412 429.122V429.674H273.153V428.461H277.687C277.683 428.116 277.609 427.81 277.463 427.541C277.317 427.269 277.113 427.056 276.852 426.9C276.593 426.744 276.291 426.666 275.947 426.666C275.579 426.666 275.256 426.756 274.977 426.935C274.699 427.11 274.482 427.342 274.326 427.631C274.174 427.916 274.096 428.229 274.092 428.57V429.629C274.092 430.073 274.174 430.455 274.336 430.773C274.498 431.088 274.725 431.33 275.017 431.499C275.309 431.664 275.65 431.747 276.041 431.747C276.303 431.747 276.54 431.711 276.752 431.638C276.964 431.562 277.148 431.451 277.304 431.305C277.46 431.159 277.577 430.978 277.657 430.763L279.337 430.952C279.231 431.396 279.029 431.784 278.731 432.115C278.436 432.443 278.058 432.698 277.597 432.881C277.137 433.06 276.61 433.149 276.016 433.149Z" fill="black"/>
<path d="M322.43 435L319.557 424.818H321.54L323.375 432.3H323.469L325.428 424.818H327.233L329.197 432.305H329.286L331.121 424.818H333.104L330.231 435H328.411L326.373 427.856H326.293L324.25 435H322.43ZM336.905 435.149C336.139 435.149 335.478 434.99 334.921 434.672C334.368 434.35 333.942 433.896 333.644 433.31C333.345 432.72 333.196 432.025 333.196 431.227C333.196 430.441 333.345 429.752 333.644 429.158C333.945 428.562 334.366 428.098 334.906 427.766C335.447 427.432 336.081 427.264 336.811 427.264C337.281 427.264 337.725 427.34 338.143 427.493C338.564 427.642 338.935 427.874 339.257 428.189C339.581 428.504 339.837 428.905 340.022 429.392C340.208 429.876 340.301 430.453 340.301 431.122V431.674H334.041V430.461H338.575C338.572 430.116 338.498 429.81 338.352 429.541C338.206 429.269 338.002 429.056 337.74 428.9C337.482 428.744 337.18 428.666 336.835 428.666C336.468 428.666 336.144 428.756 335.866 428.935C335.588 429.11 335.37 429.342 335.215 429.631C335.062 429.916 334.984 430.229 334.981 430.57V431.629C334.981 432.073 335.062 432.455 335.225 432.773C335.387 433.088 335.614 433.33 335.906 433.499C336.197 433.664 336.539 433.747 336.93 433.747C337.192 433.747 337.429 433.711 337.641 433.638C337.853 433.562 338.037 433.451 338.193 433.305C338.348 433.159 338.466 432.978 338.546 432.763L340.226 432.952C340.12 433.396 339.918 433.784 339.619 434.115C339.325 434.443 338.947 434.698 338.486 434.881C338.025 435.06 337.498 435.149 336.905 435.149ZM344.657 435.134C344.057 435.134 343.52 434.98 343.046 434.672C342.572 434.364 342.198 433.916 341.923 433.33C341.647 432.743 341.51 432.03 341.51 431.192C341.51 430.343 341.649 429.627 341.928 429.044C342.209 428.457 342.589 428.015 343.066 427.717C343.543 427.415 344.075 427.264 344.662 427.264C345.109 427.264 345.477 427.34 345.766 427.493C346.054 427.642 346.283 427.823 346.452 428.035C346.621 428.244 346.752 428.441 346.844 428.626H346.919V424.818H348.724V435H346.954V433.797H346.844C346.752 433.982 346.617 434.18 346.442 434.388C346.266 434.594 346.034 434.77 345.746 434.915C345.457 435.061 345.094 435.134 344.657 435.134ZM345.159 433.658C345.54 433.658 345.865 433.555 346.134 433.349C346.402 433.141 346.606 432.851 346.745 432.479C346.884 432.108 346.954 431.676 346.954 431.182C346.954 430.688 346.884 430.259 346.745 429.894C346.609 429.53 346.407 429.246 346.138 429.044C345.873 428.842 345.547 428.741 345.159 428.741C344.758 428.741 344.423 428.845 344.155 429.054C343.886 429.263 343.684 429.551 343.548 429.919C343.412 430.287 343.344 430.708 343.344 431.182C343.344 431.659 343.412 432.085 343.548 432.46C343.688 432.831 343.891 433.124 344.16 433.339C344.432 433.552 344.765 433.658 345.159 433.658Z" fill="black"/>
<path d="M376.884 427.364V425.818H385.008V427.364H381.861V436H380.031V427.364H376.884ZM388.294 431.526V436H386.494V425.818H388.254V429.661H388.343C388.522 429.23 388.799 428.891 389.174 428.642C389.552 428.39 390.032 428.264 390.616 428.264C391.146 428.264 391.608 428.375 392.003 428.597C392.397 428.819 392.702 429.144 392.917 429.572C393.136 429.999 393.245 430.521 393.245 431.138V436H391.446V431.416C391.446 430.902 391.313 430.503 391.048 430.218C390.786 429.93 390.418 429.786 389.944 429.786C389.626 429.786 389.341 429.855 389.089 429.994C388.841 430.13 388.645 430.327 388.503 430.586C388.363 430.844 388.294 431.158 388.294 431.526ZM399.947 432.788V428.364H401.747V436H400.002V434.643H399.922C399.75 435.07 399.467 435.42 399.072 435.692C398.681 435.964 398.199 436.099 397.625 436.099C397.125 436.099 396.682 435.988 396.298 435.766C395.917 435.541 395.619 435.214 395.403 434.787C395.188 434.356 395.08 433.836 395.08 433.226V428.364H396.88V432.947C396.88 433.431 397.012 433.816 397.277 434.101C397.543 434.386 397.891 434.528 398.321 434.528C398.587 434.528 398.843 434.464 399.092 434.335C399.341 434.205 399.544 434.013 399.704 433.758C399.866 433.499 399.947 433.176 399.947 432.788Z" fill="black"/>
<path d="M432.357 437V426.818H438.88V428.364H434.201V431.129H438.432V432.675H434.201V437H432.357ZM440.371 437V429.364H442.116V430.636H442.196C442.335 430.196 442.573 429.856 442.911 429.617C443.253 429.375 443.642 429.254 444.08 429.254C444.179 429.254 444.29 429.259 444.413 429.269C444.539 429.276 444.643 429.287 444.726 429.304V430.96C444.65 430.933 444.529 430.91 444.363 430.89C444.201 430.867 444.043 430.855 443.891 430.855C443.563 430.855 443.268 430.926 443.006 431.069C442.747 431.208 442.544 431.402 442.394 431.651C442.245 431.899 442.171 432.186 442.171 432.511V437H440.371ZM445.922 437V429.364H447.722V437H445.922ZM446.827 428.28C446.542 428.28 446.296 428.185 446.091 427.996C445.885 427.804 445.783 427.574 445.783 427.305C445.783 427.034 445.885 426.803 446.091 426.614C446.296 426.422 446.542 426.326 446.827 426.326C447.115 426.326 447.36 426.422 447.562 426.614C447.768 426.803 447.871 427.034 447.871 427.305C447.871 427.574 447.768 427.804 447.562 427.996C447.36 428.185 447.115 428.28 446.827 428.28Z" fill="black"/>
<path d="M492.813 428.617C492.767 428.183 492.571 427.845 492.226 427.603C491.885 427.361 491.441 427.24 490.894 427.24C490.51 427.24 490.18 427.298 489.905 427.414C489.63 427.53 489.419 427.687 489.273 427.886C489.127 428.085 489.053 428.312 489.05 428.567C489.05 428.78 489.098 428.964 489.194 429.119C489.293 429.275 489.427 429.408 489.596 429.517C489.765 429.623 489.953 429.713 490.158 429.786C490.364 429.858 490.571 429.92 490.78 429.969L491.734 430.208C492.119 430.298 492.488 430.419 492.843 430.571C493.201 430.723 493.521 430.916 493.802 431.148C494.087 431.38 494.313 431.66 494.479 431.988C494.644 432.316 494.727 432.701 494.727 433.141C494.727 433.738 494.575 434.263 494.27 434.717C493.965 435.168 493.524 435.521 492.947 435.776C492.374 436.028 491.68 436.154 490.864 436.154C490.072 436.154 489.384 436.031 488.801 435.786C488.221 435.541 487.767 435.183 487.439 434.712C487.114 434.242 486.938 433.668 486.912 432.992H488.726C488.753 433.347 488.862 433.642 489.055 433.877C489.247 434.112 489.497 434.288 489.805 434.404C490.117 434.52 490.465 434.578 490.849 434.578C491.25 434.578 491.602 434.518 491.903 434.399C492.208 434.277 492.447 434.107 492.619 433.892C492.791 433.673 492.879 433.418 492.883 433.126C492.879 432.861 492.801 432.643 492.649 432.47C492.497 432.295 492.283 432.149 492.008 432.033C491.736 431.913 491.418 431.807 491.053 431.714L489.895 431.416C489.056 431.201 488.393 430.874 487.906 430.437C487.422 429.996 487.18 429.411 487.18 428.682C487.18 428.082 487.343 427.557 487.667 427.106C487.996 426.655 488.441 426.305 489.005 426.057C489.568 425.805 490.206 425.679 490.919 425.679C491.641 425.679 492.274 425.805 492.818 426.057C493.365 426.305 493.794 426.652 494.106 427.096C494.417 427.537 494.578 428.044 494.588 428.617H492.813ZM498.489 436.154C498.005 436.154 497.57 436.068 497.182 435.896C496.797 435.72 496.492 435.461 496.267 435.12C496.045 434.779 495.934 434.358 495.934 433.857C495.934 433.426 496.013 433.07 496.173 432.788C496.332 432.507 496.549 432.281 496.824 432.112C497.099 431.943 497.409 431.816 497.754 431.729C498.102 431.64 498.461 431.575 498.832 431.536C499.28 431.489 499.643 431.448 499.921 431.411C500.2 431.371 500.402 431.312 500.528 431.232C500.657 431.149 500.722 431.022 500.722 430.849V430.82C500.722 430.445 500.611 430.155 500.388 429.95C500.166 429.744 499.847 429.641 499.429 429.641C498.988 429.641 498.638 429.737 498.38 429.93C498.125 430.122 497.952 430.349 497.863 430.611L496.183 430.372C496.315 429.908 496.534 429.52 496.839 429.209C497.144 428.894 497.517 428.659 497.957 428.503C498.398 428.344 498.885 428.264 499.419 428.264C499.787 428.264 500.153 428.307 500.518 428.393C500.882 428.48 501.215 428.622 501.517 428.821C501.819 429.017 502.061 429.283 502.243 429.621C502.429 429.96 502.521 430.382 502.521 430.889V436H500.791V434.951H500.732C500.622 435.163 500.468 435.362 500.269 435.548C500.074 435.73 499.827 435.877 499.528 435.99C499.233 436.099 498.887 436.154 498.489 436.154ZM498.957 434.832C499.318 434.832 499.631 434.76 499.896 434.618C500.161 434.472 500.365 434.28 500.508 434.041C500.654 433.803 500.727 433.542 500.727 433.261V432.361C500.67 432.407 500.574 432.45 500.438 432.49C500.306 432.53 500.156 432.565 499.991 432.594C499.825 432.624 499.661 432.651 499.499 432.674C499.336 432.697 499.195 432.717 499.076 432.734C498.808 432.77 498.567 432.83 498.355 432.913C498.143 432.996 497.976 433.112 497.853 433.261C497.73 433.406 497.669 433.595 497.669 433.827C497.669 434.159 497.79 434.409 498.032 434.578C498.274 434.747 498.582 434.832 498.957 434.832ZM508.144 428.364V429.756H503.754V428.364H508.144ZM504.838 426.534H506.638V433.703C506.638 433.945 506.674 434.131 506.747 434.26C506.823 434.386 506.923 434.472 507.045 434.518C507.168 434.565 507.304 434.588 507.453 434.588C507.566 434.588 507.669 434.58 507.761 434.563C507.857 434.547 507.93 434.532 507.98 434.518L508.283 435.925C508.187 435.959 508.05 435.995 507.871 436.035C507.695 436.075 507.48 436.098 507.224 436.104C506.774 436.118 506.368 436.05 506.006 435.901C505.645 435.748 505.358 435.513 505.146 435.195C504.938 434.876 504.835 434.479 504.838 434.001V426.534Z" fill="black"/>
<path d="M554.967 430.617C554.921 430.183 554.725 429.845 554.381 429.603C554.039 429.361 553.595 429.24 553.048 429.24C552.664 429.24 552.334 429.298 552.059 429.414C551.784 429.53 551.573 429.687 551.428 429.886C551.282 430.085 551.207 430.312 551.204 430.567C551.204 430.78 551.252 430.964 551.348 431.119C551.447 431.275 551.582 431.408 551.751 431.517C551.92 431.623 552.107 431.713 552.312 431.786C552.518 431.858 552.725 431.92 552.934 431.969L553.888 432.208C554.273 432.298 554.643 432.419 554.997 432.571C555.355 432.723 555.675 432.916 555.957 433.148C556.242 433.38 556.467 433.66 556.633 433.988C556.799 434.316 556.881 434.701 556.881 435.141C556.881 435.738 556.729 436.263 556.424 436.717C556.119 437.168 555.678 437.521 555.102 437.776C554.528 438.028 553.834 438.154 553.018 438.154C552.226 438.154 551.539 438.031 550.955 437.786C550.375 437.541 549.921 437.183 549.593 436.712C549.268 436.242 549.093 435.668 549.066 434.992H550.881C550.907 435.347 551.017 435.642 551.209 435.877C551.401 436.112 551.651 436.288 551.96 436.404C552.271 436.52 552.619 436.578 553.004 436.578C553.405 436.578 553.756 436.518 554.058 436.399C554.362 436.277 554.601 436.107 554.773 435.892C554.946 435.673 555.034 435.418 555.037 435.126C555.034 434.861 554.956 434.643 554.803 434.47C554.651 434.295 554.437 434.149 554.162 434.033C553.89 433.913 553.572 433.807 553.207 433.714L552.049 433.416C551.21 433.201 550.548 432.874 550.06 432.437C549.576 431.996 549.335 431.411 549.335 430.682C549.335 430.082 549.497 429.557 549.822 429.106C550.15 428.655 550.596 428.305 551.159 428.057C551.723 427.805 552.361 427.679 553.073 427.679C553.796 427.679 554.429 427.805 554.972 428.057C555.519 428.305 555.948 428.652 556.26 429.096C556.571 429.537 556.732 430.044 556.742 430.617H554.967ZM563.313 434.788V430.364H565.113V438H563.368V436.643H563.289C563.116 437.07 562.833 437.42 562.438 437.692C562.047 437.964 561.565 438.099 560.992 438.099C560.491 438.099 560.049 437.988 559.664 437.766C559.283 437.541 558.985 437.214 558.769 436.787C558.554 436.356 558.446 435.836 558.446 435.226V430.364H560.246V434.947C560.246 435.431 560.378 435.816 560.644 436.101C560.909 436.386 561.257 436.528 561.688 436.528C561.953 436.528 562.21 436.464 562.458 436.335C562.707 436.205 562.911 436.013 563.07 435.758C563.232 435.499 563.313 435.176 563.313 434.788ZM568.763 433.526V438H566.964V430.364H568.684V431.661H568.773C568.949 431.234 569.229 430.894 569.614 430.642C570.001 430.39 570.48 430.264 571.05 430.264C571.577 430.264 572.036 430.377 572.428 430.602C572.822 430.828 573.127 431.154 573.342 431.582C573.561 432.009 573.669 432.528 573.665 433.138V438H571.866V433.416C571.866 432.906 571.733 432.506 571.468 432.218C571.206 431.93 570.843 431.786 570.379 431.786C570.064 431.786 569.784 431.855 569.539 431.994C569.297 432.13 569.107 432.327 568.967 432.586C568.831 432.844 568.763 433.158 568.763 433.526Z" fill="black"/>
<rect x="166" y="284" width="40" height="127" rx="10" fill="#D9D9D9"/>
<rect x="422" y="205" width="40" height="207" rx="10" fill="black"/>
<rect x="366" y="327" width="40" height="84" rx="10" fill="#D9D9D9"/>
<rect x="294" y="294" width="40" height="117" rx="10" fill="#D9D9D9"/>
<rect x="536" y="315" width="40" height="97" rx="10" fill="#D9D9D9"/>
<rect x="236" y="359" width="40" height="52" rx="10" fill="#D9D9D9"/>
<rect x="478" y="359" width="40" height="52" rx="10" fill="#D9D9D9"/>
<rect x="402" y="127" width="79" height="61" rx="14" fill="black"/>
<path d="M422.487 168.818V150.636H423.652V168.818H422.487ZM425.577 156.638C425.52 156.065 425.276 155.62 424.845 155.303C424.414 154.985 423.83 154.827 423.091 154.827C422.589 154.827 422.165 154.898 421.82 155.04C421.474 155.177 421.209 155.369 421.024 155.615C420.844 155.861 420.754 156.141 420.754 156.453C420.745 156.714 420.799 156.941 420.918 157.135C421.041 157.329 421.209 157.497 421.422 157.639C421.635 157.777 421.881 157.897 422.161 158.001C422.44 158.101 422.738 158.186 423.055 158.257L424.362 158.57C424.997 158.712 425.579 158.901 426.109 159.138C426.64 159.375 427.099 159.666 427.487 160.011C427.875 160.357 428.176 160.764 428.389 161.233C428.607 161.702 428.718 162.239 428.723 162.845C428.718 163.735 428.491 164.507 428.041 165.161C427.596 165.809 426.952 166.313 426.109 166.673C425.271 167.028 424.26 167.206 423.077 167.206C421.902 167.206 420.88 167.026 420.009 166.666C419.142 166.306 418.465 165.774 417.977 165.068C417.494 164.358 417.241 163.48 417.217 162.433H420.193C420.226 162.921 420.366 163.328 420.612 163.655C420.863 163.977 421.197 164.221 421.614 164.386C422.035 164.547 422.511 164.628 423.041 164.628C423.562 164.628 424.014 164.552 424.398 164.401C424.786 164.249 425.087 164.038 425.3 163.768C425.513 163.499 425.619 163.188 425.619 162.838C425.619 162.511 425.522 162.237 425.328 162.014C425.139 161.792 424.859 161.602 424.49 161.446C424.125 161.29 423.678 161.148 423.148 161.02L421.564 160.622C420.338 160.324 419.369 159.857 418.659 159.223C417.949 158.589 417.596 157.734 417.601 156.659C417.596 155.778 417.83 155.009 418.304 154.351C418.782 153.693 419.438 153.179 420.271 152.81C421.105 152.44 422.052 152.256 423.112 152.256C424.192 152.256 425.134 152.44 425.939 152.81C426.749 153.179 427.378 153.693 427.828 154.351C428.278 155.009 428.51 155.771 428.524 156.638H425.577ZM435.335 167V164.784L440.513 159.99C440.953 159.564 441.322 159.18 441.621 158.839C441.924 158.499 442.153 158.165 442.31 157.838C442.466 157.507 442.544 157.149 442.544 156.766C442.544 156.339 442.447 155.973 442.253 155.665C442.059 155.352 441.794 155.113 441.457 154.947C441.121 154.777 440.74 154.692 440.314 154.692C439.869 154.692 439.481 154.782 439.149 154.962C438.818 155.142 438.562 155.4 438.382 155.736C438.202 156.072 438.112 156.472 438.112 156.936H435.193C435.193 155.984 435.409 155.158 435.839 154.457C436.27 153.757 436.874 153.214 437.651 152.831C438.427 152.447 439.322 152.256 440.335 152.256C441.377 152.256 442.284 152.44 443.055 152.81C443.832 153.174 444.436 153.681 444.866 154.33C445.297 154.978 445.513 155.722 445.513 156.56C445.513 157.109 445.404 157.651 445.186 158.186C444.973 158.721 444.592 159.315 444.043 159.969C443.493 160.617 442.719 161.396 441.72 162.305L439.597 164.386V164.486H445.705V167H435.335ZM453.309 167.199C452.249 167.199 451.304 167.017 450.475 166.652C449.652 166.283 449.001 165.776 448.522 165.132C448.049 164.483 447.805 163.735 447.791 162.888H450.887C450.906 163.243 451.022 163.555 451.235 163.825C451.453 164.09 451.742 164.296 452.102 164.443C452.462 164.59 452.867 164.663 453.316 164.663C453.785 164.663 454.199 164.58 454.559 164.415C454.919 164.249 455.201 164.019 455.404 163.726C455.608 163.432 455.71 163.094 455.71 162.71C455.71 162.322 455.601 161.979 455.383 161.68C455.17 161.377 454.862 161.141 454.46 160.97C454.062 160.8 453.589 160.714 453.039 160.714H451.683V158.456H453.039C453.503 158.456 453.913 158.375 454.268 158.214C454.628 158.054 454.907 157.831 455.106 157.547C455.305 157.258 455.404 156.922 455.404 156.538C455.404 156.174 455.317 155.854 455.142 155.58C454.971 155.3 454.73 155.082 454.417 154.926C454.109 154.77 453.75 154.692 453.338 154.692C452.921 154.692 452.54 154.768 452.194 154.919C451.849 155.066 451.572 155.277 451.363 155.551C451.155 155.826 451.044 156.148 451.029 156.517H448.082C448.096 155.679 448.335 154.94 448.799 154.301C449.263 153.662 449.888 153.162 450.674 152.803C451.465 152.438 452.358 152.256 453.352 152.256C454.356 152.256 455.234 152.438 455.987 152.803C456.74 153.167 457.324 153.66 457.741 154.28C458.163 154.895 458.371 155.587 458.366 156.354C458.371 157.168 458.118 157.848 457.606 158.392C457.1 158.937 456.439 159.282 455.625 159.429V159.543C456.695 159.68 457.509 160.052 458.068 160.658C458.631 161.259 458.911 162.012 458.906 162.916C458.911 163.745 458.672 164.481 458.189 165.125C457.71 165.769 457.05 166.276 456.207 166.645C455.364 167.014 454.398 167.199 453.309 167.199ZM463.886 163.861L463.893 160.232H464.334L467.828 156.091H471.301L466.607 161.574H465.889L463.886 163.861ZM461.145 167V152.455H464.17V167H461.145ZM467.963 167L464.753 162.249L466.77 160.111L471.507 167H467.963Z" fill="#F5F5F5"/>
<path d="M538.342 668.199C537.447 668.199 536.647 668.038 535.942 667.716C535.236 667.389 534.678 666.937 534.266 666.359C533.854 665.782 533.636 665.116 533.612 664.364H534.955C534.978 664.894 535.142 665.358 535.445 665.756C535.748 666.149 536.15 666.456 536.652 666.679C537.154 666.897 537.713 667.006 538.328 667.006C539 667.006 539.592 666.88 540.104 666.629C540.62 666.378 541.022 666.035 541.311 665.599C541.605 665.159 541.751 664.662 541.751 664.108C541.751 663.521 541.602 663.002 541.304 662.553C541.006 662.103 540.577 661.752 540.018 661.501C539.464 661.25 538.802 661.125 538.03 661.125H537.178V659.932H538.03C538.66 659.932 539.216 659.818 539.699 659.591C540.187 659.359 540.57 659.035 540.849 658.618C541.129 658.201 541.268 657.711 541.268 657.148C541.268 656.613 541.148 656.142 540.906 655.734C540.665 655.327 540.324 655.008 539.884 654.776C539.448 654.544 538.939 654.428 538.357 654.428C537.793 654.428 537.277 654.536 536.808 654.754C536.339 654.972 535.961 655.28 535.672 655.678C535.388 656.075 535.236 656.546 535.217 657.091H533.932C533.951 656.333 534.159 655.668 534.557 655.095C534.959 654.518 535.492 654.068 536.155 653.746C536.822 653.419 537.561 653.256 538.371 653.256C539.228 653.256 539.969 653.431 540.594 653.781C541.219 654.132 541.702 654.598 542.043 655.18C542.388 655.758 542.561 656.395 542.561 657.091C542.561 657.92 542.336 658.63 541.886 659.222C541.437 659.809 540.83 660.216 540.068 660.443V660.536C540.996 660.72 541.725 661.132 542.256 661.771C542.791 662.406 543.058 663.185 543.058 664.108C543.058 664.884 542.855 665.583 542.447 666.203C542.04 666.819 541.482 667.306 540.771 667.666C540.066 668.021 539.256 668.199 538.342 668.199ZM546.728 668.107C546.449 668.107 546.208 668.007 546.004 667.808C545.805 667.605 545.706 667.363 545.706 667.084C545.706 666.8 545.805 666.558 546.004 666.359C546.208 666.161 546.449 666.061 546.728 666.061C547.012 666.061 547.254 666.161 547.453 666.359C547.652 666.558 547.751 666.8 547.751 667.084C547.751 667.268 547.704 667.439 547.609 667.595C547.519 667.751 547.396 667.877 547.24 667.972C547.088 668.062 546.918 668.107 546.728 668.107ZM553.831 653.455V668H552.502V654.847H552.417L549.008 657.112V655.734L552.446 653.455H553.831ZM565.606 665.301V664.641C565.606 664.096 565.715 663.606 565.933 663.17C566.151 662.73 566.461 662.382 566.863 662.126C567.266 661.871 567.744 661.743 568.298 661.743C568.857 661.743 569.335 661.871 569.733 662.126C570.13 662.382 570.436 662.73 570.649 663.17C570.862 663.606 570.968 664.096 570.968 664.641V665.301C570.968 665.846 570.859 666.336 570.642 666.771C570.429 667.207 570.123 667.555 569.725 667.815C569.328 668.071 568.852 668.199 568.298 668.199C567.734 668.199 567.252 668.071 566.849 667.815C566.451 667.555 566.144 667.207 565.926 666.771C565.713 666.336 565.606 665.846 565.606 665.301ZM566.721 664.641V665.301C566.721 665.836 566.851 666.293 567.112 666.672C567.377 667.046 567.772 667.233 568.298 667.233C568.809 667.233 569.195 667.046 569.456 666.672C569.716 666.293 569.846 665.836 569.846 665.301V664.641C569.846 664.106 569.718 663.651 569.463 663.277C569.207 662.898 568.819 662.709 568.298 662.709C567.782 662.709 567.389 662.898 567.119 663.277C566.854 663.651 566.721 664.106 566.721 664.641ZM558.277 656.814V656.153C558.277 655.609 558.386 655.119 558.603 654.683C558.821 654.248 559.131 653.902 559.534 653.646C559.936 653.386 560.414 653.256 560.968 653.256C561.527 653.256 562.005 653.386 562.403 653.646C562.801 653.902 563.106 654.248 563.319 654.683C563.532 655.119 563.639 655.609 563.639 656.153V656.814C563.639 657.358 563.53 657.851 563.312 658.291C563.099 658.727 562.794 659.072 562.396 659.328C561.998 659.584 561.522 659.712 560.968 659.712C560.405 659.712 559.922 659.584 559.52 659.328C559.122 659.072 558.814 658.727 558.596 658.291C558.383 657.851 558.277 657.358 558.277 656.814ZM559.392 656.153V656.814C559.392 657.349 559.522 657.806 559.782 658.185C560.047 658.559 560.443 658.746 560.968 658.746C561.48 658.746 561.866 658.559 562.126 658.185C562.386 657.806 562.517 657.349 562.517 656.814V656.153C562.517 655.618 562.389 655.164 562.133 654.79C561.877 654.411 561.489 654.222 560.968 654.222C560.452 654.222 560.059 654.411 559.789 654.79C559.524 655.164 559.392 655.618 559.392 656.153ZM558.93 668L568.923 653.455H570.18L560.187 668H558.93ZM533.953 677.455L538.499 690.274H538.626L543.172 677.455H544.564L539.273 692H537.852L532.561 677.455H533.953ZM553.206 683.484L552.048 683.811C551.934 683.484 551.773 683.188 551.565 682.923C551.357 682.658 551.084 682.447 550.748 682.291C550.417 682.135 550.005 682.057 549.512 682.057C548.774 682.057 548.168 682.232 547.694 682.582C547.221 682.933 546.984 683.385 546.984 683.939C546.984 684.408 547.145 684.789 547.467 685.082C547.794 685.371 548.296 685.601 548.973 685.771L550.62 686.176C551.534 686.399 552.218 686.751 552.673 687.234C553.132 687.717 553.362 688.323 553.362 689.053C553.362 689.668 553.191 690.215 552.85 690.693C552.51 691.171 552.034 691.548 551.423 691.822C550.817 692.092 550.114 692.227 549.314 692.227C548.248 692.227 547.37 691.988 546.679 691.51C545.987 691.027 545.545 690.331 545.35 689.422L546.565 689.124C546.721 689.772 547.027 690.262 547.481 690.594C547.94 690.925 548.544 691.091 549.292 691.091C550.13 691.091 550.8 690.904 551.302 690.53C551.804 690.151 552.055 689.678 552.055 689.109C552.055 688.669 551.908 688.3 551.615 688.001C551.321 687.698 550.876 687.476 550.279 687.334L548.497 686.908C547.55 686.68 546.849 686.321 546.395 685.828C545.94 685.336 545.713 684.725 545.713 683.996C545.713 683.394 545.876 682.866 546.203 682.412C546.529 681.953 546.979 681.593 547.552 681.332C548.125 681.072 548.779 680.942 549.512 680.942C550.511 680.942 551.309 681.169 551.906 681.624C552.507 682.073 552.94 682.694 553.206 683.484ZM562.018 692V677.455H563.346V690.807H570.278V692H562.018ZM576.052 692.249C575.394 692.249 574.792 692.121 574.248 691.865C573.703 691.605 573.27 691.231 572.948 690.743C572.626 690.25 572.465 689.654 572.465 688.953C572.465 688.413 572.567 687.959 572.771 687.589C572.974 687.22 573.263 686.917 573.637 686.68C574.011 686.444 574.454 686.257 574.965 686.119C575.477 685.982 576.04 685.875 576.656 685.8C577.266 685.724 577.782 685.658 578.204 685.601C578.63 685.544 578.954 685.454 579.177 685.331C579.399 685.208 579.511 685.009 579.511 684.734V684.479C579.511 683.735 579.288 683.151 578.843 682.724C578.403 682.294 577.768 682.078 576.94 682.078C576.154 682.078 575.512 682.251 575.015 682.597C574.522 682.942 574.177 683.349 573.978 683.818L572.778 683.385C573.024 682.788 573.365 682.312 573.8 681.957C574.236 681.598 574.724 681.339 575.263 681.183C575.803 681.022 576.35 680.942 576.904 680.942C577.321 680.942 577.754 680.996 578.204 681.105C578.658 681.214 579.08 681.403 579.468 681.673C579.856 681.938 580.171 682.31 580.413 682.788C580.654 683.262 580.775 683.863 580.775 684.592V692H579.511V690.274H579.433C579.281 690.596 579.056 690.909 578.758 691.212C578.46 691.515 578.085 691.763 577.636 691.957C577.186 692.152 576.658 692.249 576.052 692.249ZM576.222 691.091C576.895 691.091 577.477 690.942 577.969 690.643C578.462 690.345 578.841 689.95 579.106 689.457C579.376 688.96 579.511 688.413 579.511 687.817V686.24C579.416 686.33 579.257 686.411 579.035 686.482C578.817 686.553 578.564 686.616 578.275 686.673C577.991 686.725 577.707 686.77 577.423 686.808C577.138 686.846 576.883 686.879 576.656 686.908C576.04 686.983 575.514 687.102 575.079 687.263C574.643 687.424 574.309 687.646 574.077 687.93C573.845 688.21 573.729 688.57 573.729 689.01C573.729 689.673 573.966 690.187 574.44 690.551C574.913 690.911 575.507 691.091 576.222 691.091ZM591.467 683.484L590.31 683.811C590.196 683.484 590.035 683.188 589.827 682.923C589.618 682.658 589.346 682.447 589.01 682.291C588.679 682.135 588.267 682.057 587.774 682.057C587.036 682.057 586.429 682.232 585.956 682.582C585.482 682.933 585.246 683.385 585.246 683.939C585.246 684.408 585.407 684.789 585.729 685.082C586.055 685.371 586.557 685.601 587.234 685.771L588.882 686.176C589.796 686.399 590.48 686.751 590.935 687.234C591.394 687.717 591.624 688.323 591.624 689.053C591.624 689.668 591.453 690.215 591.112 690.693C590.771 691.171 590.295 691.548 589.685 691.822C589.079 692.092 588.375 692.227 587.575 692.227C586.51 692.227 585.632 691.988 584.94 691.51C584.249 691.027 583.806 690.331 583.612 689.422L584.827 689.124C584.983 689.772 585.288 690.262 585.743 690.594C586.202 690.925 586.806 691.091 587.554 691.091C588.392 691.091 589.062 690.904 589.564 690.53C590.066 690.151 590.317 689.678 590.317 689.109C590.317 688.669 590.17 688.3 589.876 688.001C589.583 687.698 589.138 687.476 588.541 687.334L586.759 686.908C585.812 686.68 585.111 686.321 584.656 685.828C584.202 685.336 583.974 684.725 583.974 683.996C583.974 683.394 584.138 682.866 584.464 682.412C584.791 681.953 585.241 681.593 585.814 681.332C586.387 681.072 587.04 680.942 587.774 680.942C588.773 680.942 589.571 681.169 590.168 681.624C590.769 682.073 591.202 682.694 591.467 683.484ZM598.689 681.091V682.192H593.483V681.091H598.689ZM595.109 678.477H596.38V689.152C596.38 689.607 596.458 689.964 596.615 690.224C596.771 690.48 596.975 690.662 597.225 690.771C597.476 690.875 597.744 690.928 598.028 690.928C598.194 690.928 598.336 690.918 598.454 690.899C598.573 690.875 598.677 690.852 598.767 690.828L599.037 691.972C598.913 692.019 598.762 692.062 598.582 692.099C598.402 692.142 598.18 692.163 597.914 692.163C597.45 692.163 597.003 692.062 596.572 691.858C596.146 691.654 595.796 691.351 595.521 690.949C595.246 690.546 595.109 690.047 595.109 689.45V678.477ZM609.976 692L605.991 677.455H607.341L610.636 689.962H610.75L614.045 677.455H615.58L618.875 689.962H618.989L622.284 677.455H623.641L619.656 692H618.236L614.862 679.663H614.77L611.396 692H609.976ZM629.173 692.227C628.155 692.227 627.275 691.991 626.531 691.517C625.788 691.039 625.213 690.378 624.805 689.536C624.403 688.688 624.202 687.713 624.202 686.609C624.202 685.511 624.403 684.536 624.805 683.683C625.213 682.826 625.774 682.156 626.489 681.673C627.208 681.186 628.039 680.942 628.982 680.942C629.573 680.942 630.144 681.051 630.693 681.268C631.242 681.482 631.735 681.811 632.17 682.256C632.611 682.696 632.959 683.252 633.214 683.925C633.47 684.592 633.598 685.383 633.598 686.297V686.922H625.075V685.807H632.305C632.305 685.106 632.163 684.476 631.879 683.918C631.6 683.354 631.209 682.909 630.707 682.582C630.21 682.256 629.635 682.092 628.982 682.092C628.29 682.092 627.682 682.277 627.156 682.646C626.631 683.016 626.219 683.503 625.92 684.109C625.627 684.715 625.478 685.378 625.473 686.098V686.766C625.473 687.632 625.622 688.39 625.92 689.038C626.223 689.682 626.652 690.182 627.206 690.537C627.76 690.892 628.416 691.07 629.173 691.07C629.689 691.07 630.142 690.989 630.53 690.828C630.923 690.667 631.252 690.452 631.517 690.182C631.787 689.907 631.991 689.607 632.128 689.28L633.328 689.67C633.162 690.13 632.89 690.554 632.511 690.942C632.137 691.33 631.669 691.643 631.105 691.879C630.546 692.111 629.902 692.227 629.173 692.227ZM640.794 692.227C639.776 692.227 638.896 691.991 638.152 691.517C637.409 691.039 636.834 690.378 636.426 689.536C636.024 688.688 635.823 687.713 635.823 686.609C635.823 685.511 636.024 684.536 636.426 683.683C636.834 682.826 637.395 682.156 638.11 681.673C638.829 681.186 639.66 680.942 640.603 680.942C641.194 680.942 641.765 681.051 642.314 681.268C642.864 681.482 643.356 681.811 643.792 682.256C644.232 682.696 644.58 683.252 644.836 683.925C645.091 684.592 645.219 685.383 645.219 686.297V686.922H636.696V685.807H643.926C643.926 685.106 643.784 684.476 643.5 683.918C643.221 683.354 642.83 682.909 642.328 682.582C641.831 682.256 641.256 682.092 640.603 682.092C639.911 682.092 639.303 682.277 638.777 682.646C638.252 683.016 637.84 683.503 637.542 684.109C637.248 684.715 637.099 685.378 637.094 686.098V686.766C637.094 687.632 637.243 688.39 637.542 689.038C637.845 689.682 638.273 690.182 638.827 690.537C639.381 690.892 640.037 691.07 640.794 691.07C641.31 691.07 641.763 690.989 642.151 690.828C642.544 690.667 642.873 690.452 643.138 690.182C643.408 689.907 643.612 689.607 643.749 689.28L644.949 689.67C644.783 690.13 644.511 690.554 644.132 690.942C643.758 691.33 643.29 691.643 642.726 691.879C642.167 692.111 641.524 692.227 640.794 692.227ZM649.156 687.881L649.141 686.226H649.425L654.539 681.091H656.137L651.087 686.148L650.974 686.169L649.156 687.881ZM648.005 692V677.455H649.269V692H648.005ZM654.802 692L650.37 686.396L651.279 685.523L656.421 692H654.802Z" fill="black"/>
<path d="M59.0511 640.648V639.455H69.598V640.648H64.9886V654H63.6605V640.648H59.0511ZM74.9833 654.227C74.0411 654.227 73.2077 653.988 72.4833 653.51C71.7636 653.032 71.2002 652.371 70.793 651.528C70.3858 650.681 70.1822 649.703 70.1822 648.595C70.1822 647.478 70.3858 646.495 70.793 645.648C71.2002 644.795 71.7636 644.133 72.4833 643.659C73.2077 643.181 74.0411 642.942 74.9833 642.942C75.9255 642.942 76.7565 643.181 77.4762 643.659C78.1959 644.137 78.7594 644.8 79.1665 645.648C79.5785 646.495 79.7844 647.478 79.7844 648.595C79.7844 649.703 79.5808 650.681 79.1737 651.528C78.7665 652.371 78.2006 653.032 77.4762 653.51C76.7565 653.988 75.9255 654.227 74.9833 654.227ZM74.9833 653.07C75.7409 653.07 76.3825 652.866 76.908 652.459C77.4336 652.052 77.8313 651.509 78.1012 650.832C78.3758 650.155 78.5131 649.41 78.5131 648.595C78.5131 647.781 78.3758 647.033 78.1012 646.351C77.8313 645.669 77.4336 645.122 76.908 644.71C76.3825 644.298 75.7409 644.092 74.9833 644.092C74.2305 644.092 73.5889 644.298 73.0586 644.71C72.533 645.122 72.1329 645.669 71.8583 646.351C71.5884 647.033 71.4535 647.781 71.4535 648.595C71.4535 649.41 71.5884 650.155 71.8583 650.832C72.1329 651.509 72.533 652.052 73.0586 652.459C73.5842 652.866 74.2257 653.07 74.9833 653.07ZM82.5597 658.091V643.091H83.7884V645.172H83.9375C84.089 644.845 84.2973 644.511 84.5625 644.17C84.8277 643.825 85.178 643.534 85.6136 643.297C86.054 643.06 86.608 642.942 87.2756 642.942C88.1752 642.942 88.9612 643.179 89.6335 643.652C90.3106 644.121 90.8362 644.779 91.2102 645.626C91.589 646.469 91.7784 647.452 91.7784 648.574C91.7784 649.701 91.589 650.688 91.2102 651.536C90.8362 652.383 90.3106 653.044 89.6335 653.517C88.9612 653.991 88.1799 654.227 87.2898 654.227C86.6316 654.227 86.08 654.109 85.6349 653.872C85.1946 653.635 84.8371 653.344 84.5625 652.999C84.2926 652.648 84.0843 652.307 83.9375 651.976H83.8239V658.091H82.5597ZM83.8097 648.553C83.8097 649.433 83.9399 650.214 84.2003 650.896C84.4654 651.573 84.8442 652.106 85.3366 652.494C85.8338 652.878 86.4351 653.07 87.1406 653.07C87.8651 653.07 88.4759 652.871 88.973 652.473C89.4749 652.071 89.8561 651.528 90.1165 650.847C90.3816 650.165 90.5142 649.4 90.5142 648.553C90.5142 647.714 90.384 646.959 90.1236 646.287C89.8679 645.615 89.4891 645.082 88.9872 644.689C88.4853 644.291 87.8698 644.092 87.1406 644.092C86.4304 644.092 85.8267 644.284 85.3295 644.668C84.8324 645.046 84.4536 645.572 84.1932 646.244C83.9375 646.912 83.8097 647.681 83.8097 648.553ZM101.768 639.455V654H100.44V639.455H101.768ZM106.636 647.182V654H105.372V643.091H106.601V644.803H106.714C106.97 644.244 107.368 643.796 107.908 643.46C108.452 643.119 109.125 642.949 109.925 642.949C110.659 642.949 111.303 643.103 111.857 643.411C112.415 643.714 112.848 644.161 113.156 644.753C113.469 645.345 113.625 646.071 113.625 646.933V654H112.361V647.011C112.361 646.116 112.11 645.409 111.608 644.888C111.111 644.367 110.443 644.107 109.605 644.107C109.032 644.107 108.523 644.23 108.078 644.476C107.633 644.722 107.28 645.077 107.02 645.541C106.764 646 106.636 646.547 106.636 647.182ZM121.216 654.227C120.24 654.227 119.39 653.983 118.666 653.496C117.946 653.008 117.387 652.34 116.99 651.493C116.592 650.645 116.393 649.679 116.393 648.595C116.393 647.501 116.594 646.528 116.997 645.676C117.404 644.824 117.967 644.156 118.687 643.673C119.407 643.186 120.243 642.942 121.194 642.942C121.923 642.942 122.584 643.084 123.176 643.368C123.768 643.647 124.255 644.043 124.639 644.554C125.027 645.061 125.271 645.652 125.37 646.33H124.092C123.959 645.714 123.64 645.188 123.133 644.753C122.631 644.312 121.992 644.092 121.216 644.092C120.52 644.092 119.904 644.282 119.369 644.661C118.834 645.035 118.415 645.558 118.112 646.23C117.814 646.898 117.664 647.672 117.664 648.553C117.664 649.438 117.811 650.222 118.105 650.903C118.398 651.58 118.81 652.111 119.341 652.494C119.876 652.878 120.501 653.07 121.216 653.07C121.699 653.07 122.139 652.98 122.537 652.8C122.939 652.615 123.275 652.355 123.545 652.018C123.82 651.682 124.004 651.282 124.099 650.818H125.377C125.283 651.476 125.048 652.063 124.674 652.58C124.305 653.091 123.824 653.493 123.233 653.787C122.645 654.08 121.973 654.227 121.216 654.227ZM132.327 654.227C131.385 654.227 130.551 653.988 129.827 653.51C129.107 653.032 128.544 652.371 128.137 651.528C127.73 650.681 127.526 649.703 127.526 648.595C127.526 647.478 127.73 646.495 128.137 645.648C128.544 644.795 129.107 644.133 129.827 643.659C130.551 643.181 131.385 642.942 132.327 642.942C133.269 642.942 134.1 643.181 134.82 643.659C135.54 644.137 136.103 644.8 136.51 645.648C136.922 646.495 137.128 647.478 137.128 648.595C137.128 649.703 136.925 650.681 136.517 651.528C136.11 652.371 135.544 653.032 134.82 653.51C134.1 653.988 133.269 654.227 132.327 654.227ZM132.327 653.07C133.085 653.07 133.726 652.866 134.252 652.459C134.777 652.052 135.175 651.509 135.445 650.832C135.72 650.155 135.857 649.41 135.857 648.595C135.857 647.781 135.72 647.033 135.445 646.351C135.175 645.669 134.777 645.122 134.252 644.71C133.726 644.298 133.085 644.092 132.327 644.092C131.574 644.092 130.933 644.298 130.402 644.71C129.877 645.122 129.477 645.669 129.202 646.351C128.932 647.033 128.797 647.781 128.797 648.595C128.797 649.41 128.932 650.155 129.202 650.832C129.477 651.509 129.877 652.052 130.402 652.459C130.928 652.866 131.569 653.07 132.327 653.07ZM139.903 654V643.091H141.132V644.767H141.246C141.464 644.204 141.826 643.761 142.332 643.439C142.844 643.112 143.457 642.949 144.172 642.949C144.925 642.949 145.543 643.126 146.026 643.482C146.513 643.832 146.878 644.315 147.119 644.93H147.212C147.458 644.324 147.858 643.844 148.412 643.489C148.971 643.129 149.648 642.949 150.443 642.949C151.456 642.949 152.257 643.268 152.844 643.908C153.431 644.542 153.724 645.47 153.724 646.692V654H152.46V646.692C152.46 645.83 152.24 645.184 151.8 644.753C151.359 644.322 150.779 644.107 150.06 644.107C149.226 644.107 148.585 644.362 148.135 644.874C147.685 645.385 147.46 646.034 147.46 646.82V654H146.168V646.578C146.168 645.839 145.962 645.243 145.55 644.788C145.138 644.334 144.558 644.107 143.81 644.107C143.308 644.107 142.856 644.23 142.453 644.476C142.055 644.722 141.741 645.065 141.509 645.506C141.281 645.941 141.168 646.443 141.168 647.011V654H139.903ZM161.482 654.227C160.464 654.227 159.583 653.991 158.84 653.517C158.096 653.039 157.521 652.378 157.114 651.536C156.712 650.688 156.51 649.713 156.51 648.609C156.51 647.511 156.712 646.536 157.114 645.683C157.521 644.826 158.082 644.156 158.797 643.673C159.517 643.186 160.348 642.942 161.29 642.942C161.882 642.942 162.453 643.051 163.002 643.268C163.551 643.482 164.043 643.811 164.479 644.256C164.919 644.696 165.267 645.252 165.523 645.925C165.779 646.592 165.907 647.383 165.907 648.297V648.922H157.384V647.807H164.614C164.614 647.106 164.472 646.476 164.188 645.918C163.908 645.354 163.518 644.909 163.016 644.582C162.519 644.256 161.944 644.092 161.29 644.092C160.599 644.092 159.99 644.277 159.465 644.646C158.939 645.016 158.527 645.503 158.229 646.109C157.935 646.715 157.786 647.378 157.782 648.098V648.766C157.782 649.632 157.931 650.39 158.229 651.038C158.532 651.682 158.961 652.182 159.515 652.537C160.069 652.892 160.724 653.07 161.482 653.07C161.998 653.07 162.45 652.989 162.838 652.828C163.231 652.667 163.56 652.452 163.826 652.182C164.096 651.907 164.299 651.607 164.436 651.28L165.637 651.67C165.471 652.13 165.199 652.554 164.82 652.942C164.446 653.33 163.977 653.643 163.414 653.879C162.855 654.111 162.211 654.227 161.482 654.227ZM63.831 679.818V661.636H64.7614V679.818H63.831ZM67.8295 667.091C67.7491 666.281 67.3916 665.637 66.7571 665.159C66.1226 664.681 65.3248 664.442 64.3636 664.442C63.6866 664.442 63.09 664.558 62.5739 664.79C62.0625 665.022 61.66 665.344 61.3665 665.756C61.0777 666.163 60.9332 666.627 60.9332 667.148C60.9332 667.531 61.0161 667.867 61.1818 668.156C61.3475 668.445 61.5701 668.694 61.8494 668.902C62.1335 669.106 62.446 669.281 62.7869 669.428C63.1326 669.574 63.4806 669.697 63.831 669.797L65.3651 670.237C65.8291 670.365 66.2931 670.528 66.7571 670.727C67.2211 670.926 67.6449 671.177 68.0284 671.48C68.4167 671.778 68.7268 672.145 68.9588 672.581C69.1955 673.012 69.3139 673.53 69.3139 674.136C69.3139 674.913 69.1127 675.611 68.7102 676.232C68.3078 676.852 67.7301 677.344 66.9773 677.709C66.2244 678.069 65.3224 678.249 64.2713 678.249C63.2817 678.249 62.4223 678.085 61.6932 677.759C60.964 677.427 60.3911 676.97 59.9744 676.388C59.5578 675.805 59.3234 675.131 59.2713 674.364H60.6349C60.6823 674.937 60.8717 675.422 61.2031 675.82C61.5346 676.217 61.9654 676.52 62.4957 676.729C63.026 676.932 63.6179 677.034 64.2713 677.034C64.9957 677.034 65.6397 676.913 66.2031 676.672C66.7713 676.426 67.2164 676.085 67.5384 675.649C67.8651 675.209 68.0284 674.697 68.0284 674.115C68.0284 673.623 67.9006 673.211 67.6449 672.879C67.3892 672.543 67.0317 672.261 66.5724 672.034C66.1179 671.807 65.59 671.606 64.9886 671.43L63.2486 670.919C62.1075 670.578 61.2221 670.107 60.5923 669.506C59.9626 668.904 59.6477 668.137 59.6477 667.205C59.6477 666.423 59.8561 665.737 60.2727 665.145C60.6941 664.548 61.2623 664.084 61.9773 663.753C62.697 663.417 63.5043 663.249 64.3991 663.249C65.3035 663.249 66.1037 663.414 66.7997 663.746C67.4957 664.077 68.0473 664.534 68.4545 665.116C68.8665 665.694 69.0866 666.352 69.1151 667.091H67.8295ZM76.6861 663.455V678H75.358V664.847H75.2727L71.8636 667.112V665.734L75.3011 663.455H76.6861ZM81.1037 678V677.027L85.8551 671.686C86.4754 670.985 86.9749 670.386 87.3537 669.889C87.7325 669.392 88.0071 668.933 88.1776 668.511C88.3527 668.09 88.4403 667.652 88.4403 667.197C88.4403 666.643 88.3101 666.161 88.0497 665.749C87.794 665.332 87.4413 665.008 86.9915 664.776C86.5417 664.544 86.035 664.428 85.4716 664.428C84.875 664.428 84.3518 664.555 83.902 664.811C83.4569 665.067 83.1113 665.417 82.8651 665.862C82.6188 666.307 82.4957 666.819 82.4957 667.396H81.2244C81.2244 666.591 81.4091 665.879 81.7784 665.259C82.1525 664.634 82.6615 664.143 83.3054 663.788C83.9541 663.433 84.688 663.256 85.5071 663.256C86.3168 663.256 87.0365 663.431 87.6662 663.781C88.2959 664.127 88.7907 664.598 89.1506 665.195C89.5104 665.791 89.6903 666.459 89.6903 667.197C89.6903 667.732 89.5956 668.251 89.4062 668.753C89.2216 669.255 88.902 669.813 88.4474 670.429C87.9929 671.045 87.3632 671.797 86.5582 672.688L82.9503 676.714V676.807H90.1449V678H81.1037ZM98.0337 678.199C97.1388 678.199 96.3387 678.038 95.6332 677.716C94.9277 677.389 94.369 676.937 93.957 676.359C93.5451 675.782 93.3273 675.116 93.3036 674.364H94.646C94.6696 674.894 94.833 675.358 95.136 675.756C95.439 676.149 95.8415 676.456 96.3434 676.679C96.8453 676.897 97.404 677.006 98.0195 677.006C98.6919 677.006 99.2837 676.88 99.7951 676.629C100.311 676.378 100.714 676.035 101.002 675.599C101.296 675.159 101.443 674.662 101.443 674.108C101.443 673.521 101.294 673.002 100.995 672.553C100.697 672.103 100.269 671.752 99.7099 671.501C99.1559 671.25 98.493 671.125 97.7212 671.125H96.869V669.932H97.7212C98.351 669.932 98.9073 669.818 99.3903 669.591C99.878 669.359 100.261 669.035 100.541 668.618C100.82 668.201 100.96 667.711 100.96 667.148C100.96 666.613 100.839 666.142 100.598 665.734C100.356 665.327 100.015 665.008 99.5749 664.776C99.1393 664.544 98.6303 664.428 98.0479 664.428C97.4845 664.428 96.9684 664.536 96.4996 664.754C96.0309 664.972 95.6521 665.28 95.3633 665.678C95.0792 666.075 94.9277 666.546 94.9087 667.091H93.6232C93.6422 666.333 93.8505 665.668 94.2482 665.095C94.6507 664.518 95.1834 664.068 95.8462 663.746C96.5138 663.419 97.2525 663.256 98.0621 663.256C98.9192 663.256 99.6602 663.431 100.285 663.781C100.91 664.132 101.393 664.598 101.734 665.18C102.08 665.758 102.252 666.395 102.252 667.091C102.252 667.92 102.028 668.63 101.578 669.222C101.128 669.809 100.522 670.216 99.7596 670.443V670.536C100.688 670.72 101.417 671.132 101.947 671.771C102.482 672.406 102.75 673.185 102.75 674.108C102.75 674.884 102.546 675.583 102.139 676.203C101.732 676.819 101.173 677.306 100.463 677.666C99.7572 678.021 98.9476 678.199 98.0337 678.199ZM107.513 676.011L107.386 676.771C107.305 677.283 107.192 677.846 107.045 678.462C106.898 679.077 106.746 679.662 106.59 680.216C106.434 680.77 106.299 681.215 106.185 681.551H105.212C105.274 681.229 105.352 680.82 105.447 680.322C105.546 679.825 105.648 679.274 105.752 678.668C105.856 678.066 105.951 677.446 106.036 676.807L106.136 676.011H107.513ZM115.088 663.256C115.694 663.26 116.281 663.384 116.849 663.625C117.422 663.862 117.938 664.245 118.398 664.776C118.857 665.301 119.222 666.002 119.491 666.878C119.761 667.749 119.896 668.821 119.896 670.095C119.896 671.284 119.792 672.373 119.584 673.362C119.375 674.352 119.063 675.209 118.646 675.933C118.234 676.653 117.714 677.212 117.084 677.609C116.459 678.002 115.727 678.199 114.889 678.199C114.108 678.199 113.414 678.036 112.808 677.709C112.207 677.382 111.719 676.93 111.345 676.352C110.971 675.77 110.739 675.098 110.649 674.335H111.956C112.084 675.112 112.396 675.751 112.893 676.253C113.395 676.755 114.061 677.006 114.889 677.006C116.078 677.006 117.001 676.452 117.659 675.344C118.317 674.236 118.646 672.659 118.646 670.614H118.554C118.327 671.04 118.028 671.411 117.659 671.729C117.295 672.046 116.878 672.295 116.409 672.474C115.94 672.65 115.446 672.737 114.925 672.737C114.115 672.737 113.374 672.534 112.702 672.126C112.029 671.714 111.492 671.153 111.089 670.443C110.687 669.728 110.486 668.914 110.486 668C110.486 667.138 110.675 666.348 111.054 665.628C111.438 664.903 111.973 664.326 112.659 663.895C113.35 663.459 114.16 663.246 115.088 663.256ZM115.088 664.449C114.458 664.449 113.893 664.61 113.391 664.932C112.893 665.249 112.498 665.678 112.205 666.217C111.916 666.752 111.771 667.347 111.771 668C111.771 668.658 111.916 669.257 112.205 669.797C112.498 670.332 112.893 670.758 113.391 671.075C113.893 671.388 114.458 671.544 115.088 671.544C115.571 671.544 116.021 671.447 116.438 671.253C116.854 671.054 117.214 670.784 117.517 670.443C117.825 670.102 118.057 669.716 118.213 669.286C118.374 668.85 118.438 668.393 118.405 667.915C118.348 667.252 118.17 666.66 117.872 666.139C117.579 665.614 117.19 665.202 116.707 664.903C116.229 664.6 115.689 664.449 115.088 664.449ZM127.482 678.199C126.88 678.194 126.293 678.073 125.72 677.837C125.147 677.595 124.631 677.209 124.172 676.679C123.713 676.144 123.348 675.438 123.078 674.562C122.808 673.687 122.673 672.609 122.673 671.331C122.673 670.147 122.777 669.063 122.986 668.078C123.194 667.093 123.507 666.241 123.923 665.521C124.34 664.802 124.861 664.245 125.486 663.852C126.111 663.455 126.842 663.256 127.68 663.256C128.466 663.256 129.16 663.419 129.761 663.746C130.363 664.068 130.85 664.518 131.224 665.095C131.598 665.673 131.833 666.338 131.928 667.091H130.621C130.488 666.324 130.173 665.692 129.676 665.195C129.179 664.697 128.514 664.449 127.68 664.449C126.487 664.449 125.564 665.003 124.911 666.111C124.257 667.214 123.928 668.781 123.923 670.812H124.016C124.248 670.382 124.546 670.01 124.911 669.697C125.28 669.38 125.699 669.134 126.168 668.959C126.636 668.779 127.129 668.689 127.645 668.689C128.455 668.689 129.196 668.895 129.868 669.307C130.54 669.714 131.078 670.275 131.48 670.99C131.883 671.7 132.084 672.512 132.084 673.426C132.084 674.293 131.892 675.09 131.509 675.82C131.13 676.549 130.595 677.129 129.903 677.56C129.217 677.991 128.41 678.204 127.482 678.199ZM127.482 677.006C128.116 677.006 128.682 676.845 129.179 676.523C129.681 676.201 130.076 675.77 130.365 675.23C130.654 674.686 130.798 674.084 130.798 673.426C130.798 672.768 130.654 672.171 130.365 671.636C130.076 671.101 129.681 670.675 129.179 670.358C128.682 670.041 128.116 669.882 127.482 669.882C126.999 669.882 126.549 669.982 126.132 670.18C125.715 670.375 125.353 670.642 125.045 670.983C124.742 671.319 124.51 671.705 124.349 672.141C124.193 672.576 124.134 673.033 124.172 673.511C124.224 674.179 124.397 674.778 124.69 675.308C124.989 675.834 125.377 676.248 125.855 676.551C126.338 676.854 126.88 677.006 127.482 677.006ZM139.584 678.199C138.656 678.199 137.83 678.024 137.105 677.673C136.381 677.323 135.813 676.845 135.401 676.239C134.989 675.628 134.783 674.939 134.783 674.172C134.783 673.571 134.908 673.009 135.159 672.489C135.41 671.963 135.756 671.523 136.196 671.168C136.636 670.808 137.131 670.573 137.68 670.464V670.386C136.965 670.178 136.39 669.768 135.955 669.158C135.519 668.542 135.304 667.844 135.308 667.062C135.304 666.338 135.488 665.689 135.862 665.116C136.236 664.544 136.745 664.091 137.389 663.76C138.038 663.424 138.769 663.256 139.584 663.256C140.393 663.256 141.12 663.424 141.764 663.76C142.408 664.091 142.917 664.544 143.291 665.116C143.67 665.689 143.862 666.338 143.866 667.062C143.862 667.839 143.642 668.537 143.206 669.158C142.77 669.773 142.197 670.183 141.487 670.386V670.464C142.036 670.569 142.529 670.801 142.964 671.161C143.4 671.52 143.746 671.963 144.001 672.489C144.257 673.009 144.385 673.571 144.385 674.172C144.385 674.939 144.177 675.628 143.76 676.239C143.348 676.845 142.78 677.323 142.055 677.673C141.336 678.024 140.512 678.199 139.584 678.199ZM139.584 677.006C140.275 677.006 140.881 676.883 141.402 676.636C141.928 676.385 142.337 676.042 142.631 675.607C142.929 675.171 143.078 674.671 143.078 674.108C143.078 673.526 142.924 673.007 142.616 672.553C142.309 672.093 141.892 671.731 141.366 671.466C140.841 671.196 140.247 671.061 139.584 671.061C138.921 671.061 138.324 671.196 137.794 671.466C137.268 671.731 136.852 672.093 136.544 672.553C136.241 673.007 136.089 673.526 136.089 674.108C136.089 674.671 136.234 675.171 136.523 675.607C136.816 676.042 137.226 676.385 137.751 676.636C138.282 676.883 138.893 677.006 139.584 677.006ZM139.584 669.925C140.152 669.925 140.661 669.804 141.111 669.562C141.561 669.321 141.916 668.992 142.176 668.575C142.441 668.154 142.576 667.676 142.581 667.141C142.576 666.61 142.444 666.142 142.183 665.734C141.923 665.322 141.568 665.003 141.118 664.776C140.673 664.544 140.161 664.428 139.584 664.428C139.006 664.428 138.49 664.544 138.036 664.776C137.586 665.003 137.231 665.322 136.97 665.734C136.714 666.142 136.589 666.61 136.594 667.141C136.589 667.676 136.717 668.154 136.977 668.575C137.242 668.992 137.6 669.321 138.05 669.562C138.504 669.804 139.016 669.925 139.584 669.925ZM147.865 678.107C147.586 678.107 147.344 678.007 147.141 677.808C146.942 677.605 146.842 677.363 146.842 677.084C146.842 676.8 146.942 676.558 147.141 676.359C147.344 676.161 147.586 676.061 147.865 676.061C148.149 676.061 148.391 676.161 148.589 676.359C148.788 676.558 148.888 676.8 148.888 677.084C148.888 677.268 148.84 677.439 148.746 677.595C148.656 677.751 148.533 677.877 148.376 677.972C148.225 678.062 148.054 678.107 147.865 678.107ZM156.089 678.199C155.067 678.199 154.193 677.905 153.469 677.318C152.749 676.726 152.195 675.872 151.807 674.754C151.423 673.637 151.232 672.295 151.232 670.727C151.232 669.165 151.423 667.827 151.807 666.714C152.195 665.597 152.751 664.742 153.476 664.151C154.205 663.554 155.076 663.256 156.089 663.256C157.103 663.256 157.972 663.554 158.696 664.151C159.425 664.742 159.982 665.597 160.365 666.714C160.753 667.827 160.947 669.165 160.947 670.727C160.947 672.295 160.753 673.637 160.365 674.754C159.982 675.872 159.428 676.726 158.703 677.318C157.983 677.905 157.112 678.199 156.089 678.199ZM156.089 677.006C157.212 677.006 158.088 676.459 158.717 675.365C159.347 674.267 159.662 672.721 159.662 670.727C159.662 669.402 159.518 668.27 159.229 667.332C158.945 666.39 158.535 665.67 158 665.173C157.47 664.676 156.833 664.428 156.089 664.428C154.977 664.428 154.103 664.982 153.469 666.089C152.834 667.193 152.517 668.739 152.517 670.727C152.517 672.053 152.659 673.185 152.943 674.122C153.232 675.06 153.642 675.775 154.172 676.267C154.707 676.759 155.346 677.006 156.089 677.006ZM168.355 678.199C167.332 678.199 166.459 677.905 165.734 677.318C165.015 676.726 164.461 675.872 164.072 674.754C163.689 673.637 163.497 672.295 163.497 670.727C163.497 669.165 163.689 667.827 164.072 666.714C164.461 665.597 165.017 664.742 165.741 664.151C166.471 663.554 167.342 663.256 168.355 663.256C169.368 663.256 170.237 663.554 170.962 664.151C171.691 664.742 172.247 665.597 172.631 666.714C173.019 667.827 173.213 669.165 173.213 670.727C173.213 672.295 173.019 673.637 172.631 674.754C172.247 675.872 171.693 676.726 170.969 677.318C170.249 677.905 169.378 678.199 168.355 678.199ZM168.355 677.006C169.477 677.006 170.353 676.459 170.983 675.365C171.613 674.267 171.928 672.721 171.928 670.727C171.928 669.402 171.783 668.27 171.494 667.332C171.21 666.39 170.801 665.67 170.266 665.173C169.735 664.676 169.098 664.428 168.355 664.428C167.242 664.428 166.369 664.982 165.734 666.089C165.1 667.193 164.783 668.739 164.783 670.727C164.783 672.053 164.925 673.185 165.209 674.122C165.498 675.06 165.907 675.775 166.438 676.267C166.973 676.759 167.612 677.006 168.355 677.006Z" fill="black"/>
</g>
</g>
<defs>
<filter id="filter0_i_215_2" x="0" y="0" width="707" height="711" filterUnits="userSpaceOnUse" color-interpolation-filters="sRGB">
<feFlood flood-opacity="0" result="BackgroundImageFix"/>
<feBlend mode="normal" in="SourceGraphic" in2="BackgroundImageFix" result="shape"/>
<feColorMatrix in="SourceAlpha" type="matrix" values="0 0 0 0 0 0 0 0 0 0 0 0 0 0 0 0 0 0 127 0" result="hardAlpha"/>
<feOffset dy="4"/>
<feGaussianBlur stdDeviation="12"/>
<feComposite in2="hardAlpha" operator="arithmetic" k2="-1" k3="1"/>
<feColorMatrix type="matrix" values="0 0 0 0 0 0 0 0 0 0 0 0 0 0 0 0 0 0 0.25 0"/>
<feBlend mode="normal" in2="shape" result="effect1_innerShadow_215_2"/>
</filter>
<filter id="filter1_d_215_2" x="17.5" y="0" width="672" height="593" filterUnits="userSpaceOnUse" color-interpolation-filters="sRGB">
<feFlood flood-opacity="0" result="BackgroundImageFix"/>
<feColorMatrix in="SourceAlpha" type="matrix" values="0 0 0 0 0 0 0 0 0 0 0 0 0 0 0 0 0 0 127 0" result="hardAlpha"/>
<feOffset dy="4"/>
<feGaussianBlur stdDeviation="12"/>
<feComposite in2="hardAlpha" operator="out"/>
<feColorMatrix type="matrix" values="0 0 0 0 0 0 0 0 0 0 0 0 0 0 0 0 0 0 0.25 0"/>
<feBlend mode="normal" in2="BackgroundImageFix" result="effect1_dropShadow_215_2"/>
<feBlend mode="normal" in="SourceGraphic" in2="effect1_dropShadow_215_2" result="shape"/>
</filter>
<filter id="filter2_d_215_2" x="0" y="602" width="707" height="133" filterUnits="userSpaceOnUse" color-interpolation-filters="sRGB">
<feFlood flood-opacity="0" result="BackgroundImageFix"/>
<feColorMatrix in="SourceAlpha" type="matrix" values="0 0 0 0 0 0 0 0 0 0 0 0 0 0 0 0 0 0 127 0" result="hardAlpha"/>
<feOffset dy="4"/>
<feGaussianBlur stdDeviation="12"/>
<feComposite in2="hardAlpha" operator="out"/>
<feColorMatrix type="matrix" values="0 0 0 0 0 0 0 0 0 0 0 0 0 0 0 0 0 0 0.25 0"/>
<feBlend mode="normal" in2="BackgroundImageFix" result="effect1_dropShadow_215_2"/>
<feBlend mode="normal" in="SourceGraphic" in2="effect1_dropShadow_215_2" result="shape"/>
</filter>
<clipPath id="clip0_215_2">
<rect width="707" height="707" rx="42" fill="white"/>
</clipPath>
</defs>
</svg>
