<svg width="28" height="35" viewBox="0 0 28 35" fill="none" xmlns="http://www.w3.org/2000/svg">
<path d="M6.66667 0.746826H3.83333C3.08189 0.746826 2.36122 1.12932 1.82986 1.81017C1.29851 2.49102 1 3.41445 1 4.37732V8.00781M20.8333 0.746826H23.6667C24.4181 0.746826 25.1388 1.12932 25.6701 1.81017C26.2015 2.49102 26.5 3.41445 26.5 4.37732V8.00781M19.4167 9.82305V13.4535M8.08333 9.82305V13.4535M9.5 24.345C9.5 24.345 10.9167 26.1603 13.75 26.1603C16.5833 26.1603 18 24.345 18 24.345M13.75 9.82305V18.8993H12.3333M6.66667 33.4212H3.83333C3.08189 33.4212 2.36122 33.0387 1.82986 32.3579C1.29851 31.677 1 30.7536 1 29.7907V26.1603M20.8333 33.4212H23.6667C24.4181 33.4212 25.1388 33.0387 25.6701 32.3579C26.2015 31.677 26.5 30.7536 26.5 29.7907V26.1603" stroke="black" stroke-width="1.5" stroke-linecap="round" stroke-linejoin="round"/>
</svg>
