<svg width="51" height="51" viewBox="0 0 51 51" fill="none" xmlns="http://www.w3.org/2000/svg">
<g clip-path="url(#clip0_336_17)">
<path d="M51 25.5C51 11.4168 39.5832 0 25.5 0C11.4168 0 0 11.4168 0 25.5C0 38.2277 9.32503 48.7773 21.5156 50.6902V32.8711H15.041V25.5H21.5156V19.882C21.5156 13.4911 25.3227 9.96094 31.1475 9.96094C33.9373 9.96094 36.8555 10.459 36.8555 10.459V16.7344H33.6401C30.4723 16.7344 29.4844 18.7001 29.4844 20.7168V25.5H36.5566L35.4261 32.8711H29.4844V50.6902C41.675 48.7773 51 38.2279 51 25.5Z" fill="#1877F2"/>
<path d="M35.4261 32.8711L36.5566 25.5H29.4844V20.7168C29.4844 18.6999 30.4723 16.7344 33.6401 16.7344H36.8555V10.459C36.8555 10.459 33.9373 9.96094 31.1473 9.96094C25.3227 9.96094 21.5156 13.4911 21.5156 19.882V25.5H15.041V32.8711H21.5156V50.6902C22.8337 50.8967 24.1658 51.0003 25.5 51C26.8342 51.0003 28.1663 50.8967 29.4844 50.6902V32.8711H35.4261Z" fill="white"/>
</g>
<defs>
<clipPath id="clip0_336_17">
<rect width="51" height="51" fill="white"/>
</clipPath>
</defs>
</svg>
