<svg width="52" height="52" viewBox="0 0 52 52" fill="none" xmlns="http://www.w3.org/2000/svg">
<g clip-path="url(#clip0_339_34)">
<path d="M18.1147 1.71027C12.9191 3.51268 8.4384 6.9337 5.33078 11.4708C2.22316 16.008 0.652411 21.4221 0.849243 26.9179C1.04607 32.4138 3.00012 37.7017 6.42435 42.0049C9.84859 46.3081 14.5625 49.3998 19.8738 50.8259C24.1797 51.937 28.691 51.9858 33.02 50.9681C36.9416 50.0872 40.5672 48.203 43.5419 45.5C46.6378 42.6007 48.885 38.9125 50.0419 34.8318C51.2993 30.3942 51.5231 25.7275 50.6959 21.19H26.5159V31.2203H40.5194C40.2395 32.82 39.6398 34.3469 38.7561 35.7095C37.8723 37.072 36.7228 38.2423 35.3763 39.1503C33.6663 40.2814 31.7387 41.0425 29.7172 41.3847C27.6898 41.7616 25.6102 41.7616 23.5828 41.3847C21.528 40.9598 19.5841 40.1117 17.875 38.8943C15.1294 36.9508 13.0678 34.1897 11.9844 31.005C10.8827 27.7606 10.8827 24.2434 11.9844 20.999C12.7556 18.7249 14.0304 16.6543 15.7138 14.9418C17.6402 12.9461 20.079 11.5196 22.7628 10.8187C25.4466 10.1178 28.2716 10.1697 30.9278 10.9687C33.0028 11.6057 34.9003 12.7186 36.4691 14.2187C38.048 12.6479 39.6243 11.073 41.1978 9.49402C42.0103 8.64496 42.8959 7.83652 43.6963 6.96715C41.3017 4.73877 38.4909 3.00482 35.425 1.86465C29.8419 -0.162579 23.733 -0.217059 18.1147 1.71027Z" fill="white"/>
<path d="M18.1147 1.7103C23.7325 -0.218348 29.8414 -0.165302 35.425 1.86061C38.4914 3.00852 41.3009 4.75083 43.6922 6.98748C42.8797 7.85686 42.0225 8.66936 41.1937 9.51436C39.6175 11.0879 38.0426 12.656 36.469 14.2187C34.9003 12.7186 33.0028 11.6057 30.9278 10.9687C28.2724 10.167 25.4475 10.1121 22.763 10.8101C20.0785 11.5081 17.6382 12.932 15.7097 14.9256C14.0263 16.6381 12.7514 18.7087 11.9803 20.9828L3.55872 14.4625C6.57312 8.48476 11.7924 3.91227 18.1147 1.7103Z" fill="#E33629"/>
<path d="M1.32442 20.9219C1.77707 18.6786 2.52856 16.5061 3.55879 14.4625L11.9804 20.9991C10.8787 24.2434 10.8787 27.7607 11.9804 31.005C9.17452 33.1717 6.36733 35.3492 3.55879 37.5375C0.979717 32.4038 0.193144 26.5546 1.32442 20.9219Z" fill="#F8BD00"/>
<path d="M26.516 21.1859H50.696C51.5231 25.7235 51.2993 30.3902 50.0419 34.8278C48.8851 38.9085 46.6379 42.5967 43.5419 45.4959C40.8241 43.3753 38.0941 41.2709 35.3763 39.1503C36.7237 38.2414 37.8738 37.0699 38.7575 35.7058C39.6413 34.3418 40.2406 32.8134 40.5194 31.2122H26.516C26.5119 27.8728 26.516 24.5294 26.516 21.1859Z" fill="#587DBD"/>
<path d="M3.55469 37.5375C6.36323 35.3708 9.17042 33.1933 11.9762 31.005C13.0618 34.1908 15.1263 36.9521 17.875 38.8944C19.5894 40.1061 21.5375 40.9473 23.595 41.3644C25.6224 41.7414 27.702 41.7414 29.7294 41.3644C31.7509 41.0222 33.6785 40.2611 35.3884 39.13C38.1063 41.2506 40.8363 43.355 43.5541 45.4756C40.5799 48.1801 36.9542 50.0658 33.0322 50.9478C28.7032 51.9655 24.1919 51.9167 19.8859 50.8056C16.4804 49.8963 13.2993 48.2934 10.5422 46.0972C7.62394 43.7803 5.24044 40.8605 3.55469 37.5375Z" fill="#319F43"/>
</g>
<defs>
<clipPath id="clip0_339_34">
<rect width="52" height="52" fill="white"/>
</clipPath>
</defs>
</svg>
