<svg width="47" height="47" viewBox="0 0 47 47" fill="none" xmlns="http://www.w3.org/2000/svg">
<path d="M35.9844 0H11.0156C4.93186 0 0 4.93186 0 11.0156V35.9844C0 42.0681 4.93186 47 11.0156 47H35.9844C42.0681 47 47 42.0681 47 35.9844V11.0156C47 4.93186 42.0681 0 35.9844 0Z" fill="url(#paint0_radial_337_21)"/>
<path d="M35.9844 0H11.0156C4.93186 0 0 4.93186 0 11.0156V35.9844C0 42.0681 4.93186 47 11.0156 47H35.9844C42.0681 47 47 42.0681 47 35.9844V11.0156C47 4.93186 42.0681 0 35.9844 0Z" fill="url(#paint1_radial_337_21)"/>
<path d="M23.5017 5.14062C18.5156 5.14062 17.8897 5.16247 15.9315 5.25152C13.977 5.34111 12.6428 5.65046 11.4755 6.10449C10.2678 6.57339 9.24358 7.20073 8.22316 8.22151C7.20183 9.24211 6.57449 10.2664 6.10413 11.4735C5.64881 12.6412 5.33909 13.9759 5.25115 15.9295C5.16357 17.8879 5.14062 18.514 5.14062 23.5002C5.14062 28.4864 5.16266 29.1103 5.25152 31.0685C5.34148 33.023 5.65083 34.3572 6.10449 35.5245C6.57376 36.7322 7.2011 37.7564 8.22188 38.7768C9.24211 39.7982 10.2664 40.427 11.4731 40.8959C12.6413 41.3499 13.9757 41.6593 15.9299 41.7489C17.8883 41.8379 18.5136 41.8597 23.4994 41.8597C28.486 41.8597 29.1099 41.8379 31.0681 41.7489C33.0226 41.6593 34.3583 41.3499 35.5265 40.8959C36.7336 40.427 37.7564 39.7982 38.7765 38.7768C39.7978 37.7564 40.425 36.7322 40.8955 35.525C41.3468 34.3572 41.6567 33.0226 41.7485 31.0688C41.8364 29.1106 41.8594 28.4864 41.8594 23.5002C41.8594 18.514 41.8364 17.8883 41.7485 15.9299C41.6567 13.9753 41.3468 12.6413 40.8955 11.4741C40.425 10.2664 39.7978 9.24211 38.7765 8.22151C37.7553 7.20036 36.734 6.57302 35.5254 6.10468C34.355 5.65046 33.0201 5.34093 31.0655 5.25152C29.1071 5.16247 28.4837 5.14062 23.496 5.14062H23.5017ZM21.8546 8.44917C22.3435 8.44843 22.889 8.44917 23.5017 8.44917C28.4038 8.44917 28.9847 8.46679 30.9205 8.55473C32.7105 8.63662 33.6821 8.93569 34.3293 9.18703C35.1861 9.5197 35.7969 9.91755 36.4391 10.5603C37.0817 11.2029 37.4794 11.8148 37.813 12.6716C38.0643 13.3179 38.3638 14.2895 38.4453 16.0795C38.5332 18.015 38.5523 18.5962 38.5523 23.496C38.5523 28.3957 38.5332 28.9772 38.4453 30.9124C38.3634 32.7025 38.0643 33.674 37.813 34.3205C37.4803 35.1773 37.0817 35.7874 36.4391 36.4296C35.7966 37.0722 35.1865 37.4698 34.3293 37.8027C33.6828 38.0551 32.7105 38.3535 30.9205 38.4354C28.985 38.5233 28.4038 38.5424 23.5017 38.5424C18.5993 38.5424 18.0183 38.5233 16.083 38.4354C14.293 38.3527 13.3214 38.0537 12.6737 37.8023C11.817 37.4695 11.2049 37.0718 10.5623 36.4292C9.91975 35.7866 9.52209 35.1762 9.1885 34.319C8.93716 33.6726 8.63772 32.701 8.5562 30.9109C8.46826 28.9755 8.45064 28.3942 8.45064 23.4914C8.45064 18.5885 8.46826 18.0104 8.5562 16.0749C8.63809 14.2849 8.93716 13.3133 9.1885 12.6661C9.52136 11.8093 9.91975 11.1974 10.5625 10.5548C11.2053 9.91223 11.817 9.51438 12.6738 9.18097C13.321 8.92853 14.293 8.63019 16.083 8.54794C17.7766 8.47138 18.433 8.44843 21.8546 8.44458V8.44917ZM33.3019 11.4976C32.0856 11.4976 31.0988 12.4835 31.0988 13.6999C31.0988 14.9163 32.0856 15.9031 33.3019 15.9031C34.5182 15.9031 35.505 14.9163 35.505 13.6999C35.505 12.4836 34.5182 11.4968 33.3019 11.4968V11.4976ZM23.5017 14.0717C18.2949 14.0717 14.0734 18.2933 14.0734 23.5002C14.0734 28.7071 18.2949 32.9266 23.5017 32.9266C28.7086 32.9266 32.9286 28.7071 32.9286 23.5002C32.9286 18.2935 28.7082 14.0717 23.5013 14.0717H23.5017ZM23.5017 17.3803C26.8814 17.3803 29.6216 20.12 29.6216 23.5002C29.6216 26.88 26.8814 29.6201 23.5017 29.6201C20.1219 29.6201 17.3819 26.88 17.3819 23.5002C17.3819 20.12 20.1217 17.3803 23.5017 17.3803Z" fill="white"/>
<defs>
<radialGradient id="paint0_radial_337_21" cx="0" cy="0" r="1" gradientUnits="userSpaceOnUse" gradientTransform="translate(12.4844 50.6199) rotate(-90) scale(46.5805 43.3235)">
<stop stop-color="#FFDD55"/>
<stop offset="0.1" stop-color="#FFDD55"/>
<stop offset="0.5" stop-color="#FF543E"/>
<stop offset="1" stop-color="#C837AB"/>
</radialGradient>
<radialGradient id="paint1_radial_337_21" cx="0" cy="0" r="1" gradientUnits="userSpaceOnUse" gradientTransform="translate(-7.87268 3.38565) rotate(78.681) scale(20.8217 85.8279)">
<stop stop-color="#3771C8"/>
<stop offset="0.128" stop-color="#3771C8"/>
<stop offset="1" stop-color="#6600FF" stop-opacity="0"/>
</radialGradient>
</defs>
</svg>
