<svg width="53" height="53" viewBox="0 0 53 53" fill="none" xmlns="http://www.w3.org/2000/svg">
<g clip-path="url(#clip0_341_40)">
<path d="M40.5781 0H12.4219C5.56146 0 0 5.56146 0 12.4219V40.5781C0 47.4385 5.56146 53 12.4219 53H40.5781C47.4385 53 53 47.4385 53 40.5781V12.4219C53 5.56146 47.4385 0 40.5781 0Z" fill="white"/>
<path d="M40.5781 0H12.4219C5.56146 0 0 5.56146 0 12.4219V40.5781C0 47.4385 5.56146 53 12.4219 53H40.5781C47.4385 53 53 47.4385 53 40.5781V12.4219C53 5.56146 47.4385 0 40.5781 0Z" fill="#0A66C2"/>
<path d="M38.2418 45.0676H44.3016C44.5212 45.0676 44.7318 44.9804 44.8871 44.8251C45.0424 44.6699 45.1297 44.4593 45.1297 44.2397L45.1328 31.4365C45.1328 24.7446 43.6908 19.6009 35.8706 19.6009C32.8979 19.4903 30.0945 21.0228 28.5817 23.5817C28.5743 23.5941 28.563 23.6038 28.5496 23.6092C28.5362 23.6146 28.5214 23.6155 28.5075 23.6118C28.4935 23.608 28.4812 23.5997 28.4723 23.5883C28.4635 23.5768 28.4586 23.5628 28.4585 23.5484V21.0468C28.4585 20.8272 28.3713 20.6165 28.216 20.4612C28.0607 20.3059 27.85 20.2187 27.6304 20.2187H21.8797C21.6601 20.2187 21.4494 20.3059 21.2941 20.4612C21.1388 20.6165 21.0516 20.8272 21.0516 21.0468V44.2384C21.0516 44.4581 21.1388 44.6687 21.2941 44.824C21.4494 44.9793 21.6601 45.0666 21.8797 45.0666H27.9391C28.1587 45.0666 28.3693 44.9793 28.5246 44.824C28.68 44.6687 28.7672 44.4581 28.7672 44.2384V32.7745C28.7672 29.533 29.3821 26.3938 33.4008 26.3938C37.3623 26.3938 37.4137 30.103 37.4137 32.9844V44.2395C37.4137 44.4591 37.5009 44.6697 37.6562 44.825C37.8115 44.9804 38.0221 45.0676 38.2418 45.0676ZM7.86719 12.3449C7.86719 14.8011 9.88926 16.8221 12.3457 16.8221C14.8015 16.8219 16.8223 14.7996 16.8223 12.3438C16.8219 9.88802 14.8009 7.86719 12.3449 7.86719C9.88823 7.86719 7.86719 9.88864 7.86719 12.3449ZM9.30792 45.0676H15.3754C15.595 45.0676 15.8057 44.9804 15.961 44.825C16.1163 44.6697 16.2035 44.4591 16.2035 44.2395V21.0468C16.2035 20.8272 16.1163 20.6165 15.961 20.4612C15.8057 20.3059 15.595 20.2187 15.3754 20.2187H9.30792C9.08829 20.2187 8.87765 20.3059 8.72235 20.4612C8.56704 20.6165 8.47979 20.8272 8.47979 21.0468V44.2395C8.47979 44.4591 8.56704 44.6697 8.72235 44.825C8.87765 44.9804 9.08829 45.0676 9.30792 45.0676Z" fill="white"/>
</g>
<defs>
<clipPath id="clip0_341_40">
<rect width="53" height="53" fill="white"/>
</clipPath>
</defs>
</svg>
