<svg width="19" height="24" viewBox="0 0 19 24" fill="none" xmlns="http://www.w3.org/2000/svg">
<path fill-rule="evenodd" clip-rule="evenodd" d="M4.29317 10.3266L3.90563 6.80189C3.85647 6.3501 3.85647 5.89422 3.90563 5.44243L3.93384 5.18792C4.09112 3.76127 4.76237 2.44337 5.81922 1.48626C6.87607 0.529152 8.24435 0 9.66238 0C11.0804 0 12.4487 0.529152 13.5055 1.48626C14.5624 2.44337 15.2336 3.76127 15.3909 5.18792L15.4191 5.44243C15.4682 5.89517 15.4682 6.34832 15.4191 6.80189L15.0316 10.3278L15.8741 10.3948C16.5194 10.4468 17.1288 10.7162 17.605 11.16C18.0812 11.6038 18.3967 12.1964 18.5011 12.8431C18.9499 15.6189 18.9499 18.4501 18.5011 21.2258C18.3967 21.8725 18.0812 22.4651 17.605 22.9089C17.1288 23.3527 16.5194 23.6221 15.8741 23.6741L14.0394 23.8231C11.1255 24.059 8.19928 24.059 5.28534 23.8231L3.45063 23.6741C2.80539 23.6221 2.19596 23.3527 1.71976 22.9089C1.24355 22.4651 0.928049 21.8725 0.823668 21.2258C0.374858 18.4501 0.374858 15.6189 0.823668 12.8431C0.928049 12.1964 1.24355 11.6038 1.71976 11.16C2.19596 10.7162 2.80539 10.4468 3.45063 10.3948L4.29317 10.3266ZM9.20371 1.88797C9.71766 1.82682 10.2385 1.86917 10.7362 2.01258C11.2339 2.156 11.6987 2.39765 12.1038 2.72363C12.5089 3.04961 12.8464 3.45347 13.0967 3.91198C13.347 4.37049 13.5053 4.87458 13.5624 5.39525L13.5906 5.64976C13.6249 5.96511 13.6249 6.28128 13.5906 6.59828L13.1969 10.1863C10.843 10.0333 8.48179 10.0333 6.12788 10.1863L5.73543 6.59828C5.70124 6.28306 5.70124 5.96499 5.73543 5.64976L5.76241 5.39525C5.86023 4.50305 6.25366 3.67068 6.87857 3.03379C7.50348 2.39689 8.32304 1.99302 9.20371 1.88797ZM13.8935 12.1044C11.0772 11.8771 8.24755 11.8771 5.43128 12.1044L3.5978 12.2534C3.36229 12.272 3.13975 12.37 2.96585 12.5319C2.79195 12.6937 2.67677 12.91 2.63875 13.146C2.22234 15.722 2.22234 18.3494 2.63875 20.9254C2.67652 21.1616 2.7916 21.3782 2.96552 21.5403C3.13943 21.7024 3.36211 21.8006 3.5978 21.8193L5.43251 21.9683C8.24834 22.1955 11.0764 22.1955 13.8935 21.9683L15.7282 21.8193C15.9637 21.8004 16.1861 21.702 16.3597 21.5399C16.5334 21.3778 16.6483 21.1614 16.686 20.9254C17.1024 18.3494 17.1024 15.722 16.686 13.146C16.6483 12.91 16.5334 12.6936 16.3597 12.5315C16.1861 12.3694 15.9637 12.271 15.7282 12.2521L13.8935 12.1044Z" fill="black"/>
</svg>
