<svg width="117" height="19" viewBox="0 0 117 19" fill="none" xmlns="http://www.w3.org/2000/svg">
<path d="M0.917614 0.545454H4.11364L9.67045 14.1136H9.875L15.4318 0.545454H18.6278V18H16.1222V5.36932H15.9602L10.8125 17.9744H8.73295L3.58523 5.36079H3.4233V18H0.917614V0.545454ZM22.4567 18V0.545454H33.3999V2.8125H25.0902V8.13068H32.8288V10.3892H25.0902V15.733H33.5021V18H22.4567ZM36.9176 18V0.545454H43.1392C44.4915 0.545454 45.6136 0.778409 46.5057 1.24432C47.4034 1.71023 48.0739 2.35511 48.517 3.17898C48.9602 3.99716 49.1818 4.94318 49.1818 6.01705C49.1818 7.08523 48.9574 8.02557 48.5085 8.83807C48.0653 9.64489 47.3949 10.2727 46.4972 10.7216C45.6051 11.1705 44.483 11.3949 43.1307 11.3949H38.4176V9.12784H42.892C43.7443 9.12784 44.4375 9.00568 44.9716 8.76136C45.5114 8.51705 45.9062 8.16193 46.1562 7.69602C46.4062 7.23011 46.5312 6.67045 46.5312 6.01705C46.5312 5.35795 46.4034 4.78693 46.1477 4.30398C45.8977 3.82102 45.5028 3.4517 44.9631 3.19602C44.429 2.93466 43.7273 2.80398 42.858 2.80398H39.5511V18H36.9176ZM45.5341 10.125L49.8466 18H46.8466L42.6193 10.125H45.5341ZM66.8835 6.22159H64.2244C64.1222 5.65341 63.9318 5.15341 63.6534 4.72159C63.375 4.28977 63.0341 3.9233 62.6307 3.62216C62.2273 3.32102 61.7756 3.09375 61.2756 2.94034C60.7813 2.78693 60.2557 2.71023 59.6989 2.71023C58.6932 2.71023 57.7926 2.96307 56.9972 3.46875C56.2074 3.97443 55.5824 4.71591 55.1222 5.69318C54.6676 6.67045 54.4403 7.86364 54.4403 9.27273C54.4403 10.6932 54.6676 11.892 55.1222 12.8693C55.5824 13.8466 56.2102 14.5852 57.0057 15.0852C57.8011 15.5852 58.696 15.8352 59.6903 15.8352C60.2415 15.8352 60.7642 15.7614 61.2585 15.6136C61.7585 15.4602 62.2102 15.2358 62.6136 14.9403C63.017 14.6449 63.358 14.2841 63.6364 13.858C63.9205 13.4261 64.1165 12.9318 64.2244 12.375L66.8835 12.3835C66.7415 13.2415 66.4659 14.0312 66.0568 14.7528C65.6534 15.4688 65.1335 16.0881 64.4972 16.6108C63.8665 17.1278 63.1449 17.5284 62.3324 17.8125C61.5199 18.0966 60.6335 18.2386 59.6733 18.2386C58.1619 18.2386 56.8153 17.8807 55.6335 17.1648C54.4517 16.4432 53.5199 15.4119 52.8381 14.071C52.1619 12.7301 51.8239 11.1307 51.8239 9.27273C51.8239 7.40909 52.1648 5.80966 52.8466 4.47443C53.5284 3.13352 54.4602 2.10511 55.642 1.3892C56.8239 0.667613 58.1676 0.306818 59.6733 0.306818C60.5994 0.306818 61.4631 0.440341 62.2642 0.707386C63.071 0.96875 63.7955 1.35511 64.4375 1.86648C65.0795 2.37216 65.6108 2.99148 66.0312 3.72443C66.4517 4.4517 66.7358 5.28409 66.8835 6.22159ZM81.2592 0.545454H83.9013V12.0256C83.9013 13.2472 83.6143 14.3295 83.0405 15.2727C82.4666 16.2102 81.6598 16.9489 80.62 17.4886C79.5803 18.0227 78.3615 18.2898 76.9638 18.2898C75.5717 18.2898 74.3558 18.0227 73.3161 17.4886C72.2763 16.9489 71.4695 16.2102 70.8956 15.2727C70.3217 14.3295 70.0348 13.2472 70.0348 12.0256V0.545454H72.6683V11.8125C72.6683 12.6023 72.8416 13.304 73.1882 13.9176C73.5405 14.5312 74.0376 15.0142 74.6797 15.3665C75.3217 15.7131 76.0831 15.8864 76.9638 15.8864C77.8501 15.8864 78.6143 15.7131 79.2564 15.3665C79.9041 15.0142 80.3984 14.5312 80.7393 13.9176C81.0859 13.304 81.2592 12.6023 81.2592 11.8125V0.545454ZM87.7301 18V0.545454H93.9517C95.304 0.545454 96.4261 0.778409 97.3182 1.24432C98.2159 1.71023 98.8864 2.35511 99.3295 3.17898C99.7727 3.99716 99.9943 4.94318 99.9943 6.01705C99.9943 7.08523 99.7699 8.02557 99.321 8.83807C98.8778 9.64489 98.2074 10.2727 97.3097 10.7216C96.4176 11.1705 95.2955 11.3949 93.9432 11.3949H89.2301V9.12784H93.7045C94.5568 9.12784 95.25 9.00568 95.7841 8.76136C96.3239 8.51705 96.7188 8.16193 96.9688 7.69602C97.2188 7.23011 97.3438 6.67045 97.3438 6.01705C97.3438 5.35795 97.2159 4.78693 96.9602 4.30398C96.7102 3.82102 96.3153 3.4517 95.7756 3.19602C95.2415 2.93466 94.5398 2.80398 93.6705 2.80398H90.3636V18H87.7301ZM96.3466 10.125L100.659 18H97.6591L93.4318 10.125H96.3466ZM101.219 0.545454H104.211L108.771 8.48011H108.958L113.518 0.545454H116.509L110.177 11.1477V18H107.552V11.1477L101.219 0.545454Z" fill="black"/>
</svg>
