<svg xmlns="http://www.w3.org/2000/svg" xmlns:xlink="http://www.w3.org/1999/xlink" height="800" width="1200" viewBox="-43.5273 -17 377.2366 102"><g transform="translate(-4.226 -2)"><defs><path id="a" d="M3.813 2h290.595v68H3.813z"/></defs><clipPath id="b"><use height="100%" width="100%" overflow="visible" xlink:href="#a"/></clipPath><path d="M116.32 19.193v37.239h19.891s-.02-14.075.042-19.333c.045-3.387 1.147-8.252 6.298-8.261 0 0 4.88-.671 5.933 5.327.441 4.35.035 11.388.144 22.268h20.021s.083-12.595-.003-25.06c-.03-4.609-5.392-12.57-13.853-13.481 0 0-9.07-2.105-18.496 6.184l-.022-4.817z" fill="#ED1C24" clip-path="url(#b)"/></g><g transform="translate(-4.226 -2)"><defs><path id="c" d="M3.813 2h290.595v68H3.813z"/></defs><clipPath id="d"><use height="100%" width="100%" overflow="visible" xlink:href="#c"/></clipPath><path fill="#ED1C24" clip-path="url(#d)" d="M266.656 39.22l8.084-20.026h19.668L269.709 70h-19.672l5.998-13.285-19.564-37.513h22.443z"/></g><g transform="translate(-4.226 -2)"><defs><path id="e" d="M3.813 2h290.595v68H3.813z"/></defs><clipPath id="f"><use height="100%" width="100%" overflow="visible" xlink:href="#e"/></clipPath><path d="M85.711 19.346l-.065 3.859c-5.189-5.509-12.857-5.889-12.857-5.889-22.192-1.402-21.468 21.55-21.468 21.55 1.227 18.202 17.565 19.06 17.565 19.06 11.963-.309 16.824-6.414 16.824-6.414v4.919h19.709V19.346zm0 22.517s-1.097 5.026-6.343 5.637c0 0-8.17 1.098-7.806-10.732 0 0 .357-6.935 4.955-8.602 4.125-.952 6.997.394 9.193 4.761z" fill="#ED1C24" clip-path="url(#f)"/></g><g transform="translate(-4.226 -2)"><defs><path id="g" d="M3.813 2h290.595v68H3.813z"/></defs><clipPath id="h"><use height="100%" width="100%" overflow="visible" xlink:href="#g"/></clipPath><path d="M211.101 2.776V23.43c-6.181-5.531-15.45-5.856-15.45-5.856-18.539.649-18.213 18.215-18.213 18.215-1.138 23.256 18.7 21.955 18.7 21.955 11.872-.649 16.101-6.505 16.101-6.505v5.038h19.029V2.776zm.086 39.236s-1.305 5.854-6.429 5.975c0 0-6.731-.017-6.607-9.406-.038-2.519.439-10.28 6.869-10.564 0 0 4.677-.265 6.231 6.012-.003-.001 1.028 5.117-.064 7.983" fill="#ED1C24" clip-path="url(#h)"/></g><path fill="#ED1C24" d="M53.409 13.607H37.251v40.747H16.526V13.607H.001L0 .051 53.409 0z"/></svg>