<svg width="55" height="55" viewBox="0 0 55 55" fill="none" xmlns="http://www.w3.org/2000/svg">
<g clip-path="url(#clip0_338_31)">
<path d="M27.5 0C20.2082 0 13.2086 2.8991 8.05664 8.05449C2.89941 13.212 0.00147576 20.2064 0 27.5C0 34.7905 2.90039 41.7901 8.05664 46.9455C13.2086 52.1009 20.2082 55 27.5 55C34.7918 55 41.7914 52.1009 46.9434 46.9455C52.0996 41.7901 55 34.7905 55 27.5C55 20.2095 52.0996 13.2099 46.9434 8.05449C41.7914 2.8991 34.7918 0 27.5 0Z" fill="url(#paint0_linear_338_31)"/>
<path d="M12.4481 27.2095C20.466 23.717 25.8113 21.4144 28.484 20.3018C36.1238 17.1251 37.7094 16.5734 38.7449 16.5547C38.9727 16.5511 39.4797 16.6074 39.8106 16.8748C40.0856 17.1004 40.1629 17.4055 40.2016 17.6197C40.2359 17.8337 40.2832 18.3214 40.2445 18.7021C39.832 23.0505 38.0402 33.6028 37.1293 38.4733C36.7469 40.5341 35.9863 41.225 35.2516 41.2925C33.6531 41.4394 32.4414 40.2372 30.8945 39.2235C28.4754 37.6367 27.109 36.6493 24.7586 35.1011C22.043 33.3119 23.8047 32.3283 25.3516 30.7213C25.7555 30.3006 32.7938 23.9005 32.927 23.3199C32.9441 23.2473 32.9613 22.9766 32.7981 22.834C32.6391 22.6909 32.4027 22.7399 32.2309 22.7785C31.9859 22.8335 28.1231 25.3893 20.6293 30.4455C19.5336 31.1991 18.541 31.5665 17.6473 31.5472C16.6676 31.5261 14.777 30.992 13.3719 30.5357C11.6531 29.9758 10.2824 29.6797 10.4027 28.7288C10.4629 28.2338 11.1461 27.7272 12.4481 27.2095Z" fill="white"/>
</g>
<defs>
<linearGradient id="paint0_linear_338_31" x1="2750" y1="0" x2="2750" y2="5500" gradientUnits="userSpaceOnUse">
<stop stop-color="#2AABEE"/>
<stop offset="1" stop-color="#229ED9"/>
</linearGradient>
<clipPath id="clip0_338_31">
<rect width="55" height="55" fill="white"/>
</clipPath>
</defs>
</svg>
