<svg width="38" height="38" viewBox="0 0 38 38" fill="none" xmlns="http://www.w3.org/2000/svg">
<path d="M8.31246 7.91663C6.9477 7.91663 5.63884 8.45877 4.67381 9.42381C3.70877 10.3888 3.16663 11.6977 3.16663 13.0625V24.9375C3.16663 26.3022 3.70877 27.6111 4.67381 28.5761C5.63884 29.5411 6.9477 30.0833 8.31246 30.0833H20.1875C21.5522 30.0833 22.8611 29.5411 23.8261 28.5761C24.7911 27.6111 25.3333 26.3022 25.3333 24.9375V24.4435L30.4918 28.006C32.3285 29.2726 34.8365 27.9585 34.8365 25.726V12.2724C34.8365 10.0399 32.3285 8.72254 30.4918 9.99238L25.3333 13.5565V13.0625C25.3333 11.6977 24.7911 10.3888 23.8261 9.42381C22.8611 8.45877 21.5522 7.91663 20.1875 7.91663H8.31246ZM25.3333 16.4413L31.8408 11.9478C31.9002 11.9068 31.9698 11.8828 32.0418 11.8785C32.1139 11.8741 32.1858 11.8896 32.2498 11.9232C32.3137 11.9568 32.3672 12.0072 32.4045 12.069C32.4418 12.1309 32.4615 12.2017 32.4615 12.274V25.7244C32.4615 25.7966 32.4418 25.8675 32.4045 25.9293C32.3672 25.9911 32.3137 26.0416 32.2498 26.0752C32.1858 26.1088 32.1139 26.1242 32.0418 26.1199C31.9698 26.1155 31.9002 26.0916 31.8408 26.0505L25.3333 21.557V16.4413ZM5.54163 13.0625C5.54163 11.533 6.78296 10.2916 8.31246 10.2916H20.1875C21.717 10.2916 22.9583 11.533 22.9583 13.0625V24.9375C22.9583 25.6723 22.6664 26.3771 22.1467 26.8967C21.6271 27.4164 20.9223 27.7083 20.1875 27.7083H8.31246C7.57759 27.7083 6.87282 27.4164 6.35318 26.8967C5.83355 26.3771 5.54163 25.6723 5.54163 24.9375V13.0625Z" fill="black"/>
</svg>
