<svg width="38" height="44" viewBox="0 0 38 44" fill="none" xmlns="http://www.w3.org/2000/svg">
<path d="M33.25 9.80521H30.4V7.38488C30.3985 5.45974 29.7975 3.614 28.7288 2.25272C27.6602 0.891435 26.2113 0.125824 24.7 0.123901H4.75C3.49022 0.123901 2.28204 0.761396 1.39124 1.89614C0.500445 3.03089 0 4.56994 0 6.17472V36.4288C0.00150901 38.3539 0.602528 40.1997 1.67116 41.561C2.73979 42.9222 4.18873 43.6879 5.7 43.6898H33.25C34.5098 43.6898 35.718 43.0523 36.6088 41.9175C37.4996 40.7828 38 39.2437 38 37.639V15.856C38 14.2513 37.4996 12.7122 36.6088 11.5775C35.718 10.4427 34.5098 9.80521 33.25 9.80521ZM4.75 2.54423H24.7C25.7074 2.54615 26.673 3.05676 27.3853 3.96414C28.0977 4.87153 28.4985 6.10165 28.5 7.38488V9.80521H4.75C4.37573 9.80521 4.00513 9.7113 3.65935 9.52885C3.31357 9.34641 2.99939 9.07899 2.73475 8.74186C2.4701 8.40474 2.26017 8.00452 2.11694 7.56405C1.97372 7.12358 1.9 6.65148 1.9 6.17472C1.9 5.69796 1.97372 5.22586 2.11694 4.78539C2.26017 4.34492 2.4701 3.9447 2.73475 3.60757C2.99939 3.27045 3.31357 3.00303 3.65935 2.82058C4.00513 2.63813 4.37573 2.54423 4.75 2.54423ZM36.1 31.5882H32.3C31.2922 31.5882 30.3256 31.0782 29.613 30.1704C28.9004 29.2626 28.5 28.0313 28.5 26.7475C28.5 25.4637 28.9004 24.2324 29.613 23.3246C30.3256 22.4168 31.2922 21.9068 32.3 21.9068H36.1V31.5882ZM36.1 19.4865H32.3C31.5515 19.4865 30.8103 19.6743 30.1187 20.0392C29.4271 20.4041 28.7988 20.939 28.2695 21.6132C27.7402 22.2875 27.3203 23.0879 27.0339 23.9688C26.7474 24.8498 26.6 25.794 26.6 26.7475C26.6 27.701 26.7474 28.6452 27.0339 29.5262C27.3203 30.4071 27.7402 31.2075 28.2695 31.8818C28.7988 32.556 29.4271 33.0909 30.1187 33.4558C30.8103 33.8207 31.5515 34.0085 32.3 34.0085H36.1V37.639C36.1 38.6018 35.7997 39.5253 35.2653 40.2061C34.7308 40.887 34.0059 41.2695 33.25 41.2695H5.7C4.69264 41.2675 3.72697 40.7569 3.01466 39.8495C2.30235 38.9422 1.90151 37.712 1.9 36.4288V11.013C2.7208 11.802 3.7221 12.228 4.75 12.2255H33.25C34.0059 12.2255 34.7308 12.608 35.2653 13.2889C35.7997 13.9697 36.1 14.8932 36.1 15.856V19.4865Z" fill="black"/>
</svg>
