<svg xmlns="http://www.w3.org/2000/svg" height="800" width="1200" viewBox="-193.3389 -127.5685 1675.6038 765.411"><path d="M249.286 7.91c1.73-2.68 2.84-5.85 5.38-7.91 11.88 18.9 23.8 37.77 35.44 56.81 61.95.33 123.91.05 185.87.14 270.97-.01 541.95.03 812.92-.02.05 111.5 0 222.99.03 334.49 0 3.09-.01 6.18-.11 9.28-117.6-.03-235.21.03-352.81-.03-311.96.08-623.92-.04-935.87.06-.27-48.73-.04-97.46-.12-146.19.03-65.88-.07-131.75.05-197.63 73.28.11 146.55 0 219.83.05 9.85-16.32 19.54-32.73 29.39-49.05z" fill="#fe0202"/><path d="M219.806 57.22c23.61-.02 47.21-.02 70.81 0-11.23 18.48-22.26 37.08-33.35 55.63-.36.77-.92 1.3-1.68 1.61-11.91-19.09-23.79-38.2-35.78-57.24zm573.31 156.17c23.03-.6 46.94 6.93 63.45 23.49 26.34 25.38 29.06 70.37 7.55 99.59-8.49 11.5-20.59 20.09-33.86 25.23-20.07 7.46-42.59 8.1-63.08 1.95-15.7-4.73-30.06-14.33-39.74-27.64-9.25-12.47-13.68-28.08-13.91-43.5-.36-16.45 4.13-33.25 13.94-46.59 12.12-16.72 31.3-27.72 51.56-31.06 4.63-1 9.39-.92 14.09-1.47zm-731.62 2.39c20.5.02 41-.05 61.5.04 20.5.58 41.75 5.7 57.96 18.83 12.24 9.74 19.82 24.42 22.6 39.67 3.66 19.96 1.54 41.75-9.49 59.17-13.02 20.84-38.03 31.77-62.08 31.6-23.5-.01-46.99 0-70.49-.01.03-49.76.03-99.53 0-149.3zm168.27-.04c18.03.09 36.05 0 54.07.05-.02 49.76-.02 99.52.01 149.29-18.06-.04-36.11.09-54.16-.06.12-49.76-.05-99.52.08-149.28zm129.84.06c19.96-.06 39.93.01 59.89-.03 17.78 49.75 35.16 99.65 53.31 149.27-19.07.1-38.14.01-57.2.04-1.75-5.98-3.34-12.01-5.23-17.94l-1.37-.36c-13.27-.07-26.53-.01-39.8-.01-1.58 6.09-2.96 12.23-4.55 18.32-19.07-.08-38.14.13-57.21-.1 8.04-22.17 15.69-44.49 23.37-66.79 9.72-27.42 19.12-54.96 28.79-82.4zm162.6-.05c18.57.06 37.14.03 55.71.01 7.13 26.06 13.54 52.31 20.84 78.32 1.99.76 1.57-2.46 2.07-3.59 2.08-14.63 6.78-28.67 10.6-42.91 3.08-10.58 6.02-21.2 9.09-31.78 18.34-.03 36.67-.05 55.01.01 8.06 49.78 16.49 99.5 24.89 149.22-17.62.07-35.24.12-52.86-.02-2.17-26.9-4.62-53.77-6.91-80.65.36-1.26-.87-1.19-1.63-1.37-.57 7.32-2.91 14.33-5.17 21.27-6.5 20.24-12.74 40.56-19.19 60.82-10.51.02-21.02-.03-31.53.02-6.5-20.22-12.73-40.52-18.98-60.82-2.09-6.83-3.32-13.87-4.32-20.93l-.75-.52-.86.6c-2.04 27.25-5.49 54.4-7.83 81.63-17.45.04-34.89.04-52.34-.01 8.18-49.75 15.99-99.55 24.16-149.3zm383.09.04c17.33.03 34.65-.1 51.98.06 16 27.77 32.42 55.3 48.51 83.01.54.08 1.62.25 2.16.33-1.85-11.55-4.48-23.03-4.86-34.76-.32-16.21-.28-32.44-.03-48.64 17.25-.02 34.5-.01 51.75-.01-.02 49.77-.04 99.53.01 149.3-17.33-.03-34.67.07-52-.05-15.55-26.19-31.58-52.09-47.19-78.24-.5-.01-1.49-.02-1.99-.02 5.26 25.77 3.28 52.15 3.67 78.26-17.36.07-34.72.12-52.08-.03.19-49.73.05-99.47.07-149.21zm186.03 0c13.25-.03 26.51 0 39.76-.01 13.67.12 27.47-.71 40.97 2.02 18.78 3.31 37.5 11.93 49.22 27.46 11.56 15.37 15.18 35.37 13.78 54.22-1.17 16.92-7.96 33.85-20.44 45.58-13.55 13.37-32.83 19.79-51.62 20.02-23.89.01-47.79.01-71.68 0 .04-49.77.02-99.53.01-149.29z" fill="#fffdfd"/><path d="M115.616 262.47c9.17-.4 19.32.51 26.54 6.8 6.66 5.64 8.97 14.78 8.86 23.2.17 8.08-2.61 16.71-9.19 21.8-7.38 5.73-17.11 6.9-26.18 6.62-.07-19.48 0-38.95-.03-58.42zm672.93.67c8.71-1.9 18.45-.43 25.45 5.36 12.71 10.48 13.85 31.72 2.83 43.8-11 11.74-32.25 11.51-42.62-.96-9.92-12.31-8.6-32.7 3.77-42.91 3.03-2.58 6.71-4.32 10.57-5.29zm356.83-.65c8.42-.35 17.43.29 24.65 5.08 6.69 4.26 10.27 12.13 10.84 19.86 1.25 9.17-.73 19.56-7.97 25.89-7.46 6.52-17.88 7.83-27.42 7.58-.16-19.47.03-38.94-.1-58.41zm-765.03 43.38c2.56-13.54 5.52-27.01 8.57-40.44 2.74-1.21 2.28 2.19 2.79 3.86 1.89 14.18 5.89 27.94 9.18 41.84-7.2.16-14.4.02-21.6.08.18-1.65.37-3.29.53-4.93.13-.11.4-.31.53-.41z" fill="#fe0202"/><path d="M203.416 459.48c6.14.28 12.3.3 18.43 0 .47 7.33.1 14.69.22 22.03-.12 5.81.59 11.84-1.45 17.42-1.93 5.53-6.84 9.95-12.57 11.22-6.38.15-12.79.15-19.18 0-5.32-1.18-9.91-5.17-12.11-10.13-1.7-4.27-2.11-8.95-2.02-13.51.03-8.93.01-17.87 0-26.8 6.33-.09 12.65-.08 18.98-.01.07 10.62-.23 21.26.14 31.87.38 4.94 8.88 4.89 9.14-.02.77-10.66-.06-21.39.42-32.07zm-180.44.51c6.66-.63 13.38-.34 20.06-.17 2.22 8.66 4.14 17.42 6.73 25.99 1.84-8.87 4.76-17.47 7.28-26.16 6.36.03 12.73-.02 19.09.04 2.99 16.8 5.42 33.69 8.42 50.48-6.03.12-12.07.05-18.1.04-.98-7.61-1.55-15.26-2.23-22.9-.25-.54-.73-1.62-.97-2.16-2.33 8.48-5.4 16.75-8.2 25.09-3.7-.01-7.39-.01-11.09-.02-2.32-9.3-6.18-18.24-7.57-27.75-1.17 9.22-1.86 18.49-2.94 27.71-6.04.09-12.08.06-18.13.02 2.52-16.74 5.76-33.4 7.65-50.21zm291.86-.31c6.27-.03 12.55-.04 18.82.01-.05 11.46.02 22.93-.04 34.4 5.19.09 10.38.01 15.57.07-.27 5.3.53 10.81-.38 15.97-11.3.25-22.62.02-33.92.11-.11-16.86-.02-33.71-.05-50.56zm119.98.02c13.16.03 26.34-.25 39.5.14-.09 5.41-.07 10.82-.02 16.23-3.47.05-6.94-.07-10.4-.08v34.22c-6.28.04-12.57.02-18.85.01-.09-11.43.1-22.87-.1-34.3-3.38.08-6.77.2-10.15.24.01-5.49-.01-10.98.02-16.46zm246.68-.03c6.34-.03 12.68.01 19.03-.02 2.49 9 4.69 18.08 7 27.13 1.65-9.24 4.72-18.14 7.32-27.14 6.36.08 12.73-.08 19.1.1 2.85 16.82 5.31 33.7 8.3 50.5-6.05-.02-12.1.02-18.15-.03-.75-6.91-1.3-13.83-2.03-20.74-.07-1.79-.85-3.68-.05-5.4-.17-.05-.52-.14-.69-.19-2.38 8.87-5.26 17.6-8.08 26.34-3.86.02-7.72.02-11.58-.02-2.61-8.41-4.65-17-7.65-25.27-1.17 8.41-1.64 16.91-2.87 25.31-6-.03-12 .03-17.99-.05 2.93-16.81 5.42-33.71 8.34-50.52zm151.04-.01c11.57.11 23.15-.22 34.71.18-.14 4.23.14 8.48-.13 12.72l-.81 1.14c-5 .15-10-.02-14.99.05-.02 1.47-.02 2.95 0 4.44 4.77.01 9.55.02 14.33-.02.17 4.54.18 9.08-.02 13.62-4.77-.05-9.55-.03-14.32-.03-.01 1.49-.01 2.97.01 4.47 5.41 0 10.83.03 16.25-.03.19 4.66.09 9.33.12 14.01-11.74 0-23.48.11-35.22-.06.11-16.83-.03-33.66.07-50.49zm127.25.17c6.71-.34 13.44-.13 20.16-.14 7.9.04 16.36 2 22.15 7.72 6.88 6.64 8.4 17.31 6.04 26.27-2.49 9.67-12.12 17.07-22.15 16.57-8.74-.13-17.47.18-26.2-.18.05-16.74.05-33.49 0-50.24zm140.4-.14c6.28-.06 12.55-.02 18.83-.03v50.58c-6.28-.02-12.55.01-18.82-.03-.01-16.84 0-33.68-.01-50.52zm-536.32.04c6.17-.12 12.34-.1 18.51-.01-.03 16.83.03 33.66-.02 50.49-6.15.02-12.3.06-18.45-.02-.08-16.82 0-33.64-.04-50.46zm661.41.05c6.92-.26 13.85-.05 20.78-.13 6.28 16.78 12.1 33.73 18.19 50.59-6.7-.04-13.4.04-20.1-.05a97.98 97.98 0 01-1.14-5.82c-4.64-.15-9.29-.09-13.93-.09-.48 1.97-.95 3.95-1.4 5.93-6.65.03-13.29.05-19.92-.02 5.93-16.77 12.06-33.48 17.52-50.41z" fill="#101010"/><path d="M978.746 475.77c3.18.16 6.7.39 9.11 2.76 3.76 4.28 3.48 12.25-1.77 15.23-2.17 1.49-4.89 1.28-7.38 1.32.06-6.44 0-12.88.04-19.31zm253.5 16.15c1.38-5.14 2.12-10.45 3.79-15.5.67 5.24 2.06 10.34 3.4 15.45-2.41.02-4.8.03-7.19.05z" fill="#fffdfd"/></svg>