<svg width="60" height="61" viewBox="0 0 60 61" fill="none" xmlns="http://www.w3.org/2000/svg">
<g clip-path="url(#clip0_254_18)">
<path d="M1.28041 30.135C1.279 35.2601 2.6065 40.2645 5.13072 44.6754L1.039 59.7462L16.3278 55.7022C20.5564 58.0245 25.2943 59.2413 30.109 59.2416H30.1217C46.0158 59.2416 58.954 46.1945 58.9608 30.1579C58.9638 22.387 55.9667 15.0798 50.5212 9.58221C45.0767 4.08512 37.8356 1.05616 30.1205 1.05261C14.2245 1.05261 1.2872 14.099 1.28064 30.135" fill="url(#paint0_linear_254_18)"/>
<path d="M0.250781 30.1255C0.249141 35.4351 1.62422 40.6184 4.23844 45.1873L0 60.7983L15.837 56.6094C20.2005 59.0095 25.1135 60.2749 30.1127 60.2767H30.1256C46.59 60.2767 59.993 46.7603 60 30.1496C60.0028 22.0995 56.8978 14.5296 51.2578 8.83507C45.6171 3.14126 38.1171 0.00331008 30.1256 0C13.6584 0 0.257344 13.5146 0.250781 30.1255ZM9.68227 44.4004L9.09094 43.4535C6.60516 39.4663 5.29312 34.8587 5.295 30.1274C5.30016 16.3208 16.4386 5.08806 30.135 5.08806C36.7678 5.0909 43.0013 7.69924 47.6897 12.4317C52.3779 17.1646 54.9577 23.4562 54.956 30.1477C54.9499 43.9543 43.8112 55.1884 30.1256 55.1884H30.1158C25.6596 55.1861 21.2892 53.9789 17.4778 51.6975L16.5708 51.1549L7.17281 53.6405L9.68227 44.4004Z" fill="url(#paint1_linear_254_18)"/>
<path d="M22.6589 17.5311C22.0997 16.2773 21.5112 16.252 20.9794 16.23C20.5439 16.2111 20.0461 16.2125 19.5487 16.2125C19.0509 16.2125 18.2421 16.4015 17.5584 17.1545C16.8741 17.9083 14.9456 19.7297 14.9456 23.4344C14.9456 27.1391 17.6205 30.7197 17.9934 31.2226C18.3668 31.7245 23.1574 39.5703 30.7446 42.5887C37.0502 45.097 38.3334 44.5981 39.7019 44.4723C41.0707 44.347 44.1185 42.6513 44.7403 40.893C45.3626 39.1348 45.3626 37.6278 45.176 37.3129C44.9894 36.9991 44.4916 36.8107 43.7451 36.4343C42.9987 36.0579 39.3286 34.2359 38.6444 33.9846C37.9601 33.7335 37.4625 33.6082 36.9647 34.3622C36.4669 35.115 35.0374 36.8107 34.6017 37.3129C34.1665 37.8162 33.7308 37.8789 32.9845 37.5023C32.2376 37.1244 29.8336 36.3303 26.9815 33.7652C24.7624 31.7692 23.2643 29.3044 22.8288 28.5504C22.3934 27.7976 22.7822 27.3895 23.1565 27.0143C23.4919 26.6769 23.9032 26.135 24.2768 25.6954C24.649 25.2557 24.7732 24.9419 25.0221 24.4397C25.2712 23.9371 25.1466 23.4973 24.9602 23.1207C24.7732 22.744 23.3226 19.02 22.6589 17.5311Z" fill="white"/>
</g>
<defs>
<linearGradient id="paint0_linear_254_18" x1="2897.13" y1="5870.41" x2="2897.13" y2="1.05261" gradientUnits="userSpaceOnUse">
<stop stop-color="#1FAF38"/>
<stop offset="1" stop-color="#60D669"/>
</linearGradient>
<linearGradient id="paint1_linear_254_18" x1="3000" y1="6079.83" x2="3000" y2="0" gradientUnits="userSpaceOnUse">
<stop stop-color="#F9F9F9"/>
<stop offset="1" stop-color="white"/>
</linearGradient>
<clipPath id="clip0_254_18">
<rect width="60" height="61" fill="white"/>
</clipPath>
</defs>
</svg>
